<?xml version="1.0" encoding="utf-8" standalone="no"?>
<!DOCTYPE svg PUBLIC "-//W3C//DTD SVG 1.1//EN"
  "http://www.w3.org/Graphics/SVG/1.1/DTD/svg11.dtd">
<svg xmlns:xlink="http://www.w3.org/1999/xlink" width="576pt" height="216pt" viewBox="0 0 576 216" xmlns="http://www.w3.org/2000/svg" version="1.1">
 <metadata>
  <rdf:RDF xmlns:dc="http://purl.org/dc/elements/1.1/" xmlns:cc="http://creativecommons.org/ns#" xmlns:rdf="http://www.w3.org/1999/02/22-rdf-syntax-ns#">
   <cc:Work>
    <dc:type rdf:resource="http://purl.org/dc/dcmitype/StillImage"/>
    <dc:date>2024-03-26T17:06:25.667183</dc:date>
    <dc:format>image/svg+xml</dc:format>
    <dc:creator>
     <cc:Agent>
      <dc:title>Matplotlib v3.5.3, https://matplotlib.org/</dc:title>
     </cc:Agent>
    </dc:creator>
   </cc:Work>
  </rdf:RDF>
 </metadata>
 <defs>
  <style type="text/css">*{stroke-linejoin: round; stroke-linecap: butt}</style>
 </defs>
 <g id="figure_1">
  <g id="patch_1">
   <path d="M 0 216 
L 576 216 
L 576 0 
L 0 0 
L 0 216 
z
" style="fill: none"/>
  </g>
  <g id="axes_1">
   <g id="PathCollection_1">
    <defs>
     <path id="mdf86a1cbf1" d="M 0 7.071068 
C 1.875269 7.071068 3.673985 6.326016 5 5 
C 6.326016 3.673985 7.071068 1.875269 7.071068 0 
C 7.071068 -1.875269 6.326016 -3.673985 5 -5 
C 3.673985 -6.326016 1.875269 -7.071068 0 -7.071068 
C -1.875269 -7.071068 -3.673985 -6.326016 -5 -5 
C -6.326016 -3.673985 -7.071068 -1.875269 -7.071068 0 
C -7.071068 1.875269 -6.326016 3.673985 -5 5 
C -3.673985 6.326016 -1.875269 7.071068 0 7.071068 
z
" style="stroke: #008000; stroke-width: 0.5"/>
    </defs>
    <g clip-path="url(#pdf015b00cf)">
     <use xlink:href="#mdf86a1cbf1" x="92.290909" y="165.702857" style="fill: #008000; stroke: #008000; stroke-width: 0.5"/>
    </g>
   </g>
   <g id="PathCollection_2">
    <g clip-path="url(#pdf015b00cf)">
     <use xlink:href="#mdf86a1cbf1" x="173.454545" y="165.702857" style="fill: #008000; stroke: #008000; stroke-width: 0.5"/>
    </g>
   </g>
   <g id="PathCollection_3">
    <g clip-path="url(#pdf015b00cf)">
     <use xlink:href="#mdf86a1cbf1" x="254.618182" y="165.702857" style="fill: #008000; stroke: #008000; stroke-width: 0.5"/>
    </g>
   </g>
   <g id="PathCollection_4">
    <g clip-path="url(#pdf015b00cf)">
     <use xlink:href="#mdf86a1cbf1" x="335.781818" y="165.702857" style="fill: #008000; stroke: #008000; stroke-width: 0.5"/>
    </g>
   </g>
   <g id="PathCollection_5">
    <g clip-path="url(#pdf015b00cf)">
     <use xlink:href="#mdf86a1cbf1" x="416.945455" y="165.702857" style="fill: #008000; stroke: #008000; stroke-width: 0.5"/>
    </g>
   </g>
   <g id="PathCollection_6">
    <g clip-path="url(#pdf015b00cf)">
     <use xlink:href="#mdf86a1cbf1" x="498.109091" y="165.702857" style="fill: #008000; stroke: #008000; stroke-width: 0.5"/>
    </g>
   </g>
   <g id="PathCollection_7">
    <g clip-path="url(#pdf015b00cf)">
     <use xlink:href="#mdf86a1cbf1" x="92.290909" y="49.217143" style="fill: #008000; stroke: #008000; stroke-width: 0.5"/>
    </g>
   </g>
   <g id="PathCollection_8">
    <path d="M 92.696727 62.04702 
C 95.944789 62.04702 99.060255 60.756552 101.356981 58.459825 
C 103.653708 56.163099 104.944176 53.047633 104.944176 49.799571 
C 104.944176 46.55151 103.653708 43.436044 101.356981 41.139317 
C 99.060255 38.842591 95.944789 37.552123 92.696727 37.552123 
C 89.448666 37.552123 86.333199 38.842591 84.036473 41.139317 
C 81.739747 43.436044 80.449279 46.55151 80.449279 49.799571 
C 80.449279 53.047633 81.739747 56.163099 84.036473 58.459825 
C 86.333199 60.756552 89.448666 62.04702 92.696727 62.04702 
L 92.696727 62.04702 
z
" clip-path="url(#pdf015b00cf)" style="fill: none; stroke: #800080; stroke-width: 3"/>
   </g>
   <g id="PathCollection_9">
    <defs>
     <path id="ma456d2fbce" d="M 0 7.071068 
C 1.875269 7.071068 3.673985 6.326016 5 5 
C 6.326016 3.673985 7.071068 1.875269 7.071068 0 
C 7.071068 -1.875269 6.326016 -3.673985 5 -5 
C 3.673985 -6.326016 1.875269 -7.071068 0 -7.071068 
C -1.875269 -7.071068 -3.673985 -6.326016 -5 -5 
C -6.326016 -3.673985 -7.071068 -1.875269 -7.071068 0 
C -7.071068 1.875269 -6.326016 3.673985 -5 5 
C -3.673985 6.326016 -1.875269 7.071068 0 7.071068 
z
" style="stroke: #808080; stroke-width: 0.5"/>
    </defs>
    <g clip-path="url(#pdf015b00cf)">
     <use xlink:href="#ma456d2fbce" x="173.454545" y="49.217143" style="fill: #808080; stroke: #808080; stroke-width: 0.5"/>
    </g>
   </g>
   <g id="PathCollection_10">
    <path d="M 173.454545 62.04702 
C 176.702607 62.04702 179.818073 60.756552 182.114799 58.459825 
C 184.411526 56.163099 185.701994 53.047633 185.701994 49.799571 
C 185.701994 46.55151 184.411526 43.436044 182.114799 41.139317 
C 179.818073 38.842591 176.702607 37.552123 173.454545 37.552123 
C 170.206484 37.552123 167.091018 38.842591 164.794291 41.139317 
C 162.497565 43.436044 161.207097 46.55151 161.207097 49.799571 
C 161.207097 53.047633 162.497565 56.163099 164.794291 58.459825 
C 167.091018 60.756552 170.206484 62.04702 173.454545 62.04702 
L 173.454545 62.04702 
z
" clip-path="url(#pdf015b00cf)" style="fill: none; stroke: #800080; stroke-width: 3"/>
   </g>
   <g id="PathCollection_11">
    <path d="M 173.454545 67.12008 
C 178.047998 67.12008 182.453933 65.295082 185.701994 62.04702 
C 188.950056 58.798959 190.775054 54.393024 190.775054 49.799571 
C 190.775054 45.206119 188.950056 40.800184 185.701994 37.552123 
C 182.453933 34.304061 178.047998 32.479063 173.454545 32.479063 
C 168.861093 32.479063 164.455158 34.304061 161.207097 37.552123 
C 157.959035 40.800184 156.134037 45.206119 156.134037 49.799571 
C 156.134037 54.393024 157.959035 58.798959 161.207097 62.04702 
C 164.455158 65.295082 168.861093 67.12008 173.454545 67.12008 
L 173.454545 67.12008 
z
" clip-path="url(#pdf015b00cf)" style="fill: none; stroke: #ffa500; stroke-width: 3"/>
   </g>
   <g id="PathCollection_12">
    <g clip-path="url(#pdf015b00cf)">
     <use xlink:href="#ma456d2fbce" x="254.618182" y="49.217143" style="fill: #808080; stroke: #808080; stroke-width: 0.5"/>
    </g>
   </g>
   <g id="PathCollection_13">
    <path d="M 254.618182 62.04702 
C 257.866243 62.04702 260.98171 60.756552 263.278436 58.459825 
C 265.575162 56.163099 266.865631 53.047633 266.865631 49.799571 
C 266.865631 46.55151 265.575162 43.436044 263.278436 41.139317 
C 260.98171 38.842591 257.866243 37.552123 254.618182 37.552123 
C 251.37012 37.552123 248.254654 38.842591 245.957928 41.139317 
C 243.661202 43.436044 242.370733 46.55151 242.370733 49.799571 
C 242.370733 53.047633 243.661202 56.163099 245.957928 58.459825 
C 248.254654 60.756552 251.37012 62.04702 254.618182 62.04702 
L 254.618182 62.04702 
z
" clip-path="url(#pdf015b00cf)" style="fill: none; stroke: #800080; stroke-width: 3"/>
   </g>
   <g id="PathCollection_14">
    <path d="M 254.618182 67.12008 
C 259.211634 67.12008 263.617569 65.295082 266.865631 62.04702 
C 270.113692 58.798959 271.93869 54.393024 271.93869 49.799571 
C 271.93869 45.206119 270.113692 40.800184 266.865631 37.552123 
C 263.617569 34.304061 259.211634 32.479063 254.618182 32.479063 
C 250.024729 32.479063 245.618794 34.304061 242.370733 37.552123 
C 239.122672 40.800184 237.297674 45.206119 237.297674 49.799571 
C 237.297674 54.393024 239.122672 58.798959 242.370733 62.04702 
C 245.618794 65.295082 250.024729 67.12008 254.618182 67.12008 
L 254.618182 67.12008 
z
" clip-path="url(#pdf015b00cf)" style="fill: none; stroke: #ffa500; stroke-width: 3"/>
   </g>
   <g id="PathCollection_15">
    <path d="M 254.618182 72.160251 
C 260.548303 72.160251 266.236341 69.804189 270.42957 65.61096 
C 274.622799 61.417731 276.978862 55.729693 276.978862 49.799571 
C 276.978862 43.86945 274.622799 38.181412 270.42957 33.988183 
C 266.236341 29.794954 260.548303 27.438892 254.618182 27.438892 
C 248.68806 27.438892 243.000023 29.794954 238.806794 33.988183 
C 234.613564 38.181412 232.257502 43.86945 232.257502 49.799571 
C 232.257502 55.729693 234.613564 61.417731 238.806794 65.61096 
C 243.000023 69.804189 248.68806 72.160251 254.618182 72.160251 
L 254.618182 72.160251 
z
" clip-path="url(#pdf015b00cf)" style="fill: none; stroke: #ff0000; stroke-width: 3"/>
   </g>
   <g id="PathCollection_16">
    <g clip-path="url(#pdf015b00cf)">
     <use xlink:href="#ma456d2fbce" x="335.781818" y="49.217143" style="fill: #808080; stroke: #808080; stroke-width: 0.5"/>
    </g>
   </g>
   <g id="PathCollection_17">
    <path d="M 335.781818 67.12008 
C 340.375271 67.12008 344.781206 65.295082 348.029267 62.04702 
C 351.277328 58.798959 353.102326 54.393024 353.102326 49.799571 
C 353.102326 45.206119 351.277328 40.800184 348.029267 37.552123 
C 344.781206 34.304061 340.375271 32.479063 335.781818 32.479063 
C 331.188366 32.479063 326.782431 34.304061 323.534369 37.552123 
C 320.286308 40.800184 318.46131 45.206119 318.46131 49.799571 
C 318.46131 54.393024 320.286308 58.798959 323.534369 62.04702 
C 326.782431 65.295082 331.188366 67.12008 335.781818 67.12008 
L 335.781818 67.12008 
z
" clip-path="url(#pdf015b00cf)" style="fill: none; stroke: #ffa500; stroke-width: 3"/>
   </g>
   <g id="PathCollection_18">
    <path d="M 335.781818 72.160251 
C 341.71194 72.160251 347.399977 69.804189 351.593206 65.61096 
C 355.786436 61.417731 358.142498 55.729693 358.142498 49.799571 
C 358.142498 43.86945 355.786436 38.181412 351.593206 33.988183 
C 347.399977 29.794954 341.71194 27.438892 335.781818 27.438892 
C 329.851697 27.438892 324.163659 29.794954 319.97043 33.988183 
C 315.777201 38.181412 313.421138 43.86945 313.421138 49.799571 
C 313.421138 55.729693 315.777201 61.417731 319.97043 65.61096 
C 324.163659 69.804189 329.851697 72.160251 335.781818 72.160251 
L 335.781818 72.160251 
z
" clip-path="url(#pdf015b00cf)" style="fill: none; stroke: #ff0000; stroke-width: 3"/>
   </g>
   <g id="PathCollection_19">
    <g clip-path="url(#pdf015b00cf)">
     <use xlink:href="#ma456d2fbce" x="416.945455" y="49.217143" style="fill: #808080; stroke: #808080; stroke-width: 0.5"/>
    </g>
   </g>
   <g id="PathCollection_20">
    <path d="M 416.945455 72.160251 
C 422.875576 72.160251 428.563614 69.804189 432.756843 65.61096 
C 436.950072 61.417731 439.306134 55.729693 439.306134 49.799571 
C 439.306134 43.86945 436.950072 38.181412 432.756843 33.988183 
C 428.563614 29.794954 422.875576 27.438892 416.945455 27.438892 
C 411.015333 27.438892 405.327295 29.794954 401.134066 33.988183 
C 396.940837 38.181412 394.584775 43.86945 394.584775 49.799571 
C 394.584775 55.729693 396.940837 61.417731 401.134066 65.61096 
C 405.327295 69.804189 411.015333 72.160251 416.945455 72.160251 
L 416.945455 72.160251 
z
" clip-path="url(#pdf015b00cf)" style="fill: none; stroke: #ff0000; stroke-width: 3"/>
   </g>
   <g id="PathCollection_21">
    <g clip-path="url(#pdf015b00cf)">
     <use xlink:href="#ma456d2fbce" x="498.109091" y="49.217143" style="fill: #808080; stroke: #808080; stroke-width: 0.5"/>
    </g>
   </g>
   <g id="patch_2">
    <path d="M 108.031296 60.15911 
L 119.509568 68.395894 
L 116.668696 72.473102 
L 173.483241 154.013102 
L 173.42585 154.09547 
L 116.611304 72.55547 
L 113.770432 76.632678 
z
" clip-path="url(#pdf015b00cf)" style="fill: #800080; stroke: #800080; stroke-width: 2; stroke-linejoin: miter"/>
   </g>
   <g id="patch_3">
    <path d="M 173.454545 60.865714 
L 177.512727 78.338571 
L 173.495127 78.338571 
L 173.495127 154.054286 
L 173.413964 154.054286 
L 173.413964 78.338571 
L 169.396364 78.338571 
z
" clip-path="url(#pdf015b00cf)" style="fill: #800080; stroke: #800080; stroke-width: 2; stroke-linejoin: miter"/>
   </g>
   <g id="patch_4">
    <path d="M 238.877795 60.15911 
L 233.138659 76.632678 
L 230.297787 72.55547 
L 173.483241 154.09547 
L 173.42585 154.013102 
L 230.240395 72.473102 
L 227.399523 68.395894 
z
" clip-path="url(#pdf015b00cf)" style="fill: #800080; stroke: #800080; stroke-width: 2; stroke-linejoin: miter"/>
   </g>
   <g id="patch_5">
    <path d="M 189.194933 60.15911 
L 200.673204 68.395894 
L 197.832332 72.473102 
L 254.646877 154.013102 
L 254.589486 154.09547 
L 197.774941 72.55547 
L 194.934068 76.632678 
z
" clip-path="url(#pdf015b00cf)" style="fill: #ffa500; stroke: #ffa500; stroke-width: 2; stroke-linejoin: miter"/>
   </g>
   <g id="patch_6">
    <path d="M 254.618182 60.865714 
L 258.676364 78.338571 
L 254.658764 78.338571 
L 254.658764 154.054286 
L 254.5776 154.054286 
L 254.5776 78.338571 
L 250.56 78.338571 
z
" clip-path="url(#pdf015b00cf)" style="fill: #ffa500; stroke: #ffa500; stroke-width: 2; stroke-linejoin: miter"/>
   </g>
   <g id="patch_7">
    <path d="M 320.041431 60.15911 
L 314.302295 76.632678 
L 311.461423 72.55547 
L 254.646877 154.09547 
L 254.589486 154.013102 
L 311.404032 72.473102 
L 308.563159 68.395894 
z
" clip-path="url(#pdf015b00cf)" style="fill: #ffa500; stroke: #ffa500; stroke-width: 2; stroke-linejoin: miter"/>
   </g>
   <g id="patch_8">
    <path d="M 270.358569 60.15911 
L 281.836841 68.395894 
L 278.995968 72.473102 
L 335.810514 154.013102 
L 335.753123 154.09547 
L 278.938577 72.55547 
L 276.097705 76.632678 
z
" clip-path="url(#pdf015b00cf)" style="fill: #ff0000; stroke: #ff0000; stroke-width: 2; stroke-linejoin: miter"/>
   </g>
   <g id="patch_9">
    <path d="M 335.781818 60.865714 
L 339.84 78.338571 
L 335.8224 78.338571 
L 335.8224 154.054286 
L 335.741236 154.054286 
L 335.741236 78.338571 
L 331.723636 78.338571 
z
" clip-path="url(#pdf015b00cf)" style="fill: #ff0000; stroke: #ff0000; stroke-width: 2; stroke-linejoin: miter"/>
   </g>
   <g id="patch_10">
    <path d="M 401.205067 60.15911 
L 395.465932 76.632678 
L 392.625059 72.55547 
L 335.810514 154.09547 
L 335.753123 154.013102 
L 392.567668 72.473102 
L 389.726796 68.395894 
z
" clip-path="url(#pdf015b00cf)" style="fill: #ff0000; stroke: #ff0000; stroke-width: 2; stroke-linejoin: miter"/>
   </g>
   <g id="line2d_1">
    <path d="M 92.290909 165.702857 
L 92.290909 49.217143 
" clip-path="url(#pdf015b00cf)" style="fill: none; stroke: #008000; stroke-width: 5; stroke-linecap: square"/>
   </g>
   <g id="line2d_2">
    <path d="M 92.290909 165.702857 
L 498.109091 165.702857 
" clip-path="url(#pdf015b00cf)" style="fill: none; stroke: #008000; stroke-width: 5; stroke-linecap: square"/>
   </g>
  </g>
 </g>
 <defs>
  <clipPath id="pdf015b00cf">
   <rect x="72" y="25.92" width="446.4" height="163.08"/>
  </clipPath>
 </defs>
</svg>
