<?xml version="1.0" encoding="utf-8" standalone="no"?>
<!DOCTYPE svg PUBLIC "-//W3C//DTD SVG 1.1//EN"
  "http://www.w3.org/Graphics/SVG/1.1/DTD/svg11.dtd">
<svg xmlns:xlink="http://www.w3.org/1999/xlink" width="460.8pt" height="345.6pt" viewBox="0 0 460.8 345.6" xmlns="http://www.w3.org/2000/svg" version="1.1">
 <metadata>
  <rdf:RDF xmlns:dc="http://purl.org/dc/elements/1.1/" xmlns:cc="http://creativecommons.org/ns#" xmlns:rdf="http://www.w3.org/1999/02/22-rdf-syntax-ns#">
   <cc:Work>
    <dc:type rdf:resource="http://purl.org/dc/dcmitype/StillImage"/>
    <dc:date>2025-01-18T14:49:43.847759</dc:date>
    <dc:format>image/svg+xml</dc:format>
    <dc:creator>
     <cc:Agent>
      <dc:title>Matplotlib v3.9.1, https://matplotlib.org/</dc:title>
     </cc:Agent>
    </dc:creator>
   </cc:Work>
  </rdf:RDF>
 </metadata>
 <defs>
  <style type="text/css">*{stroke-linejoin: round; stroke-linecap: butt}</style>
 </defs>
 <g id="figure_1">
  <g id="patch_1">
   <path d="M 0 345.6 
L 460.8 345.6 
L 460.8 0 
L 0 0 
z
"/>
  </g>
  <g id="axes_1">
   <g id="patch_2">
    <path d="M 57.6 307.584 
L 414.72 307.584 
L 414.72 41.472 
L 57.6 41.472 
z
"/>
   </g>
   <g id="PathCollection_1">
    <path d="M 290.269091 59.949421 
C 291.455115 59.949421 292.592723 59.478209 293.431369 58.639563 
C 294.270014 57.800917 294.741227 56.66331 294.741227 55.477285 
C 294.741227 54.291261 294.270014 53.153653 293.431369 52.315008 
C 292.592723 51.476362 291.455115 51.005149 290.269091 51.005149 
C 289.083067 51.005149 287.945459 51.476362 287.106813 52.315008 
C 286.268167 53.153653 285.796955 54.291261 285.796955 55.477285 
C 285.796955 56.66331 286.268167 57.800917 287.106813 58.639563 
C 287.945459 59.478209 289.083067 59.949421 290.269091 59.949421 
L 290.269091 59.949421 
z
" clip-path="url(#peda74f30e9)" style="fill: none; stroke: #ff0000; stroke-width: 2"/>
   </g>
   <g id="matplotlib.axis_1">
    <g id="xtick_1">
     <g id="line2d_1">
      <path d="M 73.832727 307.584 
L 73.832727 41.472 
" clip-path="url(#peda74f30e9)" style="fill: none; stroke-dasharray: 1.85,0.8; stroke-dashoffset: 0; stroke: #ffffff; stroke-width: 0.5"/>
     </g>
     <g id="line2d_2">
      <defs>
       <path id="m8b9f66f9cd" d="M 0 0 
L 0 -3.5 
" style="stroke: #ffffff; stroke-width: 0.8"/>
      </defs>
      <g>
       <use xlink:href="#m8b9f66f9cd" x="73.832727" y="307.584" style="fill: #ffffff; stroke: #ffffff; stroke-width: 0.8"/>
      </g>
     </g>
     <g id="text_1">
      <!-- 0.0 -->
      <g style="fill: #ffffff" transform="translate(65.881165 318.682437) scale(0.1 -0.1)">
       <defs>
        <path id="DejaVuSans-30" d="M 2034 4250 
Q 1547 4250 1301 3770 
Q 1056 3291 1056 2328 
Q 1056 1369 1301 889 
Q 1547 409 2034 409 
Q 2525 409 2770 889 
Q 3016 1369 3016 2328 
Q 3016 3291 2770 3770 
Q 2525 4250 2034 4250 
z
M 2034 4750 
Q 2819 4750 3233 4129 
Q 3647 3509 3647 2328 
Q 3647 1150 3233 529 
Q 2819 -91 2034 -91 
Q 1250 -91 836 529 
Q 422 1150 422 2328 
Q 422 3509 836 4129 
Q 1250 4750 2034 4750 
z
" transform="scale(0.015625)"/>
        <path id="DejaVuSans-2e" d="M 684 794 
L 1344 794 
L 1344 0 
L 684 0 
L 684 794 
z
" transform="scale(0.015625)"/>
       </defs>
       <use xlink:href="#DejaVuSans-30"/>
       <use xlink:href="#DejaVuSans-2e" x="63.623047"/>
       <use xlink:href="#DejaVuSans-30" x="95.410156"/>
      </g>
     </g>
    </g>
    <g id="xtick_2">
     <g id="line2d_3">
      <path d="M 126.605995 307.584 
L 126.605995 41.472 
" clip-path="url(#peda74f30e9)" style="fill: none; stroke-dasharray: 1.85,0.8; stroke-dashoffset: 0; stroke: #ffffff; stroke-width: 0.5"/>
     </g>
     <g id="line2d_4">
      <g>
       <use xlink:href="#m8b9f66f9cd" x="126.605995" y="307.584" style="fill: #ffffff; stroke: #ffffff; stroke-width: 0.8"/>
      </g>
     </g>
     <g id="text_2">
      <!-- 0.2 -->
      <g style="fill: #ffffff" transform="translate(118.654432 318.682437) scale(0.1 -0.1)">
       <defs>
        <path id="DejaVuSans-32" d="M 1228 531 
L 3431 531 
L 3431 0 
L 469 0 
L 469 531 
Q 828 903 1448 1529 
Q 2069 2156 2228 2338 
Q 2531 2678 2651 2914 
Q 2772 3150 2772 3378 
Q 2772 3750 2511 3984 
Q 2250 4219 1831 4219 
Q 1534 4219 1204 4116 
Q 875 4013 500 3803 
L 500 4441 
Q 881 4594 1212 4672 
Q 1544 4750 1819 4750 
Q 2544 4750 2975 4387 
Q 3406 4025 3406 3419 
Q 3406 3131 3298 2873 
Q 3191 2616 2906 2266 
Q 2828 2175 2409 1742 
Q 1991 1309 1228 531 
z
" transform="scale(0.015625)"/>
       </defs>
       <use xlink:href="#DejaVuSans-30"/>
       <use xlink:href="#DejaVuSans-2e" x="63.623047"/>
       <use xlink:href="#DejaVuSans-32" x="95.410156"/>
      </g>
     </g>
    </g>
    <g id="xtick_3">
     <g id="line2d_5">
      <path d="M 179.379262 307.584 
L 179.379262 41.472 
" clip-path="url(#peda74f30e9)" style="fill: none; stroke-dasharray: 1.85,0.8; stroke-dashoffset: 0; stroke: #ffffff; stroke-width: 0.5"/>
     </g>
     <g id="line2d_6">
      <g>
       <use xlink:href="#m8b9f66f9cd" x="179.379262" y="307.584" style="fill: #ffffff; stroke: #ffffff; stroke-width: 0.8"/>
      </g>
     </g>
     <g id="text_3">
      <!-- 0.4 -->
      <g style="fill: #ffffff" transform="translate(171.4277 318.682437) scale(0.1 -0.1)">
       <defs>
        <path id="DejaVuSans-34" d="M 2419 4116 
L 825 1625 
L 2419 1625 
L 2419 4116 
z
M 2253 4666 
L 3047 4666 
L 3047 1625 
L 3713 1625 
L 3713 1100 
L 3047 1100 
L 3047 0 
L 2419 0 
L 2419 1100 
L 313 1100 
L 313 1709 
L 2253 4666 
z
" transform="scale(0.015625)"/>
       </defs>
       <use xlink:href="#DejaVuSans-30"/>
       <use xlink:href="#DejaVuSans-2e" x="63.623047"/>
       <use xlink:href="#DejaVuSans-34" x="95.410156"/>
      </g>
     </g>
    </g>
    <g id="xtick_4">
     <g id="line2d_7">
      <path d="M 232.15253 307.584 
L 232.15253 41.472 
" clip-path="url(#peda74f30e9)" style="fill: none; stroke-dasharray: 1.85,0.8; stroke-dashoffset: 0; stroke: #ffffff; stroke-width: 0.5"/>
     </g>
     <g id="line2d_8">
      <g>
       <use xlink:href="#m8b9f66f9cd" x="232.15253" y="307.584" style="fill: #ffffff; stroke: #ffffff; stroke-width: 0.8"/>
      </g>
     </g>
     <g id="text_4">
      <!-- 0.6 -->
      <g style="fill: #ffffff" transform="translate(224.200967 318.682437) scale(0.1 -0.1)">
       <defs>
        <path id="DejaVuSans-36" d="M 2113 2584 
Q 1688 2584 1439 2293 
Q 1191 2003 1191 1497 
Q 1191 994 1439 701 
Q 1688 409 2113 409 
Q 2538 409 2786 701 
Q 3034 994 3034 1497 
Q 3034 2003 2786 2293 
Q 2538 2584 2113 2584 
z
M 3366 4563 
L 3366 3988 
Q 3128 4100 2886 4159 
Q 2644 4219 2406 4219 
Q 1781 4219 1451 3797 
Q 1122 3375 1075 2522 
Q 1259 2794 1537 2939 
Q 1816 3084 2150 3084 
Q 2853 3084 3261 2657 
Q 3669 2231 3669 1497 
Q 3669 778 3244 343 
Q 2819 -91 2113 -91 
Q 1303 -91 875 529 
Q 447 1150 447 2328 
Q 447 3434 972 4092 
Q 1497 4750 2381 4750 
Q 2619 4750 2861 4703 
Q 3103 4656 3366 4563 
z
" transform="scale(0.015625)"/>
       </defs>
       <use xlink:href="#DejaVuSans-30"/>
       <use xlink:href="#DejaVuSans-2e" x="63.623047"/>
       <use xlink:href="#DejaVuSans-36" x="95.410156"/>
      </g>
     </g>
    </g>
    <g id="xtick_5">
     <g id="line2d_9">
      <path d="M 284.925798 307.584 
L 284.925798 41.472 
" clip-path="url(#peda74f30e9)" style="fill: none; stroke-dasharray: 1.85,0.8; stroke-dashoffset: 0; stroke: #ffffff; stroke-width: 0.5"/>
     </g>
     <g id="line2d_10">
      <g>
       <use xlink:href="#m8b9f66f9cd" x="284.925798" y="307.584" style="fill: #ffffff; stroke: #ffffff; stroke-width: 0.8"/>
      </g>
     </g>
     <g id="text_5">
      <!-- 0.8 -->
      <g style="fill: #ffffff" transform="translate(276.974235 318.682437) scale(0.1 -0.1)">
       <defs>
        <path id="DejaVuSans-38" d="M 2034 2216 
Q 1584 2216 1326 1975 
Q 1069 1734 1069 1313 
Q 1069 891 1326 650 
Q 1584 409 2034 409 
Q 2484 409 2743 651 
Q 3003 894 3003 1313 
Q 3003 1734 2745 1975 
Q 2488 2216 2034 2216 
z
M 1403 2484 
Q 997 2584 770 2862 
Q 544 3141 544 3541 
Q 544 4100 942 4425 
Q 1341 4750 2034 4750 
Q 2731 4750 3128 4425 
Q 3525 4100 3525 3541 
Q 3525 3141 3298 2862 
Q 3072 2584 2669 2484 
Q 3125 2378 3379 2068 
Q 3634 1759 3634 1313 
Q 3634 634 3220 271 
Q 2806 -91 2034 -91 
Q 1263 -91 848 271 
Q 434 634 434 1313 
Q 434 1759 690 2068 
Q 947 2378 1403 2484 
z
M 1172 3481 
Q 1172 3119 1398 2916 
Q 1625 2713 2034 2713 
Q 2441 2713 2670 2916 
Q 2900 3119 2900 3481 
Q 2900 3844 2670 4047 
Q 2441 4250 2034 4250 
Q 1625 4250 1398 4047 
Q 1172 3844 1172 3481 
z
" transform="scale(0.015625)"/>
       </defs>
       <use xlink:href="#DejaVuSans-30"/>
       <use xlink:href="#DejaVuSans-2e" x="63.623047"/>
       <use xlink:href="#DejaVuSans-38" x="95.410156"/>
      </g>
     </g>
    </g>
    <g id="xtick_6">
     <g id="line2d_11">
      <path d="M 337.699065 307.584 
L 337.699065 41.472 
" clip-path="url(#peda74f30e9)" style="fill: none; stroke-dasharray: 1.85,0.8; stroke-dashoffset: 0; stroke: #ffffff; stroke-width: 0.5"/>
     </g>
     <g id="line2d_12">
      <g>
       <use xlink:href="#m8b9f66f9cd" x="337.699065" y="307.584" style="fill: #ffffff; stroke: #ffffff; stroke-width: 0.8"/>
      </g>
     </g>
     <g id="text_6">
      <!-- 1.0 -->
      <g style="fill: #ffffff" transform="translate(329.747503 318.682437) scale(0.1 -0.1)">
       <defs>
        <path id="DejaVuSans-31" d="M 794 531 
L 1825 531 
L 1825 4091 
L 703 3866 
L 703 4441 
L 1819 4666 
L 2450 4666 
L 2450 531 
L 3481 531 
L 3481 0 
L 794 0 
L 794 531 
z
" transform="scale(0.015625)"/>
       </defs>
       <use xlink:href="#DejaVuSans-31"/>
       <use xlink:href="#DejaVuSans-2e" x="63.623047"/>
       <use xlink:href="#DejaVuSans-30" x="95.410156"/>
      </g>
     </g>
    </g>
    <g id="xtick_7">
     <g id="line2d_13">
      <path d="M 390.472333 307.584 
L 390.472333 41.472 
" clip-path="url(#peda74f30e9)" style="fill: none; stroke-dasharray: 1.85,0.8; stroke-dashoffset: 0; stroke: #ffffff; stroke-width: 0.5"/>
     </g>
     <g id="line2d_14">
      <g>
       <use xlink:href="#m8b9f66f9cd" x="390.472333" y="307.584" style="fill: #ffffff; stroke: #ffffff; stroke-width: 0.8"/>
      </g>
     </g>
     <g id="text_7">
      <!-- 1.2 -->
      <g style="fill: #ffffff" transform="translate(382.52077 318.682437) scale(0.1 -0.1)">
       <use xlink:href="#DejaVuSans-31"/>
       <use xlink:href="#DejaVuSans-2e" x="63.623047"/>
       <use xlink:href="#DejaVuSans-32" x="95.410156"/>
      </g>
     </g>
    </g>
   </g>
   <g id="matplotlib.axis_2">
    <g id="ytick_1">
     <g id="line2d_15">
      <path d="M 57.6 295.488 
L 414.72 295.488 
" clip-path="url(#peda74f30e9)" style="fill: none; stroke-dasharray: 1.85,0.8; stroke-dashoffset: 0; stroke: #ffffff; stroke-width: 0.5"/>
     </g>
     <g id="line2d_16">
      <defs>
       <path id="m01bcb18801" d="M 0 0 
L 3.5 0 
" style="stroke: #ffffff; stroke-width: 0.8"/>
      </defs>
      <g>
       <use xlink:href="#m01bcb18801" x="57.6" y="295.488" style="fill: #ffffff; stroke: #ffffff; stroke-width: 0.8"/>
      </g>
     </g>
     <g id="text_8">
      <!-- −1.00 -->
      <g style="fill: #ffffff" transform="translate(23.454687 299.287219) scale(0.1 -0.1)">
       <defs>
        <path id="DejaVuSans-2212" d="M 678 2272 
L 4684 2272 
L 4684 1741 
L 678 1741 
L 678 2272 
z
" transform="scale(0.015625)"/>
       </defs>
       <use xlink:href="#DejaVuSans-2212"/>
       <use xlink:href="#DejaVuSans-31" x="83.789062"/>
       <use xlink:href="#DejaVuSans-2e" x="147.412109"/>
       <use xlink:href="#DejaVuSans-30" x="179.199219"/>
       <use xlink:href="#DejaVuSans-30" x="242.822266"/>
      </g>
     </g>
    </g>
    <g id="ytick_2">
     <g id="line2d_17">
      <path d="M 57.6 265.486661 
L 414.72 265.486661 
" clip-path="url(#peda74f30e9)" style="fill: none; stroke-dasharray: 1.85,0.8; stroke-dashoffset: 0; stroke: #ffffff; stroke-width: 0.5"/>
     </g>
     <g id="line2d_18">
      <g>
       <use xlink:href="#m01bcb18801" x="57.6" y="265.486661" style="fill: #ffffff; stroke: #ffffff; stroke-width: 0.8"/>
      </g>
     </g>
     <g id="text_9">
      <!-- −0.75 -->
      <g style="fill: #ffffff" transform="translate(23.454687 269.285879) scale(0.1 -0.1)">
       <defs>
        <path id="DejaVuSans-37" d="M 525 4666 
L 3525 4666 
L 3525 4397 
L 1831 0 
L 1172 0 
L 2766 4134 
L 525 4134 
L 525 4666 
z
" transform="scale(0.015625)"/>
        <path id="DejaVuSans-35" d="M 691 4666 
L 3169 4666 
L 3169 4134 
L 1269 4134 
L 1269 2991 
Q 1406 3038 1543 3061 
Q 1681 3084 1819 3084 
Q 2600 3084 3056 2656 
Q 3513 2228 3513 1497 
Q 3513 744 3044 326 
Q 2575 -91 1722 -91 
Q 1428 -91 1123 -41 
Q 819 9 494 109 
L 494 744 
Q 775 591 1075 516 
Q 1375 441 1709 441 
Q 2250 441 2565 725 
Q 2881 1009 2881 1497 
Q 2881 1984 2565 2268 
Q 2250 2553 1709 2553 
Q 1456 2553 1204 2497 
Q 953 2441 691 2322 
L 691 4666 
z
" transform="scale(0.015625)"/>
       </defs>
       <use xlink:href="#DejaVuSans-2212"/>
       <use xlink:href="#DejaVuSans-30" x="83.789062"/>
       <use xlink:href="#DejaVuSans-2e" x="147.412109"/>
       <use xlink:href="#DejaVuSans-37" x="179.199219"/>
       <use xlink:href="#DejaVuSans-35" x="242.822266"/>
      </g>
     </g>
    </g>
    <g id="ytick_3">
     <g id="line2d_19">
      <path d="M 57.6 235.485321 
L 414.72 235.485321 
" clip-path="url(#peda74f30e9)" style="fill: none; stroke-dasharray: 1.85,0.8; stroke-dashoffset: 0; stroke: #ffffff; stroke-width: 0.5"/>
     </g>
     <g id="line2d_20">
      <g>
       <use xlink:href="#m01bcb18801" x="57.6" y="235.485321" style="fill: #ffffff; stroke: #ffffff; stroke-width: 0.8"/>
      </g>
     </g>
     <g id="text_10">
      <!-- −0.50 -->
      <g style="fill: #ffffff" transform="translate(23.454687 239.28454) scale(0.1 -0.1)">
       <use xlink:href="#DejaVuSans-2212"/>
       <use xlink:href="#DejaVuSans-30" x="83.789062"/>
       <use xlink:href="#DejaVuSans-2e" x="147.412109"/>
       <use xlink:href="#DejaVuSans-35" x="179.199219"/>
       <use xlink:href="#DejaVuSans-30" x="242.822266"/>
      </g>
     </g>
    </g>
    <g id="ytick_4">
     <g id="line2d_21">
      <path d="M 57.6 205.483982 
L 414.72 205.483982 
" clip-path="url(#peda74f30e9)" style="fill: none; stroke-dasharray: 1.85,0.8; stroke-dashoffset: 0; stroke: #ffffff; stroke-width: 0.5"/>
     </g>
     <g id="line2d_22">
      <g>
       <use xlink:href="#m01bcb18801" x="57.6" y="205.483982" style="fill: #ffffff; stroke: #ffffff; stroke-width: 0.8"/>
      </g>
     </g>
     <g id="text_11">
      <!-- −0.25 -->
      <g style="fill: #ffffff" transform="translate(23.454687 209.283201) scale(0.1 -0.1)">
       <use xlink:href="#DejaVuSans-2212"/>
       <use xlink:href="#DejaVuSans-30" x="83.789062"/>
       <use xlink:href="#DejaVuSans-2e" x="147.412109"/>
       <use xlink:href="#DejaVuSans-32" x="179.199219"/>
       <use xlink:href="#DejaVuSans-35" x="242.822266"/>
      </g>
     </g>
    </g>
    <g id="ytick_5">
     <g id="line2d_23">
      <path d="M 57.6 175.482643 
L 414.72 175.482643 
" clip-path="url(#peda74f30e9)" style="fill: none; stroke-dasharray: 1.85,0.8; stroke-dashoffset: 0; stroke: #ffffff; stroke-width: 0.5"/>
     </g>
     <g id="line2d_24">
      <g>
       <use xlink:href="#m01bcb18801" x="57.6" y="175.482643" style="fill: #ffffff; stroke: #ffffff; stroke-width: 0.8"/>
      </g>
     </g>
     <g id="text_12">
      <!-- 0.00 -->
      <g style="fill: #ffffff" transform="translate(31.834375 179.281861) scale(0.1 -0.1)">
       <use xlink:href="#DejaVuSans-30"/>
       <use xlink:href="#DejaVuSans-2e" x="63.623047"/>
       <use xlink:href="#DejaVuSans-30" x="95.410156"/>
       <use xlink:href="#DejaVuSans-30" x="159.033203"/>
      </g>
     </g>
    </g>
    <g id="ytick_6">
     <g id="line2d_25">
      <path d="M 57.6 145.481303 
L 414.72 145.481303 
" clip-path="url(#peda74f30e9)" style="fill: none; stroke-dasharray: 1.85,0.8; stroke-dashoffset: 0; stroke: #ffffff; stroke-width: 0.5"/>
     </g>
     <g id="line2d_26">
      <g>
       <use xlink:href="#m01bcb18801" x="57.6" y="145.481303" style="fill: #ffffff; stroke: #ffffff; stroke-width: 0.8"/>
      </g>
     </g>
     <g id="text_13">
      <!-- 0.25 -->
      <g style="fill: #ffffff" transform="translate(31.834375 149.280522) scale(0.1 -0.1)">
       <use xlink:href="#DejaVuSans-30"/>
       <use xlink:href="#DejaVuSans-2e" x="63.623047"/>
       <use xlink:href="#DejaVuSans-32" x="95.410156"/>
       <use xlink:href="#DejaVuSans-35" x="159.033203"/>
      </g>
     </g>
    </g>
    <g id="ytick_7">
     <g id="line2d_27">
      <path d="M 57.6 115.479964 
L 414.72 115.479964 
" clip-path="url(#peda74f30e9)" style="fill: none; stroke-dasharray: 1.85,0.8; stroke-dashoffset: 0; stroke: #ffffff; stroke-width: 0.5"/>
     </g>
     <g id="line2d_28">
      <g>
       <use xlink:href="#m01bcb18801" x="57.6" y="115.479964" style="fill: #ffffff; stroke: #ffffff; stroke-width: 0.8"/>
      </g>
     </g>
     <g id="text_14">
      <!-- 0.50 -->
      <g style="fill: #ffffff" transform="translate(31.834375 119.279183) scale(0.1 -0.1)">
       <use xlink:href="#DejaVuSans-30"/>
       <use xlink:href="#DejaVuSans-2e" x="63.623047"/>
       <use xlink:href="#DejaVuSans-35" x="95.410156"/>
       <use xlink:href="#DejaVuSans-30" x="159.033203"/>
      </g>
     </g>
    </g>
    <g id="ytick_8">
     <g id="line2d_29">
      <path d="M 57.6 85.478625 
L 414.72 85.478625 
" clip-path="url(#peda74f30e9)" style="fill: none; stroke-dasharray: 1.85,0.8; stroke-dashoffset: 0; stroke: #ffffff; stroke-width: 0.5"/>
     </g>
     <g id="line2d_30">
      <g>
       <use xlink:href="#m01bcb18801" x="57.6" y="85.478625" style="fill: #ffffff; stroke: #ffffff; stroke-width: 0.8"/>
      </g>
     </g>
     <g id="text_15">
      <!-- 0.75 -->
      <g style="fill: #ffffff" transform="translate(31.834375 89.277843) scale(0.1 -0.1)">
       <use xlink:href="#DejaVuSans-30"/>
       <use xlink:href="#DejaVuSans-2e" x="63.623047"/>
       <use xlink:href="#DejaVuSans-37" x="95.410156"/>
       <use xlink:href="#DejaVuSans-35" x="159.033203"/>
      </g>
     </g>
    </g>
    <g id="ytick_9">
     <g id="line2d_31">
      <path d="M 57.6 55.477285 
L 414.72 55.477285 
" clip-path="url(#peda74f30e9)" style="fill: none; stroke-dasharray: 1.85,0.8; stroke-dashoffset: 0; stroke: #ffffff; stroke-width: 0.5"/>
     </g>
     <g id="line2d_32">
      <g>
       <use xlink:href="#m01bcb18801" x="57.6" y="55.477285" style="fill: #ffffff; stroke: #ffffff; stroke-width: 0.8"/>
      </g>
     </g>
     <g id="text_16">
      <!-- 1.00 -->
      <g style="fill: #ffffff" transform="translate(31.834375 59.276504) scale(0.1 -0.1)">
       <use xlink:href="#DejaVuSans-31"/>
       <use xlink:href="#DejaVuSans-2e" x="63.623047"/>
       <use xlink:href="#DejaVuSans-30" x="95.410156"/>
       <use xlink:href="#DejaVuSans-30" x="159.033203"/>
      </g>
     </g>
    </g>
   </g>
   <g id="line2d_33">
    <path d="M 73.832727 175.482643 
L 74.030627 177.533414 
L 74.096594 171.619178 
L 74.16256 173.431751 
L 74.228527 174.59074 
L 74.294493 171.330265 
L 74.36046 172.452795 
L 74.426427 171.595129 
L 74.492393 167.963983 
L 74.690293 173.72544 
L 74.822226 174.486749 
L 74.954159 172.161374 
L 75.218026 175.463742 
L 75.283992 173.129638 
L 75.613825 181.421528 
L 75.745758 181.30367 
L 75.811725 182.395671 
L 75.877691 180.103713 
L 76.009625 183.909323 
L 76.075591 181.16504 
L 76.141558 181.241928 
L 76.471391 185.769442 
L 76.537357 183.97535 
L 76.603324 184.273719 
L 76.66929 183.868677 
L 76.999123 199.219222 
L 77.131056 191.340151 
L 77.197023 191.880415 
L 77.26299 191.951218 
L 77.328956 193.183913 
L 77.394923 197.761997 
L 77.460889 196.906239 
L 77.592823 195.928435 
L 77.658789 199.072576 
L 77.790722 194.163637 
L 77.856689 194.272841 
L 77.988622 198.589434 
L 78.120555 194.755383 
L 78.252488 187.798072 
L 78.516355 190.498793 
L 78.582321 187.998601 
L 78.648288 188.777916 
L 78.714255 188.573427 
L 79.044087 183.622666 
L 79.176021 187.940639 
L 79.57182 177.675297 
L 79.76972 182.391075 
L 79.835686 182.598456 
L 79.901653 180.94459 
L 79.96762 181.978257 
L 80.033586 185.466176 
L 80.099553 182.982365 
L 80.165519 185.33495 
L 80.429386 178.472864 
L 80.627285 182.565755 
L 80.693252 180.969828 
L 80.759219 181.031978 
L 80.825185 182.083969 
L 80.891152 181.20505 
L 80.957118 181.480462 
L 81.286951 186.31975 
L 81.418884 182.039663 
L 81.484851 184.058285 
L 81.550818 181.436144 
L 81.616784 182.720934 
L 82.012584 175.185923 
L 82.07855 175.266655 
L 82.144517 176.542494 
L 82.27645 174.950598 
L 82.342417 176.172235 
L 82.408383 175.593513 
L 82.47435 175.890066 
L 82.606283 180.612188 
L 82.67225 184.590257 
L 82.738216 183.463383 
L 83.002083 181.734322 
L 83.068049 181.37427 
L 83.134016 182.337757 
L 83.331915 179.038857 
L 83.463849 182.839235 
L 83.595782 179.075771 
L 83.793682 183.83684 
L 84.321414 174.773656 
L 84.453347 176.904202 
L 84.519314 176.969437 
L 84.585281 177.354762 
L 84.651247 179.893428 
L 84.78318 175.410983 
L 84.849147 175.58722 
L 84.915113 172.228229 
L 84.98108 172.373928 
L 85.047047 174.386266 
L 85.113013 173.928033 
L 85.17898 174.045674 
L 85.310913 178.194524 
L 85.37688 177.512077 
L 85.442846 174.539152 
L 85.508813 176.359797 
L 85.574779 176.131467 
L 85.640746 176.572852 
L 85.706712 174.936395 
L 85.772679 177.669008 
L 85.838646 175.281928 
L 85.904612 176.176827 
L 85.970579 176.749047 
L 86.036545 173.955886 
L 86.102512 175.561762 
L 86.168479 177.689493 
L 86.234445 176.709313 
L 86.366378 172.141045 
L 86.432345 172.682918 
L 86.564278 173.154983 
L 86.630245 177.265766 
L 86.696211 171.9382 
L 86.762178 172.299909 
L 86.828144 174.410828 
L 86.894111 172.441671 
L 86.960078 173.711352 
L 87.026044 173.431991 
L 87.092011 172.608946 
L 87.223944 175.035547 
L 87.289911 174.731018 
L 87.421844 170.993386 
L 87.48781 171.095487 
L 87.619743 170.355498 
L 87.751677 173.133946 
L 88.147476 181.922826 
L 88.213443 181.495283 
L 88.345376 184.670349 
L 88.411342 183.647843 
L 88.477309 180.640029 
L 88.543276 181.946311 
L 88.873109 189.839964 
L 89.005042 188.493863 
L 89.071008 188.526985 
L 89.268908 189.346862 
L 89.400841 187.106878 
L 89.598741 191.803251 
L 89.664708 191.257587 
L 89.730674 192.708932 
L 89.796641 189.834083 
L 89.862607 191.169743 
L 89.99454 186.2687 
L 90.060507 187.158648 
L 90.126474 188.41334 
L 90.19244 188.047084 
L 90.258407 187.663066 
L 90.720173 177.955701 
L 90.786139 178.328414 
L 90.852106 177.5671 
L 90.918073 179.743397 
L 90.984039 178.489977 
L 91.115972 180.879284 
L 91.379839 174.465582 
L 91.577738 178.651312 
L 91.643705 177.44461 
L 91.841605 174.935967 
L 91.973538 180.120838 
L 92.039505 179.619983 
L 92.105471 177.992291 
L 92.171438 178.712647 
L 92.237404 180.888776 
L 92.303371 180.375381 
L 92.567237 183.698389 
L 92.633204 183.399072 
L 92.69917 185.694403 
L 92.765137 185.050754 
L 92.831104 184.73586 
L 92.963037 188.168289 
L 93.029003 186.539324 
L 93.09497 186.615504 
L 93.160937 189.513549 
L 93.226903 185.609163 
L 93.424803 193.755978 
L 93.490769 193.955307 
L 93.556736 193.650854 
L 93.622703 193.980508 
L 93.754636 198.04641 
L 94.018502 191.529039 
L 94.084469 191.595642 
L 94.150435 191.492077 
L 94.216402 190.915812 
L 94.282368 188.754515 
L 94.348335 192.108785 
L 94.414302 191.878015 
L 94.480268 191.075899 
L 94.612201 188.689232 
L 94.678168 189.618194 
L 94.942034 182.608189 
L 95.008001 182.664351 
L 95.073967 181.660566 
L 95.139934 182.155949 
L 95.205901 182.017318 
L 95.271867 184.502881 
L 95.337834 184.122008 
L 95.4038 183.12702 
L 95.469767 183.764896 
L 95.535734 178.399937 
L 95.6017 183.099251 
L 95.7996 175.958029 
L 95.865566 176.301233 
L 96.063466 182.425769 
L 96.129433 181.769423 
L 96.459266 176.954196 
L 96.525232 177.202415 
L 96.723132 175.208298 
L 96.789099 175.542621 
L 96.921032 177.853756 
L 97.052965 176.113571 
L 97.118932 176.636564 
L 97.184898 178.885251 
L 97.316831 174.055023 
L 97.448765 174.275893 
L 97.514731 173.910668 
L 97.778597 180.859639 
L 97.910531 178.258931 
L 98.042464 181.73863 
L 98.10843 181.793676 
L 98.174397 183.674352 
L 98.240364 179.974527 
L 98.30633 180.759098 
L 98.372297 183.249605 
L 98.438263 180.759446 
L 98.50423 181.041747 
L 98.570196 180.803164 
L 98.834063 171.678353 
L 98.900029 171.917055 
L 98.965996 172.601554 
L 99.163896 180.028314 
L 99.229862 178.289184 
L 99.295829 178.724479 
L 99.361795 178.982563 
L 99.427762 178.959726 
L 99.493729 178.782106 
L 99.559695 180.191941 
L 99.625662 179.396509 
L 99.691628 179.658997 
L 99.823562 180.906813 
L 99.889528 180.495554 
L 99.955495 182.676604 
L 100.153394 179.740913 
L 100.351294 183.140688 
L 100.549194 174.683247 
L 100.615161 177.044896 
L 100.747094 172.056358 
L 100.81306 172.067758 
L 101.01096 178.051981 
L 101.340793 183.563719 
L 101.40676 182.889541 
L 101.538693 186.17284 
L 101.736593 182.062452 
L 101.802559 186.586714 
L 101.934492 183.220012 
L 102.066425 186.067307 
L 102.132392 185.621139 
L 102.198359 185.297617 
L 102.330292 188.137328 
L 102.462225 186.281397 
L 102.594158 180.738793 
L 102.660125 182.200111 
L 102.726091 182.172785 
L 102.858024 180.466081 
L 103.055924 173.597706 
L 103.121891 175.328426 
L 103.187857 172.603486 
L 103.253824 173.587338 
L 103.385757 175.686431 
L 103.451724 175.195656 
L 103.51769 176.425031 
L 103.583657 176.361491 
L 103.71559 175.529099 
L 103.91349 172.19242 
L 103.979456 171.496233 
L 104.177356 173.98344 
L 104.243323 175.02271 
L 104.375256 172.859374 
L 104.441222 177.12272 
L 104.507189 174.247139 
L 104.837022 179.180128 
L 104.902989 178.845781 
L 105.100888 172.314381 
L 105.232821 176.793809 
L 105.430721 170.363538 
L 105.628621 174.041066 
L 105.694588 173.860062 
L 105.760554 172.569141 
L 105.826521 173.009032 
L 106.090387 178.54968 
L 106.22232 178.420506 
L 106.354253 177.223548 
L 106.486187 178.702398 
L 106.552153 181.215203 
L 106.750053 173.073091 
L 106.881986 174.504299 
L 107.145852 184.117388 
L 107.211819 182.832215 
L 107.277786 183.737403 
L 107.343752 183.600453 
L 107.475685 180.892772 
L 107.607619 177.610914 
L 107.673585 178.205372 
L 107.805518 176.303762 
L 108.003418 180.041922 
L 108.069385 178.527527 
L 108.135351 180.319987 
L 108.201318 179.385469 
L 108.267284 176.839483 
L 108.333251 178.547411 
L 108.531151 174.78078 
L 108.597117 176.693185 
L 108.663084 175.674615 
L 108.92695 179.443083 
L 108.992917 179.431083 
L 109.12485 176.844079 
L 109.256783 178.60535 
L 109.32275 182.312436 
L 109.388716 181.508412 
L 109.520649 180.096453 
L 109.652583 183.010603 
L 109.718549 183.102635 
L 109.784516 184.610478 
L 109.916449 182.565251 
L 109.982416 185.905876 
L 110.048382 185.407134 
L 110.246282 183.945444 
L 110.312248 185.329442 
L 110.378215 180.83925 
L 110.444182 182.602128 
L 110.510148 182.715462 
L 110.576115 182.470699 
L 110.774015 184.131489 
L 110.839981 179.480129 
L 110.905948 181.733122 
L 111.037881 178.975939 
L 111.103847 181.412059 
L 111.169814 181.259088 
L 111.301747 178.159398 
L 111.499647 180.574818 
L 111.63158 182.570999 
L 111.763513 184.74516 
L 112.159313 177.225084 
L 112.489146 185.428159 
L 112.555112 181.266013 
L 112.753012 188.63523 
L 112.818979 188.727154 
L 112.884945 187.595023 
L 112.950912 188.802397 
L 113.016878 187.97604 
L 113.082845 187.637025 
L 113.148812 185.569321 
L 113.214778 185.796551 
L 113.280745 185.340087 
L 113.346711 185.979319 
L 113.544611 183.528342 
L 113.742511 188.330416 
L 113.808477 188.115247 
L 114.006377 179.324554 
L 114.072344 179.976603 
L 114.13831 178.426734 
L 114.270244 172.903403 
L 114.33621 174.790569 
L 114.402177 172.485053 
L 114.468143 173.589006 
L 114.53411 173.541832 
L 114.600076 177.191411 
L 114.666043 176.353183 
L 114.73201 176.08811 
L 114.863943 168.936506 
L 114.995876 172.627463 
L 115.193776 176.548549 
L 115.391675 169.87082 
L 115.457642 170.651815 
L 115.655542 165.394068 
L 115.721508 165.214732 
L 115.853442 166.11404 
L 115.985375 164.244297 
L 116.051341 169.02267 
L 116.117308 166.523679 
L 116.183275 168.486834 
L 116.381174 162.413939 
L 116.513107 161.596943 
L 116.579074 163.040607 
L 116.776974 159.801543 
L 116.84294 163.703781 
L 116.908907 161.179924 
L 117.106807 159.009507 
L 117.304706 160.783066 
L 117.370673 160.734104 
L 117.502606 164.553431 
L 117.700506 162.20057 
L 117.898406 168.852071 
L 117.964372 168.406299 
L 118.030339 163.362582 
L 118.096305 163.768188 
L 118.228239 162.537425 
L 118.294205 164.234168 
L 118.360172 163.274138 
L 118.558072 159.032308 
L 118.887904 164.391327 
L 119.019838 160.818588 
L 119.217737 169.795157 
L 119.283704 167.986688 
L 119.349671 169.021074 
L 119.415637 169.547982 
L 119.481604 169.319611 
L 119.54757 168.734105 
L 119.74547 170.246317 
L 119.94337 168.792944 
L 120.075303 171.410129 
L 120.14127 170.963925 
L 120.273203 173.838905 
L 120.669002 168.330743 
L 120.734969 173.047194 
L 120.800935 171.811463 
L 120.932869 173.332279 
L 121.064802 168.972976 
L 121.130768 171.541955 
L 121.592534 157.342873 
L 121.724468 157.661607 
L 121.790434 157.173665 
L 121.922367 161.99428 
L 122.120267 163.443825 
L 122.318167 158.741655 
L 122.4501 159.28948 
L 122.516067 161.049838 
L 122.582033 158.592249 
L 122.648 158.675772 
L 122.713966 160.329686 
L 122.911866 156.791328 
L 123.043799 159.459287 
L 123.109766 158.859261 
L 123.307666 151.599776 
L 123.505565 148.09418 
L 123.571532 148.664805 
L 123.835398 155.93569 
L 123.901365 155.48495 
L 123.967331 155.818205 
L 124.099265 150.454565 
L 124.165231 151.01403 
L 124.231198 150.403803 
L 124.297164 152.661104 
L 124.363131 151.200279 
L 124.626997 147.062854 
L 124.692964 148.728888 
L 124.95683 141.109148 
L 125.022797 141.642572 
L 125.35263 134.618418 
L 125.418596 136.317934 
L 125.550529 132.258633 
L 125.616496 134.067954 
L 125.682463 133.681777 
L 125.748429 132.451002 
L 125.880362 136.058483 
L 125.946329 135.742989 
L 126.012296 134.819067 
L 126.078262 137.177293 
L 126.144229 136.700991 
L 126.276162 131.560922 
L 126.342129 130.677682 
L 126.408095 130.882172 
L 126.605995 133.494928 
L 126.737928 132.019582 
L 126.803895 128.546987 
L 127.001794 134.518094 
L 127.265661 140.655408 
L 127.397594 142.517051 
L 127.46356 138.782484 
L 127.529527 141.988187 
L 127.595494 139.554839 
L 127.727427 141.60945 
L 127.793393 138.045411 
L 127.85936 138.139015 
L 127.925327 138.668239 
L 127.991293 142.630816 
L 128.05726 140.48836 
L 128.123226 140.468559 
L 128.255159 138.864568 
L 128.387093 139.075777 
L 128.584992 145.771476 
L 128.650959 144.990961 
L 128.716926 144.873116 
L 128.782892 142.595414 
L 128.848859 143.582218 
L 128.914825 144.117322 
L 128.980792 145.973685 
L 129.046758 145.199291 
L 129.112725 144.094281 
L 129.310625 152.277087 
L 129.442558 147.900251 
L 129.508525 149.049303 
L 129.574491 151.471131 
L 129.640458 150.635533 
L 129.706424 149.908301 
L 129.772391 151.575775 
L 129.838357 151.032151 
L 129.904324 151.622817 
L 130.036257 148.77713 
L 130.16819 154.921525 
L 130.234157 152.691825 
L 130.300124 154.531147 
L 130.36609 154.491065 
L 130.432057 153.657028 
L 131.025756 171.654028 
L 131.091723 170.420829 
L 131.355589 163.68038 
L 131.553489 167.332563 
L 131.817355 160.948434 
L 131.883322 164.811298 
L 131.949288 163.304499 
L 132.081221 160.901272 
L 132.411054 166.501346 
L 132.477021 164.48462 
L 132.542987 166.945377 
L 132.608954 166.096988 
L 132.674921 162.165648 
L 132.740887 165.879598 
L 132.806854 164.065693 
L 132.87282 164.334817 
L 133.07072 161.395574 
L 133.136687 161.436016 
L 133.202653 160.504774 
L 133.400553 165.028544 
L 133.598453 159.546051 
L 133.664419 158.376959 
L 133.730386 159.07011 
L 133.796353 161.184004 
L 133.862319 159.918068 
L 134.126185 158.450642 
L 134.324085 159.30664 
L 134.390052 158.202471 
L 134.587952 163.269937 
L 134.719885 165.132637 
L 134.785851 164.535274 
L 134.851818 165.800286 
L 134.917784 164.020067 
L 135.115684 170.120815 
L 135.181651 168.371701 
L 135.247617 169.465478 
L 135.313584 168.260288 
L 135.379551 170.98279 
L 135.445517 170.62317 
L 135.511484 171.464755 
L 135.57745 171.358515 
L 135.643417 169.15236 
L 135.709384 170.358594 
L 135.77535 169.499764 
L 135.841317 170.036535 
L 135.97325 171.037944 
L 136.303083 162.372777 
L 136.369049 162.743714 
L 136.764849 167.93451 
L 136.896782 174.284821 
L 137.028715 171.172206 
L 137.094682 172.615787 
L 137.292582 169.68138 
L 137.358548 169.078701 
L 137.424515 166.478785 
L 137.490481 168.476862 
L 137.556448 167.658677 
L 138.018214 160.783186 
L 138.216114 153.709951 
L 138.28208 156.739246 
L 138.348047 156.696284 
L 138.414013 154.928365 
L 138.545947 157.402515 
L 138.611913 155.48879 
L 138.67788 158.126988 
L 138.743846 158.032184 
L 138.809813 156.859371 
L 138.87578 159.845825 
L 139.007713 154.131529 
L 139.073679 154.279616 
L 139.139646 154.550708 
L 139.205612 152.954637 
L 139.271579 155.217578 
L 139.337546 154.870162 
L 139.403512 152.737547 
L 139.469479 154.710795 
L 139.535445 153.040441 
L 139.601412 153.286332 
L 139.733345 153.159726 
L 139.799312 153.386056 
L 139.865278 152.864873 
L 139.997211 156.1631 
L 140.129145 155.212418 
L 140.195111 155.976252 
L 140.393011 164.034996 
L 140.524944 160.696543 
L 140.590911 163.175013 
L 140.656877 162.42126 
L 140.722844 160.525895 
L 140.98671 166.852481 
L 141.052677 167.102549 
L 141.18461 168.886704 
L 141.38251 164.949328 
L 141.448476 163.167093 
L 141.514443 165.017791 
L 141.58041 164.890646 
L 141.712343 163.779816 
L 141.910242 157.681768 
L 142.042176 162.316615 
L 142.108142 160.42653 
L 142.240075 164.955521 
L 142.306042 166.448987 
L 142.635875 160.464452 
L 142.767808 165.692186 
L 142.833775 163.612781 
L 142.899741 163.958744 
L 143.031674 165.149701 
L 143.163608 162.317815 
L 143.229574 164.249733 
L 143.295541 163.349261 
L 143.427474 161.579542 
L 143.625374 167.340471 
L 143.823273 172.675837 
L 143.88924 171.325561 
L 144.021173 169.024986 
L 144.153106 162.748754 
L 144.219073 163.952216 
L 144.416973 160.880751 
L 144.482939 161.608583 
L 144.614872 158.483764 
L 144.746806 154.59403 
L 144.812772 156.863091 
L 144.944705 155.072491 
L 145.010672 154.81472 
L 145.076638 152.861033 
L 145.142605 155.299182 
L 145.208572 153.990763 
L 145.274538 153.371296 
L 145.472438 157.29019 
L 145.670338 151.763944 
L 145.736304 153.92248 
L 145.802271 152.494896 
L 145.934204 155.005648 
L 146.000171 154.342379 
L 146.132104 151.084953 
L 146.264037 156.865491 
L 146.330004 155.300502 
L 146.39597 155.028689 
L 146.725803 170.441446 
L 146.79177 170.240857 
L 146.857736 171.409589 
L 146.923703 170.291031 
L 146.989669 166.982999 
L 147.055636 168.130226 
L 147.187569 169.773856 
L 147.253536 168.16048 
L 147.319502 168.954087 
L 147.451436 171.505749 
L 147.517402 169.239148 
L 147.583369 170.215955 
L 147.715302 167.782139 
L 147.781268 168.131486 
L 147.847235 171.093363 
L 147.913202 166.077511 
L 147.979168 166.812172 
L 148.177068 171.948989 
L 148.243035 170.593324 
L 148.506901 181.213654 
L 148.572867 180.87986 
L 148.704801 175.484569 
L 148.9027 178.036777 
L 149.034634 173.817712 
L 149.1006 174.40325 
L 149.430433 169.989253 
L 149.628333 172.792495 
L 149.694299 172.044885 
L 149.760266 173.272372 
L 149.892199 169.91065 
L 149.958166 171.35405 
L 150.024132 168.408783 
L 150.287999 173.948986 
L 150.419932 172.435623 
L 150.485898 174.449965 
L 150.551865 173.376513 
L 150.617832 172.716831 
L 150.749765 173.915733 
L 151.013631 166.797351 
L 151.079598 167.445596 
L 151.211531 166.399773 
L 151.343464 168.451673 
L 151.541364 165.340714 
L 151.60733 165.6516 
L 151.80523 161.255167 
L 152.00313 158.161669 
L 152.135063 155.846526 
L 152.266996 145.010042 
L 152.332963 146.032488 
L 152.398929 144.988801 
L 152.662796 148.868094 
L 152.728762 148.587642 
L 152.794729 149.950543 
L 152.860695 147.87145 
L 152.992629 151.717262 
L 153.058595 149.948863 
L 153.124562 152.093238 
L 153.190528 150.380642 
L 153.454395 157.979141 
L 153.586328 151.993514 
L 153.652294 155.26246 
L 153.718261 153.985363 
L 153.916161 156.409231 
L 154.048094 156.15362 
L 154.114061 155.49215 
L 154.377927 147.313305 
L 154.443893 147.43175 
L 154.641793 145.033563 
L 154.90566 149.060823 
L 154.971626 147.263743 
L 155.037593 147.6444 
L 155.103559 152.12132 
L 155.169526 151.393727 
L 155.301459 147.761645 
L 155.367426 148.526559 
L 155.433392 148.406674 
L 155.763225 138.268021 
L 155.829192 137.973168 
L 156.027092 141.544288 
L 156.093058 143.017353 
L 156.290958 138.961052 
L 156.356924 136.638829 
L 156.422891 138.058612 
L 156.488858 136.869359 
L 156.554824 137.360661 
L 156.686757 140.797614 
L 156.752724 138.845367 
L 156.950624 142.973311 
L 157.082557 139.644603 
L 157.148523 141.349519 
L 157.21449 141.500126 
L 157.41239 144.568303 
L 157.544323 138.829646 
L 157.676256 142.091752 
L 157.742223 140.731611 
L 158.006089 131.410915 
L 158.072056 130.923933 
L 158.203989 132.327276 
L 158.335922 131.667247 
L 158.401889 128.396261 
L 158.467855 129.884687 
L 158.929621 125.232079 
L 158.995588 126.422892 
L 159.061554 129.623795 
L 159.259454 125.317403 
L 159.325421 125.952351 
L 159.391387 124.81098 
L 159.589287 118.828353 
L 159.655254 117.529535 
L 159.72122 118.257968 
L 159.853153 117.075675 
L 159.91912 117.161959 
L 160.11702 111.722956 
L 160.710719 127.784593 
L 160.908619 122.236266 
L 160.974585 123.112065 
L 161.238452 114.900938 
L 161.304418 113.907894 
L 161.436351 118.96984 
L 161.502318 115.598649 
L 161.568285 116.442647 
L 161.634251 115.680133 
L 161.700218 116.267319 
L 161.766184 113.391391 
L 161.832151 115.361879 
L 161.898118 114.152585 
L 161.964084 112.898409 
L 162.030051 107.879065 
L 162.096017 109.082238 
L 162.42585 114.132304 
L 162.62375 108.983114 
L 162.689717 109.013715 
L 162.755683 108.709982 
L 162.887616 105.295109 
L 162.953583 105.234747 
L 163.019549 99.27444 
L 163.085516 100.60326 
L 163.217449 97.816615 
L 163.283416 98.831501 
L 163.547282 95.160777 
L 163.613249 99.056991 
L 163.679215 95.090814 
L 163.745182 96.113739 
L 163.877115 96.833171 
L 163.943082 96.592081 
L 164.009048 97.47832 
L 164.075015 95.285942 
L 164.140981 95.776764 
L 164.206948 96.011855 
L 164.272915 95.820446 
L 164.602747 89.307396 
L 164.668714 89.112267 
L 164.800647 92.448536 
L 164.93258 87.696804 
L 165.13048 94.615592 
L 165.196447 94.689156 
L 165.460313 99.662898 
L 165.52628 99.49885 
L 165.592246 99.966271 
L 165.658213 99.800904 
L 166.251912 115.541047 
L 166.317879 115.224953 
L 166.383845 115.331757 
L 166.713678 127.073922 
L 166.779645 127.593185 
L 166.911578 130.416671 
L 166.977545 127.448698 
L 167.043511 128.014283 
L 167.109478 128.591029 
L 167.175444 130.544116 
L 167.241411 130.448712 
L 167.307377 130.918293 
L 167.373344 132.252513 
L 167.439311 131.816413 
L 167.505277 127.463579 
L 167.571244 128.491785 
L 167.63721 130.888652 
L 167.769144 127.786153 
L 167.83511 127.839916 
L 167.901077 128.736356 
L 167.967043 128.275535 
L 168.03301 128.003243 
L 168.098976 129.520111 
L 168.164943 128.654392 
L 168.23091 128.249494 
L 168.362843 124.79466 
L 168.428809 126.37153 
L 168.494776 125.69818 
L 168.560743 125.960152 
L 168.626709 124.194993 
L 168.692676 124.862583 
L 168.758642 124.043786 
L 168.890575 126.444013 
L 168.956542 124.35172 
L 169.022509 124.552729 
L 169.088475 126.389411 
L 169.286375 121.66348 
L 169.352342 118.049279 
L 169.418308 118.924958 
L 169.484275 119.583307 
L 169.616208 125.340804 
L 169.682175 122.55284 
L 169.748141 122.652804 
L 169.814108 122.710647 
L 169.946041 119.42286 
L 170.143941 122.127181 
L 170.275874 118.863995 
L 170.34184 119.575747 
L 170.53974 125.549733 
L 170.605707 125.648498 
L 170.671673 125.148196 
L 170.73764 127.062401 
L 170.803606 125.866548 
L 171.133439 118.767871 
L 171.265373 121.099575 
L 171.331339 118.422615 
L 171.397306 118.921958 
L 171.463272 119.261213 
L 171.529239 118.370053 
L 172.122938 132.18963 
L 172.386804 124.470285 
L 172.452771 124.279717 
L 172.518738 122.038857 
L 172.584704 123.584286 
L 172.650671 121.925332 
L 172.716637 124.992669 
L 172.782604 124.552369 
L 172.848571 124.179752 
L 173.178403 117.41877 
L 173.24437 118.506019 
L 173.310337 116.778542 
L 173.376303 117.332007 
L 173.574203 122.728408 
L 173.706136 119.850799 
L 173.838069 125.70706 
L 173.904036 122.741608 
L 173.970002 124.548049 
L 174.035969 124.438844 
L 174.761602 105.969779 
L 175.025468 97.179267 
L 175.091434 96.424433 
L 175.223368 92.0872 
L 175.421267 96.001774 
L 175.817067 86.585194 
L 176.1469 90.129792 
L 176.212866 95.109895 
L 176.278833 93.810597 
L 176.476733 88.678687 
L 176.542699 88.426436 
L 176.608666 85.665113 
L 176.674632 89.035103 
L 176.740599 87.228423 
L 176.806566 87.919414 
L 176.872532 86.72164 
L 176.938499 87.60488 
L 177.070432 90.917147 
L 177.136399 90.810943 
L 177.202365 89.607049 
L 177.268332 90.606333 
L 177.400265 87.147659 
L 177.466231 90.170114 
L 177.532198 90.139873 
L 177.598165 90.277879 
L 177.664131 88.866496 
L 177.796064 91.784546 
L 177.862031 89.644131 
L 177.927998 90.330321 
L 177.993964 90.764261 
L 178.059931 87.573558 
L 178.125897 88.772772 
L 178.25783 91.470732 
L 178.323797 91.173599 
L 178.521697 97.69793 
L 178.65363 95.847807 
L 179.181363 105.778371 
L 179.247329 105.883496 
L 179.445229 108.45905 
L 179.511196 108.109835 
L 179.577162 111.643753 
L 179.643129 109.609302 
L 179.841029 102.417141 
L 179.906995 103.150734 
L 180.038928 101.596904 
L 180.170861 104.131057 
L 180.302795 98.888863 
L 180.434728 99.659418 
L 180.500694 104.42363 
L 180.566661 104.272064 
L 180.632628 104.931013 
L 180.764561 101.337213 
L 180.830527 102.021003 
L 180.896494 99.287161 
L 181.028427 102.080646 
L 181.094394 101.864996 
L 181.16036 100.428292 
L 181.35826 102.641671 
L 181.424227 100.662182 
L 181.490193 100.704184 
L 181.820026 114.351194 
L 181.885993 114.305351 
L 181.951959 108.322844 
L 182.017926 109.192043 
L 182.083892 108.101435 
L 182.149859 109.450175 
L 182.281792 100.315007 
L 182.347759 101.750271 
L 182.677592 113.220143 
L 182.743558 112.612556 
L 182.809525 112.814285 
L 183.073391 107.7755 
L 183.139358 107.614333 
L 183.337257 113.030295 
L 183.535157 119.566386 
L 183.733057 123.206029 
L 183.799024 120.76512 
L 183.86499 121.122616 
L 183.996923 122.5532 
L 184.06289 121.145897 
L 184.128857 121.568076 
L 184.194823 121.034532 
L 184.326756 123.638768 
L 184.392723 121.305264 
L 184.458689 122.834972 
L 184.722556 125.03455 
L 184.788522 125.02627 
L 184.920456 123.883219 
L 185.052389 126.81927 
L 185.118355 126.840511 
L 185.184322 127.04956 
L 185.250288 125.575535 
L 185.316255 126.571579 
L 185.382222 128.432742 
L 185.448188 127.681389 
L 185.514155 126.384131 
L 185.580121 127.559343 
L 185.646088 126.490695 
L 185.843988 122.053497 
L 185.909954 122.265787 
L 185.975921 122.126341 
L 186.107854 123.90698 
L 186.173821 123.853938 
L 186.305754 118.182845 
L 186.56962 124.707896 
L 186.76752 121.393108 
L 186.833486 122.066698 
L 186.899453 121.253662 
L 186.96542 122.655444 
L 187.097353 114.775772 
L 187.163319 115.940905 
L 187.229286 118.710748 
L 187.295253 117.85247 
L 187.493152 113.476594 
L 187.559119 114.124143 
L 187.625085 113.654922 
L 187.888952 108.45185 
L 188.086852 112.856407 
L 188.152818 113.538757 
L 188.350718 117.786827 
L 188.548618 110.328134 
L 188.614584 111.997168 
L 188.680551 112.801444 
L 188.746517 112.670278 
L 188.812484 112.595035 
L 188.944417 109.917716 
L 189.142317 112.47191 
L 189.208284 111.936206 
L 189.27425 112.845246 
L 189.340217 108.171758 
L 189.406183 109.273887 
L 189.47215 110.063402 
L 189.538116 112.585675 
L 189.604083 112.274501 
L 189.67005 110.622267 
L 189.736016 110.770114 
L 189.801983 111.658153 
L 189.999883 107.966308 
L 190.065849 109.780069 
L 190.131816 107.735058 
L 190.329715 115.755016 
L 190.395682 115.101347 
L 190.461649 115.462203 
L 190.527615 115.872501 
L 190.659548 112.223979 
L 190.725515 113.683844 
L 190.857448 115.313156 
L 191.055348 109.084998 
L 191.121314 110.635348 
L 191.187281 106.057743 
L 191.253248 106.462041 
L 191.319214 105.414755 
L 191.451147 101.174365 
L 191.649047 104.689562 
L 191.715014 101.628586 
L 191.78098 103.031928 
L 191.846947 103.700598 
L 191.912913 102.932804 
L 192.044847 97.096343 
L 192.17678 103.130453 
L 192.308713 97.582485 
L 192.37468 97.863777 
L 192.506613 99.108353 
L 192.704512 92.020477 
L 192.836446 95.830527 
L 192.902412 94.977649 
L 193.100312 91.032953 
L 193.166279 94.32758 
L 193.232245 91.946313 
L 193.298212 93.481902 
L 193.364178 92.971159 
L 193.562078 99.508931 
L 193.628045 98.247435 
L 193.694011 96.80341 
L 193.825944 100.003473 
L 193.891911 104.014412 
L 193.957878 101.784833 
L 194.155777 103.038288 
L 194.287711 95.697561 
L 194.353677 99.49441 
L 194.419644 99.453008 
L 194.551577 96.886454 
L 194.617543 100.281045 
L 194.68351 98.998668 
L 194.749477 98.717856 
L 194.815443 101.28177 
L 195.013343 95.91441 
L 195.07931 97.24719 
L 195.211243 91.806627 
L 195.673009 101.814234 
L 195.738975 101.253209 
L 195.870909 98.655813 
L 195.936875 98.899184 
L 196.002842 98.178432 
L 196.068808 98.473045 
L 196.200741 99.586934 
L 196.266708 99.159715 
L 196.332675 100.525496 
L 196.398641 98.773178 
L 196.662508 106.591167 
L 196.926374 96.824171 
L 196.99234 97.448919 
L 197.058307 97.24707 
L 197.124274 95.580316 
L 197.19024 95.623157 
L 197.322173 97.979343 
L 197.454107 103.205576 
L 197.652006 95.514313 
L 197.783939 90.441566 
L 197.849906 90.826183 
L 197.981839 94.403183 
L 198.047806 93.287853 
L 198.311672 87.664762 
L 198.377639 88.489919 
L 198.443605 87.859891 
L 198.509572 91.136037 
L 198.575538 89.273554 
L 198.707472 87.281945 
L 198.839405 92.204085 
L 198.905371 91.095835 
L 199.169238 96.337789 
L 199.301171 91.754545 
L 199.499071 95.596876 
L 200.026803 102.40262 
L 200.09277 101.903638 
L 200.158737 101.215287 
L 200.356636 107.384763 
L 200.422603 105.97614 
L 200.488569 106.863339 
L 200.554536 107.837423 
L 200.686469 114.193747 
L 200.752436 111.617832 
L 200.818402 112.341104 
L 201.016302 116.821024 
L 201.148235 113.093417 
L 201.214202 115.134589 
L 201.280168 111.941366 
L 201.346135 112.511151 
L 201.412102 112.626837 
L 201.544035 115.450443 
L 201.610001 114.910779 
L 201.741935 118.784311 
L 201.807901 117.745545 
L 201.939834 118.808433 
L 202.005801 116.447327 
L 202.071767 117.202761 
L 202.137734 116.796303 
L 202.203701 117.676302 
L 202.467567 112.03833 
L 202.533534 111.750557 
L 202.5995 110.669309 
L 202.665467 111.238495 
L 202.731433 111.80552 
L 203.061266 118.277649 
L 203.193199 112.628997 
L 203.259166 114.301871 
L 203.325133 114.299591 
L 203.391099 113.116098 
L 203.457066 113.918694 
L 203.523032 113.750087 
L 203.588999 114.828335 
L 203.984798 108.578096 
L 204.314631 115.324437 
L 204.380598 115.17395 
L 204.446565 115.116588 
L 204.512531 115.752496 
L 204.644464 113.267305 
L 204.710431 115.740256 
L 204.776397 110.739152 
L 204.842364 112.372185 
L 205.172197 109.036876 
L 205.238164 109.517738 
L 205.567996 117.544416 
L 205.633963 118.870595 
L 205.69993 118.860635 
L 205.765896 117.607659 
L 205.897829 120.843243 
L 206.029763 116.335482 
L 206.095729 117.222802 
L 206.491529 126.681144 
L 206.623462 131.692448 
L 206.821362 126.046556 
L 206.953295 129.541592 
L 207.019261 127.596065 
L 207.085228 128.509186 
L 207.151194 129.237498 
L 207.217161 129.121693 
L 207.612961 121.983654 
L 207.81086 125.283322 
L 207.876827 125.615376 
L 207.942793 123.950662 
L 208.00876 124.8045 
L 208.074727 124.193073 
L 208.20666 125.745342 
L 208.272626 124.491286 
L 208.338593 125.051591 
L 208.40456 126.5945 
L 208.536493 124.57049 
L 208.602459 125.510372 
L 208.734393 122.348711 
L 208.932292 127.134764 
L 209.262125 121.360226 
L 209.394058 124.991349 
L 209.460025 123.89954 
L 209.921791 133.610133 
L 210.251624 126.507856 
L 210.317591 132.18927 
L 210.383557 129.220577 
L 210.51549 134.550015 
L 210.581457 131.880736 
L 210.647423 133.701217 
L 210.91129 126.936635 
L 210.977256 127.9316 
L 211.043223 127.795274 
L 211.175156 124.363241 
L 211.241123 124.827901 
L 211.307089 124.598571 
L 211.373056 126.467534 
L 211.439022 125.966032 
L 211.504989 125.426128 
L 211.570956 126.096358 
L 211.702889 118.335011 
L 211.768855 122.415434 
L 211.834822 121.538194 
L 211.900789 121.44159 
L 211.966755 120.945968 
L 212.098688 116.05287 
L 212.164655 115.39788 
L 212.230621 112.889408 
L 212.296588 116.776742 
L 212.362555 115.969946 
L 212.428521 116.807463 
L 212.494488 115.917383 
L 212.692388 122.34691 
L 212.758354 123.541444 
L 212.824321 123.206629 
L 213.02222 120.725278 
L 213.088187 119.830878 
L 213.154154 121.88429 
L 213.22012 121.175418 
L 213.286087 121.040412 
L 213.483987 124.363481 
L 213.61592 123.692891 
L 213.747853 128.326657 
L 213.81382 126.892713 
L 213.945753 129.011408 
L 214.011719 128.549747 
L 214.077686 128.16573 
L 214.143652 129.812564 
L 214.209619 126.107398 
L 214.341552 130.281785 
L 214.407519 130.081736 
L 214.539452 127.03936 
L 214.605419 130.054735 
L 214.737352 126.084477 
L 214.803318 128.538347 
L 214.935251 125.316203 
L 215.001218 124.993509 
L 215.067185 126.898834 
L 215.133151 122.534359 
L 215.199118 123.118425 
L 215.265084 123.623767 
L 215.462984 128.236053 
L 215.528951 127.532342 
L 215.660884 129.95033 
L 215.858784 124.831141 
L 215.990717 127.164166 
L 216.056683 125.138595 
L 216.32055 137.11417 
L 216.386516 138.23094 
L 216.452483 137.453545 
L 216.584416 134.476092 
L 216.650383 135.001115 
L 216.914249 138.872728 
L 217.046182 138.00917 
L 217.244082 133.54353 
L 217.376015 135.801671 
L 217.507948 133.295239 
L 217.573915 133.809582 
L 217.639881 130.063135 
L 217.705848 132.234032 
L 217.771815 134.539095 
L 217.837781 134.064834 
L 217.903748 132.918902 
L 218.101648 127.672388 
L 218.299547 124.952827 
L 218.365514 125.042111 
L 218.497447 126.766348 
L 218.563414 125.386286 
L 218.761313 130.84905 
L 218.82728 130.525156 
L 218.959213 134.65406 
L 219.157113 129.577953 
L 219.420979 135.951558 
L 219.552912 130.516035 
L 219.618879 130.997617 
L 219.816779 135.421014 
L 219.948712 135.436375 
L 220.014678 136.67099 
L 220.080645 134.571256 
L 220.146612 136.954683 
L 220.410478 128.292216 
L 220.608378 122.971658 
L 220.806277 132.498404 
L 220.872244 131.911937 
L 220.938211 130.214102 
L 221.268044 139.734487 
L 221.33401 134.620338 
L 221.399977 134.65478 
L 221.597876 131.277589 
L 221.795776 139.828211 
L 221.861743 138.845487 
L 222.257542 152.398172 
L 222.455442 146.97261 
L 222.521409 147.013652 
L 222.587375 148.305989 
L 222.719308 144.306091 
L 222.785275 148.99854 
L 222.851242 146.406185 
L 223.049141 141.282436 
L 223.181075 135.349491 
L 223.247041 136.45114 
L 223.313008 134.223241 
L 223.378974 136.621308 
L 223.510907 133.868865 
L 223.576874 133.256598 
L 223.642841 133.548811 
L 223.84074 127.4859 
L 223.906707 129.883967 
L 223.972674 129.442587 
L 224.03864 127.408976 
L 224.104607 128.591389 
L 224.368473 136.375537 
L 224.698306 131.624525 
L 224.764273 132.315516 
L 224.896206 138.209219 
L 225.028139 136.598627 
L 225.094105 136.641709 
L 225.160072 136.328255 
L 225.226039 137.328019 
L 225.489905 131.921538 
L 225.555872 130.533436 
L 225.621838 133.902106 
L 225.687805 133.846184 
L 225.753771 133.282639 
L 225.885704 135.640744 
L 225.951671 133.007346 
L 226.149571 136.294413 
L 226.479404 127.853716 
L 226.54537 127.844476 
L 226.809237 136.117285 
L 226.875203 133.707578 
L 226.94117 134.42809 
L 227.007136 135.198764 
L 227.13907 133.31252 
L 227.402936 126.066837 
L 227.468902 124.154191 
L 227.732769 130.319106 
L 227.864702 127.287891 
L 227.930669 124.13031 
L 227.996635 124.173992 
L 228.260502 128.041045 
L 228.392435 124.519247 
L 228.524368 127.147605 
L 228.920167 116.129073 
L 229.052101 118.916797 
L 229.118067 118.339212 
L 229.184034 116.28556 
L 229.25 116.643656 
L 229.315967 117.470133 
L 229.381933 116.50805 
L 229.4479 110.983483 
L 229.513867 111.172492 
L 229.6458 115.470363 
L 229.711766 115.334397 
L 229.8437 114.403276 
L 229.975633 114.918939 
L 230.173532 109.990559 
L 230.239499 111.445984 
L 230.371432 108.293923 
L 230.503365 111.536348 
L 230.569332 110.667869 
L 230.701265 114.471199 
L 230.767232 114.156545 
L 230.833198 114.166625 
L 231.163031 125.761783 
L 231.228998 125.280441 
L 231.360931 129.28622 
L 231.426898 127.536302 
L 231.690764 122.039577 
L 231.888664 125.153476 
L 231.95463 124.600011 
L 232.020597 126.510976 
L 232.086563 126.238084 
L 232.15253 126.088798 
L 232.218497 128.143049 
L 232.284463 127.856956 
L 232.35043 125.6947 
L 232.416396 127.013919 
L 232.482363 128.245894 
L 232.680263 123.480121 
L 232.746229 123.858498 
L 232.878162 126.278286 
L 233.010096 122.624963 
L 233.207995 125.809545 
L 233.273962 126.273126 
L 233.339929 125.747022 
L 233.405895 127.116643 
L 233.471862 126.790949 
L 233.537828 121.977774 
L 233.603795 123.700091 
L 233.669761 122.924856 
L 233.735728 123.378957 
L 233.801695 125.784344 
L 233.867661 125.280921 
L 234.197494 116.977871 
L 234.263461 116.804343 
L 234.329427 117.594338 
L 234.395394 117.571057 
L 234.46136 117.151519 
L 234.527327 118.718188 
L 234.593294 118.383614 
L 234.65926 116.443247 
L 235.05506 127.118203 
L 235.121026 126.932195 
L 235.252959 123.558845 
L 235.384893 121.169538 
L 235.714726 133.684537 
L 235.846659 132.602448 
L 235.978592 133.400244 
L 236.242458 140.598165 
L 236.374391 137.948207 
L 236.638258 132.303275 
L 236.704224 132.284554 
L 236.902124 126.548778 
L 236.968091 127.04332 
L 237.100024 124.846262 
L 237.297924 120.947288 
L 237.36389 121.060093 
L 237.429857 118.990481 
L 237.693723 128.805479 
L 237.825656 126.942516 
L 237.957589 118.337291 
L 238.023556 119.817678 
L 238.155489 120.421305 
L 238.221456 120.221256 
L 238.287422 116.686018 
L 238.353389 119.287014 
L 238.419356 116.607174 
L 238.485322 116.652176 
L 238.683222 119.724913 
L 238.881122 116.376284 
L 239.013055 122.832572 
L 239.079021 122.044137 
L 239.144988 122.683766 
L 239.276921 125.110514 
L 239.342888 125.289202 
L 239.474821 128.792038 
L 239.540787 128.323057 
L 239.606754 127.838956 
L 239.672721 128.025444 
L 239.738687 127.71511 
L 239.804654 128.763597 
L 240.06852 121.722643 
L 240.134487 121.816727 
L 240.200453 121.003931 
L 240.26642 121.781685 
L 240.398353 120.669116 
L 240.530286 117.654341 
L 240.596253 117.979796 
L 240.662219 117.107477 
L 240.728186 120.450946 
L 240.794153 117.788267 
L 240.860119 119.017482 
L 240.992052 119.100406 
L 241.058019 116.683498 
L 241.123985 117.668622 
L 241.189952 120.557031 
L 241.255919 120.109891 
L 241.519785 114.793893 
L 241.585752 115.375559 
L 241.651718 117.271524 
L 241.849618 112.755722 
L 241.915584 114.232508 
L 242.113484 109.364971 
L 242.311384 104.008052 
L 242.377351 103.29894 
L 242.443317 107.7815 
L 242.509284 106.65585 
L 242.57525 105.490118 
L 242.641217 106.154828 
L 242.707184 105.31095 
L 242.905083 98.3576 
L 242.97105 99.149875 
L 243.234916 94.219695 
L 243.300883 95.438829 
L 243.366849 93.488982 
L 243.432816 96.13642 
L 243.498783 95.797765 
L 243.762649 88.524121 
L 243.828615 89.63573 
L 243.894582 89.958545 
L 244.026515 93.912601 
L 244.158448 92.196044 
L 244.224415 92.296489 
L 244.290382 89.696333 
L 244.356348 93.457301 
L 244.422315 92.723228 
L 244.620214 85.248934 
L 244.686181 85.860722 
L 244.752148 84.955161 
L 244.884081 81.977708 
L 244.950047 84.25925 
L 245.016014 82.837307 
L 245.213914 78.031212 
L 245.27988 78.034092 
L 245.411813 81.055227 
L 245.609713 77.690277 
L 245.741646 82.146676 
L 245.807613 81.324399 
L 245.87358 81.728457 
L 245.939546 84.122084 
L 246.005513 81.253596 
L 246.071479 81.57209 
L 246.137446 80.509563 
L 246.203412 81.065908 
L 246.335346 81.881944 
L 246.401312 81.327759 
L 246.467279 82.584335 
L 246.929045 69.443869 
L 246.995011 70.862092 
L 247.060978 70.37847 
L 247.126945 71.567124 
L 247.192911 71.359994 
L 247.324844 66.450095 
L 247.390811 67.515983 
L 247.456778 67.497142 
L 247.522744 68.559069 
L 247.588711 67.9 
L 247.654677 67.159927 
L 247.852577 71.100903 
L 247.918544 70.177221 
L 247.98451 71.526202 
L 248.050477 69.936851 
L 248.248377 74.685703 
L 248.446276 69.422388 
L 248.512243 70.902774 
L 248.710143 68.062247 
L 248.908042 70.627842 
L 248.974009 68.823321 
L 249.039976 69.866048 
L 249.303842 75.595103 
L 249.501742 70.768608 
L 249.567708 70.719766 
L 249.765608 75.317291 
L 249.831575 75.502339 
L 249.963508 72.735616 
L 250.095441 76.027003 
L 250.161408 74.835589 
L 250.293341 75.930038 
L 250.49124 69.47231 
L 250.557207 70.006934 
L 250.623174 69.227739 
L 250.68914 69.642118 
L 250.821073 65.591937 
L 250.88704 65.735703 
L 251.08494 68.431744 
L 251.216873 63.705453 
L 251.282839 64.395963 
L 251.348806 63.034503 
L 251.480739 64.856664 
L 251.546706 61.977495 
L 251.876539 69.656158 
L 252.008472 67.069683 
L 252.206372 62.540201 
L 252.272338 63.19231 
L 252.338305 60.645916 
L 252.404271 62.214866 
L 252.668138 67.284972 
L 252.866038 61.116337 
L 253.063937 58.453418 
L 253.129904 59.61399 
L 253.327804 65.031752 
L 253.39377 62.659246 
L 253.459737 67.265652 
L 253.525703 66.5611 
L 253.59167 65.455611 
L 253.657637 66.686266 
L 253.78957 64.09595 
L 253.855536 66.518138 
L 253.921503 65.188839 
L 253.987469 66.78683 
L 254.053436 62.621324 
L 254.119403 63.19087 
L 254.185369 62.74181 
L 254.317302 64.126791 
L 254.383269 65.698262 
L 254.515202 59.951445 
L 254.581169 59.134088 
L 254.713102 61.032453 
L 254.845035 59.722715 
L 254.911002 59.585909 
L 255.108901 66.143961 
L 255.174868 64.918827 
L 255.240835 64.55089 
L 255.372768 65.934552 
L 255.504701 68.751438 
L 255.636634 66.916196 
L 255.702601 66.983999 
L 255.9005 60.397145 
L 255.966467 60.670517 
L 256.0984 63.122707 
L 256.164367 61.527955 
L 256.230333 61.712164 
L 256.428233 64.429445 
L 256.4942 63.839499 
L 256.626133 67.205889 
L 256.692099 65.239001 
L 256.889999 68.658914 
L 257.021932 72.123828 
L 257.087899 68.847922 
L 257.153866 69.350385 
L 257.219832 69.230499 
L 257.483698 76.859 
L 257.615632 76.284294 
L 257.747565 78.300504 
L 258.077398 74.809908 
L 258.275297 73.699499 
L 258.473197 67.443619 
L 258.539164 72.414121 
L 258.60513 71.997343 
L 258.671097 70.833171 
L 258.737064 71.947421 
L 258.80303 67.987124 
L 258.868997 70.331068 
L 258.934963 70.768488 
L 259.00093 69.225339 
L 259.19883 73.896428 
L 259.330763 72.539287 
L 259.396729 70.220183 
L 259.462696 70.310067 
L 259.528663 69.798605 
L 259.660596 70.846251 
L 260.122362 62.206826 
L 260.188328 60.300301 
L 260.386228 64.524009 
L 260.452195 63.776376 
L 260.584128 70.064416 
L 260.650094 67.852838 
L 260.716061 67.603467 
L 260.913961 68.693595 
L 261.30976 61.440471 
L 261.375727 63.513924 
L 261.441693 61.481873 
L 261.50766 62.579442 
L 261.837493 61.84909 
L 262.035393 56.24772 
L 262.101359 58.605465 
L 262.167326 57.764707 
L 262.233293 58.009998 
L 262.299259 57.338328 
L 262.826992 68.235655 
L 262.892958 66.621703 
L 262.958925 71.027939 
L 263.024892 70.231704 
L 263.090858 72.243594 
L 263.156825 71.010419 
L 263.222791 71.387836 
L 263.486658 78.416189 
L 263.552624 78.735164 
L 263.618591 77.606273 
L 263.750524 79.584201 
L 263.816491 76.673231 
L 263.948424 80.596327 
L 264.01439 78.331105 
L 264.080357 79.307949 
L 264.41019 74.84651 
L 264.476156 77.728079 
L 264.542123 74.39289 
L 264.60809 75.689908 
L 264.740023 73.553212 
L 264.805989 74.206881 
L 264.871956 75.556462 
L 264.937922 75.51866 
L 265.003889 75.358933 
L 265.135822 70.546478 
L 265.267755 71.463439 
L 265.333722 72.3732 
L 265.399689 70.389511 
L 265.465655 72.557288 
L 265.729521 67.68051 
L 265.861455 69.734042 
L 265.927421 66.831472 
L 265.993388 68.722997 
L 266.125321 65.712542 
L 266.191288 66.230005 
L 266.257254 68.086608 
L 266.323221 64.187034 
L 266.455154 69.554274 
L 266.784987 74.035634 
L 266.91692 68.239495 
L 267.11482 73.908908 
L 267.180786 73.670457 
L 267.378686 70.81997 
L 267.444653 73.237238 
L 267.510619 72.861141 
L 267.642552 71.846136 
L 267.708519 74.261604 
L 267.774486 73.50977 
L 268.038352 68.402822 
L 268.104319 70.640682 
L 268.302218 64.733298 
L 268.368185 64.800981 
L 268.434151 64.483807 
L 268.566085 61.724404 
L 268.698018 56.683699 
L 268.763984 56.850147 
L 268.895918 61.493034 
L 269.159784 57.932955 
L 269.291717 58.029319 
L 269.357684 57.566098 
L 269.489617 63.930343 
L 269.555583 62.97558 
L 269.687517 60.256259 
L 269.81945 56.630897 
L 270.017349 63.400879 
L 270.083316 59.246414 
L 270.149283 59.916763 
L 270.215249 60.901047 
L 270.281216 60.469628 
L 270.347182 59.415861 
L 270.479116 63.183549 
L 270.611049 60.302941 
L 270.677015 61.536716 
L 270.742982 61.821008 
L 270.874915 66.615462 
L 270.940882 66.353851 
L 271.006848 62.466637 
L 271.072815 63.095705 
L 271.138781 61.600679 
L 271.204748 62.384314 
L 271.402648 65.256762 
L 271.468614 63.384318 
L 271.600548 67.526423 
L 271.666514 66.594222 
L 271.93038 76.749435 
L 271.996347 74.989316 
L 272.12828 73.457088 
L 272.32618 66.021076 
L 272.392147 68.102689 
L 272.458113 67.8976 
L 272.52408 68.534468 
L 272.853913 79.605322 
L 272.985846 76.430581 
L 273.051812 79.534519 
L 273.117779 78.386548 
L 273.315679 77.216616 
L 273.381645 79.306509 
L 273.447612 76.063124 
L 273.513578 76.208691 
L 273.579545 75.73719 
L 273.645512 73.793943 
L 273.777445 77.564031 
L 273.975345 74.564017 
L 274.173244 69.659518 
L 274.305177 59.298736 
L 274.371144 60.835524 
L 274.569044 70.521277 
L 274.63501 69.176497 
L 274.83291 70.885613 
L 275.096776 66.33465 
L 275.426609 55.608331 
L 275.756442 62.209586 
L 275.822409 61.149338 
L 275.954342 64.10003 
L 276.020309 63.325876 
L 276.086275 65.025992 
L 276.152242 64.194834 
L 276.218208 63.402199 
L 276.284175 64.338361 
L 276.350142 63.542365 
L 276.548041 69.293022 
L 277.075774 58.253249 
L 277.141741 60.991891 
L 277.33964 56.982152 
L 277.405607 56.321403 
L 277.471574 58.476459 
L 277.53754 57.474894 
L 277.73544 58.931639 
L 277.93334 64.338481 
L 277.999306 64.259157 
L 278.131239 66.821392 
L 278.197206 65.518373 
L 278.395106 67.22341 
L 278.461072 69.588475 
L 278.527039 67.280892 
L 278.593005 68.176252 
L 278.658972 69.378946 
L 278.724939 69.292782 
L 278.790905 69.534473 
L 278.856872 72.211672 
L 278.988805 68.553669 
L 279.054772 71.010539 
L 279.120738 69.343784 
L 279.252671 67.200369 
L 279.318638 70.502556 
L 279.384604 70.201823 
L 279.450571 66.726227 
L 279.516538 67.782995 
L 279.582504 70.82381 
L 279.648471 70.784809 
L 279.780404 66.671865 
L 279.846371 68.823561 
L 279.912337 71.316072 
L 280.110237 65.764264 
L 280.308137 67.167127 
L 280.374103 66.811071 
L 280.44007 64.412164 
L 280.63797 70.024815 
L 280.835869 66.447095 
L 280.901836 66.712667 
L 280.967802 68.453585 
L 281.033769 65.808306 
L 281.099736 66.616663 
L 281.165702 65.815387 
L 281.231669 66.616423 
L 281.561502 62.099661 
L 281.693435 63.19063 
L 281.957301 72.507846 
L 282.023268 72.369239 
L 282.089234 71.086862 
L 282.155201 73.245038 
L 282.419067 68.440624 
L 282.485034 68.12285 
L 282.551001 69.426468 
L 282.682934 65.334165 
L 282.7489 65.797986 
L 282.814867 63.884141 
L 283.1447 73.095272 
L 283.3426 68.838202 
L 283.474533 72.697694 
L 283.540499 71.660968 
L 283.606466 71.92894 
L 283.672432 70.242864 
L 283.738399 71.095982 
L 283.870332 69.809045 
L 284.134199 74.606259 
L 284.266132 75.437536 
L 284.332098 75.121442 
L 284.398065 72.556568 
L 284.464031 73.084591 
L 284.529998 72.678253 
L 284.595965 73.663737 
L 284.661931 71.390356 
L 284.727898 72.15719 
L 284.859831 70.888133 
L 284.925798 72.993027 
L 284.991764 72.60373 
L 285.189664 70.522237 
L 285.25563 67.632748 
L 285.321597 69.346904 
L 285.45353 70.631682 
L 285.519497 68.179252 
L 285.783363 75.901477 
L 285.981263 77.493108 
L 286.113196 76.788677 
L 286.311096 84.570664 
L 286.443029 81.924906 
L 286.640929 87.727645 
L 286.772862 90.161594 
L 286.970762 82.00699 
L 287.036728 83.35117 
L 287.366561 70.899534 
L 287.498494 71.585844 
L 287.96026 79.99702 
L 288.224127 68.922205 
L 288.35606 69.140015 
L 288.487993 74.703704 
L 288.883793 67.8994 
L 289.081692 73.665657 
L 289.213626 70.649803 
L 289.279592 70.620641 
L 289.345559 71.26807 
L 289.543458 66.068118 
L 289.609425 66.040037 
L 289.741358 62.218706 
L 289.807325 63.763655 
L 289.873291 62.875496 
L 290.203124 58.182446 
L 290.269091 53.568 
L 290.269091 53.568 
" clip-path="url(#peda74f30e9)" style="fill: none; stroke: #8dd3c7; stroke-width: 2; stroke-linecap: square"/>
   </g>
   <g id="line2d_34">
    <path d="M 73.832727 55.477285 
L 398.487273 55.477285 
" clip-path="url(#peda74f30e9)" style="fill: none; stroke: #008000; stroke-width: 1.5; stroke-linecap: square"/>
   </g>
   <g id="line2d_35">
    <path d="M 73.832727 295.488 
L 398.487273 295.488 
" clip-path="url(#peda74f30e9)" style="fill: none; stroke: #008000; stroke-width: 1.5; stroke-linecap: square"/>
   </g>
   <g id="patch_3">
    <path d="M 57.6 307.584 
L 57.6 41.472 
" style="fill: none; stroke: #ffffff; stroke-width: 0.8; stroke-linejoin: miter; stroke-linecap: square"/>
   </g>
   <g id="patch_4">
    <path d="M 414.72 307.584 
L 414.72 41.472 
" style="fill: none; stroke: #ffffff; stroke-width: 0.8; stroke-linejoin: miter; stroke-linecap: square"/>
   </g>
   <g id="patch_5">
    <path d="M 57.6 307.584 
L 414.72 307.584 
" style="fill: none; stroke: #ffffff; stroke-width: 0.8; stroke-linejoin: miter; stroke-linecap: square"/>
   </g>
   <g id="patch_6">
    <path d="M 57.6 41.472 
L 414.72 41.472 
" style="fill: none; stroke: #ffffff; stroke-width: 0.8; stroke-linejoin: miter; stroke-linecap: square"/>
   </g>
  </g>
 </g>
 <defs>
  <clipPath id="peda74f30e9">
   <rect x="57.6" y="41.472" width="357.12" height="266.112"/>
  </clipPath>
 </defs>
</svg>
