<?xml version="1.0" encoding="utf-8" standalone="no"?>
<!DOCTYPE svg PUBLIC "-//W3C//DTD SVG 1.1//EN"
  "http://www.w3.org/Graphics/SVG/1.1/DTD/svg11.dtd">
<svg xmlns:xlink="http://www.w3.org/1999/xlink" width="576pt" height="216pt" viewBox="0 0 576 216" xmlns="http://www.w3.org/2000/svg" version="1.1">
 <metadata>
  <rdf:RDF xmlns:dc="http://purl.org/dc/elements/1.1/" xmlns:cc="http://creativecommons.org/ns#" xmlns:rdf="http://www.w3.org/1999/02/22-rdf-syntax-ns#">
   <cc:Work>
    <dc:type rdf:resource="http://purl.org/dc/dcmitype/StillImage"/>
    <dc:date>2024-03-27T15:58:06.764809</dc:date>
    <dc:format>image/svg+xml</dc:format>
    <dc:creator>
     <cc:Agent>
      <dc:title>Matplotlib v3.8.3, https://matplotlib.org/</dc:title>
     </cc:Agent>
    </dc:creator>
   </cc:Work>
  </rdf:RDF>
 </metadata>
 <defs>
  <style type="text/css">*{stroke-linejoin: round; stroke-linecap: butt}</style>
 </defs>
 <g id="figure_1">
  <g id="patch_1">
   <path d="M 0 216 
L 576 216 
L 576 0 
L 0 0 
z
" style="fill: #ffffff"/>
  </g>
  <g id="axes_1">
   <g id="PathCollection_1">
    <defs>
     <path id="mf7d7fa3241" d="M 0 7.071068 
C 1.875269 7.071068 3.673985 6.326016 5 5 
C 6.326016 3.673985 7.071068 1.875269 7.071068 0 
C 7.071068 -1.875269 6.326016 -3.673985 5 -5 
C 3.673985 -6.326016 1.875269 -7.071068 0 -7.071068 
C -1.875269 -7.071068 -3.673985 -6.326016 -5 -5 
C -6.326016 -3.673985 -7.071068 -1.875269 -7.071068 0 
C -7.071068 1.875269 -6.326016 3.673985 -5 5 
C -3.673985 6.326016 -1.875269 7.071068 0 7.071068 
z
" style="stroke: #008000; stroke-width: 0.5"/>
    </defs>
    <g clip-path="url(#p7c0b6009f7)">
     <use xlink:href="#mf7d7fa3241" x="92.290909" y="168.48" style="fill: #008000; stroke: #008000; stroke-width: 0.5"/>
    </g>
   </g>
   <g id="PathCollection_2">
    <g clip-path="url(#p7c0b6009f7)">
     <use xlink:href="#mf7d7fa3241" x="173.454545" y="168.48" style="fill: #008000; stroke: #008000; stroke-width: 0.5"/>
    </g>
   </g>
   <g id="PathCollection_3">
    <g clip-path="url(#p7c0b6009f7)">
     <use xlink:href="#mf7d7fa3241" x="254.618182" y="168.48" style="fill: #008000; stroke: #008000; stroke-width: 0.5"/>
    </g>
   </g>
   <g id="PathCollection_4">
    <g clip-path="url(#p7c0b6009f7)">
     <use xlink:href="#mf7d7fa3241" x="335.781818" y="168.48" style="fill: #008000; stroke: #008000; stroke-width: 0.5"/>
    </g>
   </g>
   <g id="PathCollection_5">
    <g clip-path="url(#p7c0b6009f7)">
     <use xlink:href="#mf7d7fa3241" x="416.945455" y="168.48" style="fill: #008000; stroke: #008000; stroke-width: 0.5"/>
    </g>
   </g>
   <g id="PathCollection_6">
    <g clip-path="url(#p7c0b6009f7)">
     <use xlink:href="#mf7d7fa3241" x="498.109091" y="168.48" style="fill: #008000; stroke: #008000; stroke-width: 0.5"/>
    </g>
   </g>
   <g id="PathCollection_7">
    <g clip-path="url(#p7c0b6009f7)">
     <use xlink:href="#mf7d7fa3241" x="92.290909" y="49.68" style="fill: #008000; stroke: #008000; stroke-width: 0.5"/>
    </g>
   </g>
   <g id="PathCollection_8">
    <defs>
     <path id="m18efe610b9" d="M 0 7.071068 
C 1.875269 7.071068 3.673985 6.326016 5 5 
C 6.326016 3.673985 7.071068 1.875269 7.071068 0 
C 7.071068 -1.875269 6.326016 -3.673985 5 -5 
C 3.673985 -6.326016 1.875269 -7.071068 0 -7.071068 
C -1.875269 -7.071068 -3.673985 -6.326016 -5 -5 
C -6.326016 -3.673985 -7.071068 -1.875269 -7.071068 0 
C -7.071068 1.875269 -6.326016 3.673985 -5 5 
C -3.673985 6.326016 -1.875269 7.071068 0 7.071068 
z
" style="stroke: #808080; stroke-width: 0.5"/>
    </defs>
    <g clip-path="url(#p7c0b6009f7)">
     <use xlink:href="#m18efe610b9" x="173.454545" y="49.68" style="fill: #808080; stroke: #808080; stroke-width: 0.5"/>
    </g>
   </g>
   <g id="PathCollection_9">
    <path d="M 173.454545 62.521449 
C 176.702607 62.521449 179.818073 61.23098 182.114799 58.934254 
C 184.411526 56.637528 185.701994 53.522061 185.701994 50.274 
C 185.701994 47.025939 184.411526 43.910472 182.114799 41.613746 
C 179.818073 39.31702 176.702607 38.026551 173.454545 38.026551 
C 170.206484 38.026551 167.091018 39.31702 164.794291 41.613746 
C 162.497565 43.910472 161.207097 47.025939 161.207097 50.274 
C 161.207097 53.522061 162.497565 56.637528 164.794291 58.934254 
C 167.091018 61.23098 170.206484 62.521449 173.454545 62.521449 
L 173.454545 62.521449 
z
" clip-path="url(#p7c0b6009f7)" style="fill: none; stroke: #800080; stroke-width: 3"/>
   </g>
   <g id="PathCollection_10">
    <g clip-path="url(#p7c0b6009f7)">
     <use xlink:href="#m18efe610b9" x="254.618182" y="49.68" style="fill: #808080; stroke: #808080; stroke-width: 0.5"/>
    </g>
   </g>
   <g id="PathCollection_11">
    <path d="M 254.618182 62.521449 
C 257.866243 62.521449 260.98171 61.23098 263.278436 58.934254 
C 265.575162 56.637528 266.865631 53.522061 266.865631 50.274 
C 266.865631 47.025939 265.575162 43.910472 263.278436 41.613746 
C 260.98171 39.31702 257.866243 38.026551 254.618182 38.026551 
C 251.37012 38.026551 248.254654 39.31702 245.957928 41.613746 
C 243.661202 43.910472 242.370733 47.025939 242.370733 50.274 
C 242.370733 53.522061 243.661202 56.637528 245.957928 58.934254 
C 248.254654 61.23098 251.37012 62.521449 254.618182 62.521449 
L 254.618182 62.521449 
z
" clip-path="url(#p7c0b6009f7)" style="fill: none; stroke: #ffa500; stroke-width: 3"/>
   </g>
   <g id="PathCollection_12">
    <g clip-path="url(#p7c0b6009f7)">
     <use xlink:href="#m18efe610b9" x="335.781818" y="49.68" style="fill: #808080; stroke: #808080; stroke-width: 0.5"/>
    </g>
   </g>
   <g id="PathCollection_13">
    <path d="M 335.781818 62.521449 
C 339.02988 62.521449 342.145346 61.23098 344.442072 58.934254 
C 346.738798 56.637528 348.029267 53.522061 348.029267 50.274 
C 348.029267 47.025939 346.738798 43.910472 344.442072 41.613746 
C 342.145346 39.31702 339.02988 38.026551 335.781818 38.026551 
C 332.533757 38.026551 329.41829 39.31702 327.121564 41.613746 
C 324.824838 43.910472 323.534369 47.025939 323.534369 50.274 
C 323.534369 53.522061 324.824838 56.637528 327.121564 58.934254 
C 329.41829 61.23098 332.533757 62.521449 335.781818 62.521449 
L 335.781818 62.521449 
z
" clip-path="url(#p7c0b6009f7)" style="fill: none; stroke: #ff0000; stroke-width: 3"/>
   </g>
   <g id="PathCollection_14">
    <g clip-path="url(#p7c0b6009f7)">
     <use xlink:href="#m18efe610b9" x="416.945455" y="49.68" style="fill: #808080; stroke: #808080; stroke-width: 0.5"/>
    </g>
   </g>
   <g id="PathCollection_15">
    <g clip-path="url(#p7c0b6009f7)">
     <use xlink:href="#m18efe610b9" x="498.109091" y="49.68" style="fill: #808080; stroke: #808080; stroke-width: 0.5"/>
    </g>
   </g>
   <g id="patch_2">
    <path d="M 165.830522 60.839357 
L 160.091386 77.640214 
L 157.250514 73.482002 
L 100.435968 156.642002 
L 100.378577 156.557998 
L 157.193123 73.397998 
L 154.35225 69.239786 
z
" clip-path="url(#p7c0b6009f7)" style="fill: #800080; stroke: #800080; stroke-width: 2; stroke-linejoin: miter"/>
   </g>
   <g id="patch_3">
    <path d="M 173.454545 61.56 
L 177.512727 79.38 
L 173.495127 79.38 
L 173.495127 156.6 
L 173.413964 156.6 
L 173.413964 79.38 
L 169.396364 79.38 
z
" clip-path="url(#p7c0b6009f7)" style="fill: #800080; stroke: #800080; stroke-width: 2; stroke-linejoin: miter"/>
   </g>
   <g id="patch_4">
    <path d="M 181.078569 60.839357 
L 192.556841 69.239786 
L 189.715968 73.397998 
L 246.530514 156.557998 
L 246.473123 156.642002 
L 189.658577 73.482002 
L 186.817705 77.640214 
z
" clip-path="url(#p7c0b6009f7)" style="fill: #800080; stroke: #800080; stroke-width: 2; stroke-linejoin: miter"/>
   </g>
   <g id="patch_5">
    <path d="M 246.994158 60.839357 
L 241.255022 77.640214 
L 238.41415 73.482002 
L 181.599605 156.642002 
L 181.542213 156.557998 
L 238.356759 73.397998 
L 235.515887 69.239786 
z
" clip-path="url(#p7c0b6009f7)" style="fill: #ffa500; stroke: #ffa500; stroke-width: 2; stroke-linejoin: miter"/>
   </g>
   <g id="patch_6">
    <path d="M 254.618182 61.56 
L 258.676364 79.38 
L 254.658764 79.38 
L 254.658764 156.6 
L 254.5776 156.6 
L 254.5776 79.38 
L 250.56 79.38 
z
" clip-path="url(#p7c0b6009f7)" style="fill: #ffa500; stroke: #ffa500; stroke-width: 2; stroke-linejoin: miter"/>
   </g>
   <g id="patch_7">
    <path d="M 262.242205 60.839357 
L 273.720477 69.239786 
L 270.879605 73.397998 
L 327.69415 156.557998 
L 327.636759 156.642002 
L 270.822213 73.482002 
L 267.981341 77.640214 
z
" clip-path="url(#p7c0b6009f7)" style="fill: #ffa500; stroke: #ffa500; stroke-width: 2; stroke-linejoin: miter"/>
   </g>
   <g id="patch_8">
    <path d="M 328.157795 60.839357 
L 322.418659 77.640214 
L 319.577787 73.482002 
L 262.763241 156.642002 
L 262.70585 156.557998 
L 319.520395 73.397998 
L 316.679523 69.239786 
z
" clip-path="url(#p7c0b6009f7)" style="fill: #ff0000; stroke: #ff0000; stroke-width: 2; stroke-linejoin: miter"/>
   </g>
   <g id="patch_9">
    <path d="M 335.781818 61.56 
L 339.84 79.38 
L 335.8224 79.38 
L 335.8224 156.6 
L 335.741236 156.6 
L 335.741236 79.38 
L 331.723636 79.38 
z
" clip-path="url(#p7c0b6009f7)" style="fill: #ff0000; stroke: #ff0000; stroke-width: 2; stroke-linejoin: miter"/>
   </g>
   <g id="patch_10">
    <path d="M 343.405842 60.839357 
L 354.884113 69.239786 
L 352.043241 73.397998 
L 408.857787 156.557998 
L 408.800395 156.642002 
L 351.98585 73.482002 
L 349.144978 77.640214 
z
" clip-path="url(#p7c0b6009f7)" style="fill: #ff0000; stroke: #ff0000; stroke-width: 2; stroke-linejoin: miter"/>
   </g>
   <g id="line2d_1">
    <path d="M 92.290909 168.48 
L 92.290909 49.68 
" clip-path="url(#p7c0b6009f7)" style="fill: none; stroke: #008000; stroke-width: 5; stroke-linecap: square"/>
   </g>
   <g id="line2d_2">
    <path d="M 92.290909 168.48 
L 498.109091 168.48 
" clip-path="url(#p7c0b6009f7)" style="fill: none; stroke: #008000; stroke-width: 5; stroke-linecap: square"/>
   </g>
  </g>
 </g>
 <defs>
  <clipPath id="p7c0b6009f7">
   <rect x="72" y="25.92" width="446.4" height="166.32"/>
  </clipPath>
 </defs>
</svg>
