<?xml version="1.0" encoding="utf-8" standalone="no"?>
<!DOCTYPE svg PUBLIC "-//W3C//DTD SVG 1.1//EN"
  "http://www.w3.org/Graphics/SVG/1.1/DTD/svg11.dtd">
<svg xmlns:xlink="http://www.w3.org/1999/xlink" width="576pt" height="216pt" viewBox="0 0 576 216" xmlns="http://www.w3.org/2000/svg" version="1.1">
 <metadata>
  <rdf:RDF xmlns:dc="http://purl.org/dc/elements/1.1/" xmlns:cc="http://creativecommons.org/ns#" xmlns:rdf="http://www.w3.org/1999/02/22-rdf-syntax-ns#">
   <cc:Work>
    <dc:type rdf:resource="http://purl.org/dc/dcmitype/StillImage"/>
    <dc:date>2024-03-27T15:49:05.692367</dc:date>
    <dc:format>image/svg+xml</dc:format>
    <dc:creator>
     <cc:Agent>
      <dc:title>Matplotlib v3.8.3, https://matplotlib.org/</dc:title>
     </cc:Agent>
    </dc:creator>
   </cc:Work>
  </rdf:RDF>
 </metadata>
 <defs>
  <style type="text/css">*{stroke-linejoin: round; stroke-linecap: butt}</style>
 </defs>
 <g id="figure_1">
  <g id="patch_1">
   <path d="M 0 216 
L 576 216 
L 576 0 
L 0 0 
z
" style="fill: #ffffff"/>
  </g>
  <g id="axes_1">
   <g id="PathCollection_1">
    <defs>
     <path id="me6ae50fb63" d="M 0 7.071068 
C 1.875269 7.071068 3.673985 6.326016 5 5 
C 6.326016 3.673985 7.071068 1.875269 7.071068 0 
C 7.071068 -1.875269 6.326016 -3.673985 5 -5 
C 3.673985 -6.326016 1.875269 -7.071068 0 -7.071068 
C -1.875269 -7.071068 -3.673985 -6.326016 -5 -5 
C -6.326016 -3.673985 -7.071068 -1.875269 -7.071068 0 
C -7.071068 1.875269 -6.326016 3.673985 -5 5 
C -3.673985 6.326016 -1.875269 7.071068 0 7.071068 
z
" style="stroke: #008000; stroke-width: 0.5"/>
    </defs>
    <g clip-path="url(#p4af52aa7e8)">
     <use xlink:href="#me6ae50fb63" x="92.290909" y="168.48" style="fill: #008000; stroke: #008000; stroke-width: 0.5"/>
    </g>
   </g>
   <g id="PathCollection_2">
    <g clip-path="url(#p4af52aa7e8)">
     <use xlink:href="#me6ae50fb63" x="173.454545" y="168.48" style="fill: #008000; stroke: #008000; stroke-width: 0.5"/>
    </g>
   </g>
   <g id="PathCollection_3">
    <g clip-path="url(#p4af52aa7e8)">
     <use xlink:href="#me6ae50fb63" x="254.618182" y="168.48" style="fill: #008000; stroke: #008000; stroke-width: 0.5"/>
    </g>
   </g>
   <g id="PathCollection_4">
    <g clip-path="url(#p4af52aa7e8)">
     <use xlink:href="#me6ae50fb63" x="335.781818" y="168.48" style="fill: #008000; stroke: #008000; stroke-width: 0.5"/>
    </g>
   </g>
   <g id="PathCollection_5">
    <g clip-path="url(#p4af52aa7e8)">
     <use xlink:href="#me6ae50fb63" x="416.945455" y="168.48" style="fill: #008000; stroke: #008000; stroke-width: 0.5"/>
    </g>
   </g>
   <g id="PathCollection_6">
    <g clip-path="url(#p4af52aa7e8)">
     <use xlink:href="#me6ae50fb63" x="498.109091" y="168.48" style="fill: #008000; stroke: #008000; stroke-width: 0.5"/>
    </g>
   </g>
   <g id="PathCollection_7">
    <g clip-path="url(#p4af52aa7e8)">
     <use xlink:href="#me6ae50fb63" x="92.290909" y="49.68" style="fill: #008000; stroke: #008000; stroke-width: 0.5"/>
    </g>
   </g>
   <g id="PathCollection_8">
    <path d="M 92.696727 62.521449 
C 95.944789 62.521449 99.060255 61.23098 101.356981 58.934254 
C 103.653708 56.637528 104.944176 53.522061 104.944176 50.274 
C 104.944176 47.025939 103.653708 43.910472 101.356981 41.613746 
C 99.060255 39.31702 95.944789 38.026551 92.696727 38.026551 
C 89.448666 38.026551 86.333199 39.31702 84.036473 41.613746 
C 81.739747 43.910472 80.449279 47.025939 80.449279 50.274 
C 80.449279 53.522061 81.739747 56.637528 84.036473 58.934254 
C 86.333199 61.23098 89.448666 62.521449 92.696727 62.521449 
L 92.696727 62.521449 
z
" clip-path="url(#p4af52aa7e8)" style="fill: none; stroke: #800080; stroke-width: 3"/>
   </g>
   <g id="PathCollection_9">
    <defs>
     <path id="m5800c747bb" d="M 0 7.071068 
C 1.875269 7.071068 3.673985 6.326016 5 5 
C 6.326016 3.673985 7.071068 1.875269 7.071068 0 
C 7.071068 -1.875269 6.326016 -3.673985 5 -5 
C 3.673985 -6.326016 1.875269 -7.071068 0 -7.071068 
C -1.875269 -7.071068 -3.673985 -6.326016 -5 -5 
C -6.326016 -3.673985 -7.071068 -1.875269 -7.071068 0 
C -7.071068 1.875269 -6.326016 3.673985 -5 5 
C -3.673985 6.326016 -1.875269 7.071068 0 7.071068 
z
" style="stroke: #808080; stroke-width: 0.5"/>
    </defs>
    <g clip-path="url(#p4af52aa7e8)">
     <use xlink:href="#m5800c747bb" x="173.454545" y="49.68" style="fill: #808080; stroke: #808080; stroke-width: 0.5"/>
    </g>
   </g>
   <g id="PathCollection_10">
    <path d="M 173.454545 62.521449 
C 176.702607 62.521449 179.818073 61.23098 182.114799 58.934254 
C 184.411526 56.637528 185.701994 53.522061 185.701994 50.274 
C 185.701994 47.025939 184.411526 43.910472 182.114799 41.613746 
C 179.818073 39.31702 176.702607 38.026551 173.454545 38.026551 
C 170.206484 38.026551 167.091018 39.31702 164.794291 41.613746 
C 162.497565 43.910472 161.207097 47.025939 161.207097 50.274 
C 161.207097 53.522061 162.497565 56.637528 164.794291 58.934254 
C 167.091018 61.23098 170.206484 62.521449 173.454545 62.521449 
L 173.454545 62.521449 
z
" clip-path="url(#p4af52aa7e8)" style="fill: none; stroke: #800080; stroke-width: 3"/>
   </g>
   <g id="PathCollection_11">
    <path d="M 173.454545 67.594508 
C 178.047998 67.594508 182.453933 65.76951 185.701994 62.521449 
C 188.950056 59.273387 190.775054 54.867452 190.775054 50.274 
C 190.775054 45.680548 188.950056 41.274613 185.701994 38.026551 
C 182.453933 34.77849 178.047998 32.953492 173.454545 32.953492 
C 168.861093 32.953492 164.455158 34.77849 161.207097 38.026551 
C 157.959035 41.274613 156.134037 45.680548 156.134037 50.274 
C 156.134037 54.867452 157.959035 59.273387 161.207097 62.521449 
C 164.455158 65.76951 168.861093 67.594508 173.454545 67.594508 
L 173.454545 67.594508 
z
" clip-path="url(#p4af52aa7e8)" style="fill: none; stroke: #ffa500; stroke-width: 3"/>
   </g>
   <g id="PathCollection_12">
    <g clip-path="url(#p4af52aa7e8)">
     <use xlink:href="#m5800c747bb" x="254.618182" y="49.68" style="fill: #808080; stroke: #808080; stroke-width: 0.5"/>
    </g>
   </g>
   <g id="PathCollection_13">
    <path d="M 254.618182 62.521449 
C 257.866243 62.521449 260.98171 61.23098 263.278436 58.934254 
C 265.575162 56.637528 266.865631 53.522061 266.865631 50.274 
C 266.865631 47.025939 265.575162 43.910472 263.278436 41.613746 
C 260.98171 39.31702 257.866243 38.026551 254.618182 38.026551 
C 251.37012 38.026551 248.254654 39.31702 245.957928 41.613746 
C 243.661202 43.910472 242.370733 47.025939 242.370733 50.274 
C 242.370733 53.522061 243.661202 56.637528 245.957928 58.934254 
C 248.254654 61.23098 251.37012 62.521449 254.618182 62.521449 
L 254.618182 62.521449 
z
" clip-path="url(#p4af52aa7e8)" style="fill: none; stroke: #800080; stroke-width: 3"/>
   </g>
   <g id="PathCollection_14">
    <path d="M 254.618182 67.594508 
C 259.211634 67.594508 263.617569 65.76951 266.865631 62.521449 
C 270.113692 59.273387 271.93869 54.867452 271.93869 50.274 
C 271.93869 45.680548 270.113692 41.274613 266.865631 38.026551 
C 263.617569 34.77849 259.211634 32.953492 254.618182 32.953492 
C 250.024729 32.953492 245.618794 34.77849 242.370733 38.026551 
C 239.122672 41.274613 237.297674 45.680548 237.297674 50.274 
C 237.297674 54.867452 239.122672 59.273387 242.370733 62.521449 
C 245.618794 65.76951 250.024729 67.594508 254.618182 67.594508 
L 254.618182 67.594508 
z
" clip-path="url(#p4af52aa7e8)" style="fill: none; stroke: #ffa500; stroke-width: 3"/>
   </g>
   <g id="PathCollection_15">
    <path d="M 254.618182 72.63468 
C 260.548303 72.63468 266.236341 70.278617 270.42957 66.085388 
C 274.622799 61.892159 276.978862 56.204122 276.978862 50.274 
C 276.978862 44.343878 274.622799 38.655841 270.42957 34.462612 
C 266.236341 30.269383 260.548303 27.91332 254.618182 27.91332 
C 248.68806 27.91332 243.000023 30.269383 238.806794 34.462612 
C 234.613564 38.655841 232.257502 44.343878 232.257502 50.274 
C 232.257502 56.204122 234.613564 61.892159 238.806794 66.085388 
C 243.000023 70.278617 248.68806 72.63468 254.618182 72.63468 
L 254.618182 72.63468 
z
" clip-path="url(#p4af52aa7e8)" style="fill: none; stroke: #ff0000; stroke-width: 3"/>
   </g>
   <g id="PathCollection_16">
    <g clip-path="url(#p4af52aa7e8)">
     <use xlink:href="#m5800c747bb" x="335.781818" y="49.68" style="fill: #808080; stroke: #808080; stroke-width: 0.5"/>
    </g>
   </g>
   <g id="PathCollection_17">
    <path d="M 335.781818 67.594508 
C 340.375271 67.594508 344.781206 65.76951 348.029267 62.521449 
C 351.277328 59.273387 353.102326 54.867452 353.102326 50.274 
C 353.102326 45.680548 351.277328 41.274613 348.029267 38.026551 
C 344.781206 34.77849 340.375271 32.953492 335.781818 32.953492 
C 331.188366 32.953492 326.782431 34.77849 323.534369 38.026551 
C 320.286308 41.274613 318.46131 45.680548 318.46131 50.274 
C 318.46131 54.867452 320.286308 59.273387 323.534369 62.521449 
C 326.782431 65.76951 331.188366 67.594508 335.781818 67.594508 
L 335.781818 67.594508 
z
" clip-path="url(#p4af52aa7e8)" style="fill: none; stroke: #ffa500; stroke-width: 3"/>
   </g>
   <g id="PathCollection_18">
    <path d="M 335.781818 72.63468 
C 341.71194 72.63468 347.399977 70.278617 351.593206 66.085388 
C 355.786436 61.892159 358.142498 56.204122 358.142498 50.274 
C 358.142498 44.343878 355.786436 38.655841 351.593206 34.462612 
C 347.399977 30.269383 341.71194 27.91332 335.781818 27.91332 
C 329.851697 27.91332 324.163659 30.269383 319.97043 34.462612 
C 315.777201 38.655841 313.421138 44.343878 313.421138 50.274 
C 313.421138 56.204122 315.777201 61.892159 319.97043 66.085388 
C 324.163659 70.278617 329.851697 72.63468 335.781818 72.63468 
L 335.781818 72.63468 
z
" clip-path="url(#p4af52aa7e8)" style="fill: none; stroke: #ff0000; stroke-width: 3"/>
   </g>
   <g id="PathCollection_19">
    <g clip-path="url(#p4af52aa7e8)">
     <use xlink:href="#m5800c747bb" x="416.945455" y="49.68" style="fill: #808080; stroke: #808080; stroke-width: 0.5"/>
    </g>
   </g>
   <g id="PathCollection_20">
    <path d="M 416.945455 72.63468 
C 422.875576 72.63468 428.563614 70.278617 432.756843 66.085388 
C 436.950072 61.892159 439.306134 56.204122 439.306134 50.274 
C 439.306134 44.343878 436.950072 38.655841 432.756843 34.462612 
C 428.563614 30.269383 422.875576 27.91332 416.945455 27.91332 
C 411.015333 27.91332 405.327295 30.269383 401.134066 34.462612 
C 396.940837 38.655841 394.584775 44.343878 394.584775 50.274 
C 394.584775 56.204122 396.940837 61.892159 401.134066 66.085388 
C 405.327295 70.278617 411.015333 72.63468 416.945455 72.63468 
L 416.945455 72.63468 
z
" clip-path="url(#p4af52aa7e8)" style="fill: none; stroke: #ff0000; stroke-width: 3"/>
   </g>
   <g id="PathCollection_21">
    <g clip-path="url(#p4af52aa7e8)">
     <use xlink:href="#m5800c747bb" x="498.109091" y="49.68" style="fill: #808080; stroke: #808080; stroke-width: 0.5"/>
    </g>
   </g>
   <g id="patch_2">
    <path d="M 108.031296 60.839357 
L 119.509568 69.239786 
L 116.668696 73.397998 
L 173.483241 156.557998 
L 173.42585 156.642002 
L 116.611304 73.482002 
L 113.770432 77.640214 
z
" clip-path="url(#p4af52aa7e8)" style="fill: #800080; stroke: #800080; stroke-width: 2; stroke-linejoin: miter"/>
   </g>
   <g id="patch_3">
    <path d="M 173.454545 61.56 
L 177.512727 79.38 
L 173.495127 79.38 
L 173.495127 156.6 
L 173.413964 156.6 
L 173.413964 79.38 
L 169.396364 79.38 
z
" clip-path="url(#p4af52aa7e8)" style="fill: #800080; stroke: #800080; stroke-width: 2; stroke-linejoin: miter"/>
   </g>
   <g id="patch_4">
    <path d="M 238.877795 60.839357 
L 233.138659 77.640214 
L 230.297787 73.482002 
L 173.483241 156.642002 
L 173.42585 156.557998 
L 230.240395 73.397998 
L 227.399523 69.239786 
z
" clip-path="url(#p4af52aa7e8)" style="fill: #800080; stroke: #800080; stroke-width: 2; stroke-linejoin: miter"/>
   </g>
   <g id="patch_5">
    <path d="M 189.194933 60.839357 
L 200.673204 69.239786 
L 197.832332 73.397998 
L 254.646877 156.557998 
L 254.589486 156.642002 
L 197.774941 73.482002 
L 194.934068 77.640214 
z
" clip-path="url(#p4af52aa7e8)" style="fill: #ffa500; stroke: #ffa500; stroke-width: 2; stroke-linejoin: miter"/>
   </g>
   <g id="patch_6">
    <path d="M 254.618182 61.56 
L 258.676364 79.38 
L 254.658764 79.38 
L 254.658764 156.6 
L 254.5776 156.6 
L 254.5776 79.38 
L 250.56 79.38 
z
" clip-path="url(#p4af52aa7e8)" style="fill: #ffa500; stroke: #ffa500; stroke-width: 2; stroke-linejoin: miter"/>
   </g>
   <g id="patch_7">
    <path d="M 320.041431 60.839357 
L 314.302295 77.640214 
L 311.461423 73.482002 
L 254.646877 156.642002 
L 254.589486 156.557998 
L 311.404032 73.397998 
L 308.563159 69.239786 
z
" clip-path="url(#p4af52aa7e8)" style="fill: #ffa500; stroke: #ffa500; stroke-width: 2; stroke-linejoin: miter"/>
   </g>
   <g id="patch_8">
    <path d="M 270.358569 60.839357 
L 281.836841 69.239786 
L 278.995968 73.397998 
L 335.810514 156.557998 
L 335.753123 156.642002 
L 278.938577 73.482002 
L 276.097705 77.640214 
z
" clip-path="url(#p4af52aa7e8)" style="fill: #ff0000; stroke: #ff0000; stroke-width: 2; stroke-linejoin: miter"/>
   </g>
   <g id="patch_9">
    <path d="M 335.781818 61.56 
L 339.84 79.38 
L 335.8224 79.38 
L 335.8224 156.6 
L 335.741236 156.6 
L 335.741236 79.38 
L 331.723636 79.38 
z
" clip-path="url(#p4af52aa7e8)" style="fill: #ff0000; stroke: #ff0000; stroke-width: 2; stroke-linejoin: miter"/>
   </g>
   <g id="patch_10">
    <path d="M 401.205067 60.839357 
L 395.465932 77.640214 
L 392.625059 73.482002 
L 335.810514 156.642002 
L 335.753123 156.557998 
L 392.567668 73.397998 
L 389.726796 69.239786 
z
" clip-path="url(#p4af52aa7e8)" style="fill: #ff0000; stroke: #ff0000; stroke-width: 2; stroke-linejoin: miter"/>
   </g>
   <g id="line2d_1">
    <path d="M 92.290909 168.48 
L 92.290909 49.68 
" clip-path="url(#p4af52aa7e8)" style="fill: none; stroke: #008000; stroke-width: 5; stroke-linecap: square"/>
   </g>
   <g id="line2d_2">
    <path d="M 92.290909 168.48 
L 498.109091 168.48 
" clip-path="url(#p4af52aa7e8)" style="fill: none; stroke: #008000; stroke-width: 5; stroke-linecap: square"/>
   </g>
  </g>
 </g>
 <defs>
  <clipPath id="p4af52aa7e8">
   <rect x="72" y="25.92" width="446.4" height="166.32"/>
  </clipPath>
 </defs>
</svg>
