<?xml version="1.0" encoding="utf-8" standalone="no"?>
<!DOCTYPE svg PUBLIC "-//W3C//DTD SVG 1.1//EN"
  "http://www.w3.org/Graphics/SVG/1.1/DTD/svg11.dtd">
<svg xmlns:xlink="http://www.w3.org/1999/xlink" width="576pt" height="216pt" viewBox="0 0 576 216" xmlns="http://www.w3.org/2000/svg" version="1.1">
 <metadata>
  <rdf:RDF xmlns:dc="http://purl.org/dc/elements/1.1/" xmlns:cc="http://creativecommons.org/ns#" xmlns:rdf="http://www.w3.org/1999/02/22-rdf-syntax-ns#">
   <cc:Work>
    <dc:type rdf:resource="http://purl.org/dc/dcmitype/StillImage"/>
    <dc:date>2024-03-26T17:06:25.429990</dc:date>
    <dc:format>image/svg+xml</dc:format>
    <dc:creator>
     <cc:Agent>
      <dc:title>Matplotlib v3.5.3, https://matplotlib.org/</dc:title>
     </cc:Agent>
    </dc:creator>
   </cc:Work>
  </rdf:RDF>
 </metadata>
 <defs>
  <style type="text/css">*{stroke-linejoin: round; stroke-linecap: butt}</style>
 </defs>
 <g id="figure_1">
  <g id="patch_1">
   <path d="M 0 216 
L 576 216 
L 576 0 
L 0 0 
L 0 216 
z
" style="fill: none"/>
  </g>
  <g id="axes_1">
   <g id="PathCollection_1">
    <defs>
     <path id="m23c674fdb7" d="M 0 7.071068 
C 1.875269 7.071068 3.673985 6.326016 5 5 
C 6.326016 3.673985 7.071068 1.875269 7.071068 0 
C 7.071068 -1.875269 6.326016 -3.673985 5 -5 
C 3.673985 -6.326016 1.875269 -7.071068 0 -7.071068 
C -1.875269 -7.071068 -3.673985 -6.326016 -5 -5 
C -6.326016 -3.673985 -7.071068 -1.875269 -7.071068 0 
C -7.071068 1.875269 -6.326016 3.673985 -5 5 
C -3.673985 6.326016 -1.875269 7.071068 0 7.071068 
z
" style="stroke: #008000; stroke-width: 0.5"/>
    </defs>
    <g clip-path="url(#p615f645c98)">
     <use xlink:href="#m23c674fdb7" x="92.290909" y="165.702857" style="fill: #008000; stroke: #008000; stroke-width: 0.5"/>
    </g>
   </g>
   <g id="PathCollection_2">
    <g clip-path="url(#p615f645c98)">
     <use xlink:href="#m23c674fdb7" x="173.454545" y="165.702857" style="fill: #008000; stroke: #008000; stroke-width: 0.5"/>
    </g>
   </g>
   <g id="PathCollection_3">
    <g clip-path="url(#p615f645c98)">
     <use xlink:href="#m23c674fdb7" x="254.618182" y="165.702857" style="fill: #008000; stroke: #008000; stroke-width: 0.5"/>
    </g>
   </g>
   <g id="PathCollection_4">
    <g clip-path="url(#p615f645c98)">
     <use xlink:href="#m23c674fdb7" x="335.781818" y="165.702857" style="fill: #008000; stroke: #008000; stroke-width: 0.5"/>
    </g>
   </g>
   <g id="PathCollection_5">
    <g clip-path="url(#p615f645c98)">
     <use xlink:href="#m23c674fdb7" x="416.945455" y="165.702857" style="fill: #008000; stroke: #008000; stroke-width: 0.5"/>
    </g>
   </g>
   <g id="PathCollection_6">
    <g clip-path="url(#p615f645c98)">
     <use xlink:href="#m23c674fdb7" x="498.109091" y="165.702857" style="fill: #008000; stroke: #008000; stroke-width: 0.5"/>
    </g>
   </g>
   <g id="PathCollection_7">
    <g clip-path="url(#p615f645c98)">
     <use xlink:href="#m23c674fdb7" x="92.290909" y="49.217143" style="fill: #008000; stroke: #008000; stroke-width: 0.5"/>
    </g>
   </g>
   <g id="PathCollection_8">
    <defs>
     <path id="m9ca0722025" d="M 0 7.071068 
C 1.875269 7.071068 3.673985 6.326016 5 5 
C 6.326016 3.673985 7.071068 1.875269 7.071068 0 
C 7.071068 -1.875269 6.326016 -3.673985 5 -5 
C 3.673985 -6.326016 1.875269 -7.071068 0 -7.071068 
C -1.875269 -7.071068 -3.673985 -6.326016 -5 -5 
C -6.326016 -3.673985 -7.071068 -1.875269 -7.071068 0 
C -7.071068 1.875269 -6.326016 3.673985 -5 5 
C -3.673985 6.326016 -1.875269 7.071068 0 7.071068 
z
" style="stroke: #808080; stroke-width: 0.5"/>
    </defs>
    <g clip-path="url(#p615f645c98)">
     <use xlink:href="#m9ca0722025" x="173.454545" y="49.217143" style="fill: #808080; stroke: #808080; stroke-width: 0.5"/>
    </g>
   </g>
   <g id="PathCollection_9">
    <path d="M 173.454545 62.04702 
C 176.702607 62.04702 179.818073 60.756552 182.114799 58.459825 
C 184.411526 56.163099 185.701994 53.047633 185.701994 49.799571 
C 185.701994 46.55151 184.411526 43.436044 182.114799 41.139317 
C 179.818073 38.842591 176.702607 37.552123 173.454545 37.552123 
C 170.206484 37.552123 167.091018 38.842591 164.794291 41.139317 
C 162.497565 43.436044 161.207097 46.55151 161.207097 49.799571 
C 161.207097 53.047633 162.497565 56.163099 164.794291 58.459825 
C 167.091018 60.756552 170.206484 62.04702 173.454545 62.04702 
L 173.454545 62.04702 
z
" clip-path="url(#p615f645c98)" style="fill: none; stroke: #800080; stroke-width: 3"/>
   </g>
   <g id="PathCollection_10">
    <g clip-path="url(#p615f645c98)">
     <use xlink:href="#m9ca0722025" x="254.618182" y="49.217143" style="fill: #808080; stroke: #808080; stroke-width: 0.5"/>
    </g>
   </g>
   <g id="PathCollection_11">
    <path d="M 254.618182 62.04702 
C 257.866243 62.04702 260.98171 60.756552 263.278436 58.459825 
C 265.575162 56.163099 266.865631 53.047633 266.865631 49.799571 
C 266.865631 46.55151 265.575162 43.436044 263.278436 41.139317 
C 260.98171 38.842591 257.866243 37.552123 254.618182 37.552123 
C 251.37012 37.552123 248.254654 38.842591 245.957928 41.139317 
C 243.661202 43.436044 242.370733 46.55151 242.370733 49.799571 
C 242.370733 53.047633 243.661202 56.163099 245.957928 58.459825 
C 248.254654 60.756552 251.37012 62.04702 254.618182 62.04702 
L 254.618182 62.04702 
z
" clip-path="url(#p615f645c98)" style="fill: none; stroke: #ffa500; stroke-width: 3"/>
   </g>
   <g id="PathCollection_12">
    <g clip-path="url(#p615f645c98)">
     <use xlink:href="#m9ca0722025" x="335.781818" y="49.217143" style="fill: #808080; stroke: #808080; stroke-width: 0.5"/>
    </g>
   </g>
   <g id="PathCollection_13">
    <path d="M 335.781818 62.04702 
C 339.02988 62.04702 342.145346 60.756552 344.442072 58.459825 
C 346.738798 56.163099 348.029267 53.047633 348.029267 49.799571 
C 348.029267 46.55151 346.738798 43.436044 344.442072 41.139317 
C 342.145346 38.842591 339.02988 37.552123 335.781818 37.552123 
C 332.533757 37.552123 329.41829 38.842591 327.121564 41.139317 
C 324.824838 43.436044 323.534369 46.55151 323.534369 49.799571 
C 323.534369 53.047633 324.824838 56.163099 327.121564 58.459825 
C 329.41829 60.756552 332.533757 62.04702 335.781818 62.04702 
L 335.781818 62.04702 
z
" clip-path="url(#p615f645c98)" style="fill: none; stroke: #ff0000; stroke-width: 3"/>
   </g>
   <g id="PathCollection_14">
    <g clip-path="url(#p615f645c98)">
     <use xlink:href="#m9ca0722025" x="416.945455" y="49.217143" style="fill: #808080; stroke: #808080; stroke-width: 0.5"/>
    </g>
   </g>
   <g id="PathCollection_15">
    <g clip-path="url(#p615f645c98)">
     <use xlink:href="#m9ca0722025" x="498.109091" y="49.217143" style="fill: #808080; stroke: #808080; stroke-width: 0.5"/>
    </g>
   </g>
   <g id="patch_2">
    <path d="M 165.830522 60.15911 
L 160.091386 76.632678 
L 157.250514 72.55547 
L 100.435968 154.09547 
L 100.378577 154.013102 
L 157.193123 72.473102 
L 154.35225 68.395894 
z
" clip-path="url(#p615f645c98)" style="fill: #800080; stroke: #800080; stroke-width: 2; stroke-linejoin: miter"/>
   </g>
   <g id="patch_3">
    <path d="M 173.454545 60.865714 
L 177.512727 78.338571 
L 173.495127 78.338571 
L 173.495127 154.054286 
L 173.413964 154.054286 
L 173.413964 78.338571 
L 169.396364 78.338571 
z
" clip-path="url(#p615f645c98)" style="fill: #800080; stroke: #800080; stroke-width: 2; stroke-linejoin: miter"/>
   </g>
   <g id="patch_4">
    <path d="M 181.078569 60.15911 
L 192.556841 68.395894 
L 189.715968 72.473102 
L 246.530514 154.013102 
L 246.473123 154.09547 
L 189.658577 72.55547 
L 186.817705 76.632678 
z
" clip-path="url(#p615f645c98)" style="fill: #800080; stroke: #800080; stroke-width: 2; stroke-linejoin: miter"/>
   </g>
   <g id="patch_5">
    <path d="M 246.994158 60.15911 
L 241.255022 76.632678 
L 238.41415 72.55547 
L 181.599605 154.09547 
L 181.542213 154.013102 
L 238.356759 72.473102 
L 235.515887 68.395894 
z
" clip-path="url(#p615f645c98)" style="fill: #ffa500; stroke: #ffa500; stroke-width: 2; stroke-linejoin: miter"/>
   </g>
   <g id="patch_6">
    <path d="M 254.618182 60.865714 
L 258.676364 78.338571 
L 254.658764 78.338571 
L 254.658764 154.054286 
L 254.5776 154.054286 
L 254.5776 78.338571 
L 250.56 78.338571 
z
" clip-path="url(#p615f645c98)" style="fill: #ffa500; stroke: #ffa500; stroke-width: 2; stroke-linejoin: miter"/>
   </g>
   <g id="patch_7">
    <path d="M 262.242205 60.15911 
L 273.720477 68.395894 
L 270.879605 72.473102 
L 327.69415 154.013102 
L 327.636759 154.09547 
L 270.822213 72.55547 
L 267.981341 76.632678 
z
" clip-path="url(#p615f645c98)" style="fill: #ffa500; stroke: #ffa500; stroke-width: 2; stroke-linejoin: miter"/>
   </g>
   <g id="patch_8">
    <path d="M 328.157795 60.15911 
L 322.418659 76.632678 
L 319.577787 72.55547 
L 262.763241 154.09547 
L 262.70585 154.013102 
L 319.520395 72.473102 
L 316.679523 68.395894 
z
" clip-path="url(#p615f645c98)" style="fill: #ff0000; stroke: #ff0000; stroke-width: 2; stroke-linejoin: miter"/>
   </g>
   <g id="patch_9">
    <path d="M 335.781818 60.865714 
L 339.84 78.338571 
L 335.8224 78.338571 
L 335.8224 154.054286 
L 335.741236 154.054286 
L 335.741236 78.338571 
L 331.723636 78.338571 
z
" clip-path="url(#p615f645c98)" style="fill: #ff0000; stroke: #ff0000; stroke-width: 2; stroke-linejoin: miter"/>
   </g>
   <g id="patch_10">
    <path d="M 343.405842 60.15911 
L 354.884113 68.395894 
L 352.043241 72.473102 
L 408.857787 154.013102 
L 408.800395 154.09547 
L 351.98585 72.55547 
L 349.144978 76.632678 
z
" clip-path="url(#p615f645c98)" style="fill: #ff0000; stroke: #ff0000; stroke-width: 2; stroke-linejoin: miter"/>
   </g>
   <g id="line2d_1">
    <path d="M 92.290909 165.702857 
L 92.290909 49.217143 
" clip-path="url(#p615f645c98)" style="fill: none; stroke: #008000; stroke-width: 5; stroke-linecap: square"/>
   </g>
   <g id="line2d_2">
    <path d="M 92.290909 165.702857 
L 498.109091 165.702857 
" clip-path="url(#p615f645c98)" style="fill: none; stroke: #008000; stroke-width: 5; stroke-linecap: square"/>
   </g>
  </g>
 </g>
 <defs>
  <clipPath id="p615f645c98">
   <rect x="72" y="25.92" width="446.4" height="163.08"/>
  </clipPath>
 </defs>
</svg>
