<?xml version="1.0" encoding="utf-8" standalone="no"?>
<!DOCTYPE svg PUBLIC "-//W3C//DTD SVG 1.1//EN"
  "http://www.w3.org/Graphics/SVG/1.1/DTD/svg11.dtd">
<svg xmlns:xlink="http://www.w3.org/1999/xlink" width="460.8pt" height="345.6pt" viewBox="0 0 460.8 345.6" xmlns="http://www.w3.org/2000/svg" version="1.1">
 <metadata>
  <rdf:RDF xmlns:dc="http://purl.org/dc/elements/1.1/" xmlns:cc="http://creativecommons.org/ns#" xmlns:rdf="http://www.w3.org/1999/02/22-rdf-syntax-ns#">
   <cc:Work>
    <dc:type rdf:resource="http://purl.org/dc/dcmitype/StillImage"/>
    <dc:date>2025-01-18T14:49:46.886136</dc:date>
    <dc:format>image/svg+xml</dc:format>
    <dc:creator>
     <cc:Agent>
      <dc:title>Matplotlib v3.9.1, https://matplotlib.org/</dc:title>
     </cc:Agent>
    </dc:creator>
   </cc:Work>
  </rdf:RDF>
 </metadata>
 <defs>
  <style type="text/css">*{stroke-linejoin: round; stroke-linecap: butt}</style>
 </defs>
 <g id="figure_1">
  <g id="patch_1">
   <path d="M 0 345.6 
L 460.8 345.6 
L 460.8 0 
L 0 0 
z
"/>
  </g>
  <g id="axes_1">
   <g id="patch_2">
    <path d="M 57.6 307.584 
L 414.72 307.584 
L 414.72 41.472 
L 57.6 41.472 
z
"/>
   </g>
   <g id="matplotlib.axis_1">
    <g id="xtick_1">
     <g id="line2d_1">
      <path d="M 73.832727 307.584 
L 73.832727 41.472 
" clip-path="url(#p5ec101e65e)" style="fill: none; stroke-dasharray: 1.85,0.8; stroke-dashoffset: 0; stroke: #ffffff; stroke-width: 0.5"/>
     </g>
     <g id="line2d_2">
      <defs>
       <path id="m13275e8b53" d="M 0 0 
L 0 -3.5 
" style="stroke: #ffffff; stroke-width: 0.8"/>
      </defs>
      <g>
       <use xlink:href="#m13275e8b53" x="73.832727" y="307.584" style="fill: #ffffff; stroke: #ffffff; stroke-width: 0.8"/>
      </g>
     </g>
     <g id="text_1">
      <!-- 0.0 -->
      <g style="fill: #ffffff" transform="translate(65.881165 318.682437) scale(0.1 -0.1)">
       <defs>
        <path id="DejaVuSans-30" d="M 2034 4250 
Q 1547 4250 1301 3770 
Q 1056 3291 1056 2328 
Q 1056 1369 1301 889 
Q 1547 409 2034 409 
Q 2525 409 2770 889 
Q 3016 1369 3016 2328 
Q 3016 3291 2770 3770 
Q 2525 4250 2034 4250 
z
M 2034 4750 
Q 2819 4750 3233 4129 
Q 3647 3509 3647 2328 
Q 3647 1150 3233 529 
Q 2819 -91 2034 -91 
Q 1250 -91 836 529 
Q 422 1150 422 2328 
Q 422 3509 836 4129 
Q 1250 4750 2034 4750 
z
" transform="scale(0.015625)"/>
        <path id="DejaVuSans-2e" d="M 684 794 
L 1344 794 
L 1344 0 
L 684 0 
L 684 794 
z
" transform="scale(0.015625)"/>
       </defs>
       <use xlink:href="#DejaVuSans-30"/>
       <use xlink:href="#DejaVuSans-2e" x="63.623047"/>
       <use xlink:href="#DejaVuSans-30" x="95.410156"/>
      </g>
     </g>
    </g>
    <g id="xtick_2">
     <g id="line2d_3">
      <path d="M 117.12 307.584 
L 117.12 41.472 
" clip-path="url(#p5ec101e65e)" style="fill: none; stroke-dasharray: 1.85,0.8; stroke-dashoffset: 0; stroke: #ffffff; stroke-width: 0.5"/>
     </g>
     <g id="line2d_4">
      <g>
       <use xlink:href="#m13275e8b53" x="117.12" y="307.584" style="fill: #ffffff; stroke: #ffffff; stroke-width: 0.8"/>
      </g>
     </g>
     <g id="text_2">
      <!-- 0.2 -->
      <g style="fill: #ffffff" transform="translate(109.168438 318.682437) scale(0.1 -0.1)">
       <defs>
        <path id="DejaVuSans-32" d="M 1228 531 
L 3431 531 
L 3431 0 
L 469 0 
L 469 531 
Q 828 903 1448 1529 
Q 2069 2156 2228 2338 
Q 2531 2678 2651 2914 
Q 2772 3150 2772 3378 
Q 2772 3750 2511 3984 
Q 2250 4219 1831 4219 
Q 1534 4219 1204 4116 
Q 875 4013 500 3803 
L 500 4441 
Q 881 4594 1212 4672 
Q 1544 4750 1819 4750 
Q 2544 4750 2975 4387 
Q 3406 4025 3406 3419 
Q 3406 3131 3298 2873 
Q 3191 2616 2906 2266 
Q 2828 2175 2409 1742 
Q 1991 1309 1228 531 
z
" transform="scale(0.015625)"/>
       </defs>
       <use xlink:href="#DejaVuSans-30"/>
       <use xlink:href="#DejaVuSans-2e" x="63.623047"/>
       <use xlink:href="#DejaVuSans-32" x="95.410156"/>
      </g>
     </g>
    </g>
    <g id="xtick_3">
     <g id="line2d_5">
      <path d="M 160.407273 307.584 
L 160.407273 41.472 
" clip-path="url(#p5ec101e65e)" style="fill: none; stroke-dasharray: 1.85,0.8; stroke-dashoffset: 0; stroke: #ffffff; stroke-width: 0.5"/>
     </g>
     <g id="line2d_6">
      <g>
       <use xlink:href="#m13275e8b53" x="160.407273" y="307.584" style="fill: #ffffff; stroke: #ffffff; stroke-width: 0.8"/>
      </g>
     </g>
     <g id="text_3">
      <!-- 0.4 -->
      <g style="fill: #ffffff" transform="translate(152.45571 318.682437) scale(0.1 -0.1)">
       <defs>
        <path id="DejaVuSans-34" d="M 2419 4116 
L 825 1625 
L 2419 1625 
L 2419 4116 
z
M 2253 4666 
L 3047 4666 
L 3047 1625 
L 3713 1625 
L 3713 1100 
L 3047 1100 
L 3047 0 
L 2419 0 
L 2419 1100 
L 313 1100 
L 313 1709 
L 2253 4666 
z
" transform="scale(0.015625)"/>
       </defs>
       <use xlink:href="#DejaVuSans-30"/>
       <use xlink:href="#DejaVuSans-2e" x="63.623047"/>
       <use xlink:href="#DejaVuSans-34" x="95.410156"/>
      </g>
     </g>
    </g>
    <g id="xtick_4">
     <g id="line2d_7">
      <path d="M 203.694545 307.584 
L 203.694545 41.472 
" clip-path="url(#p5ec101e65e)" style="fill: none; stroke-dasharray: 1.85,0.8; stroke-dashoffset: 0; stroke: #ffffff; stroke-width: 0.5"/>
     </g>
     <g id="line2d_8">
      <g>
       <use xlink:href="#m13275e8b53" x="203.694545" y="307.584" style="fill: #ffffff; stroke: #ffffff; stroke-width: 0.8"/>
      </g>
     </g>
     <g id="text_4">
      <!-- 0.6 -->
      <g style="fill: #ffffff" transform="translate(195.742983 318.682437) scale(0.1 -0.1)">
       <defs>
        <path id="DejaVuSans-36" d="M 2113 2584 
Q 1688 2584 1439 2293 
Q 1191 2003 1191 1497 
Q 1191 994 1439 701 
Q 1688 409 2113 409 
Q 2538 409 2786 701 
Q 3034 994 3034 1497 
Q 3034 2003 2786 2293 
Q 2538 2584 2113 2584 
z
M 3366 4563 
L 3366 3988 
Q 3128 4100 2886 4159 
Q 2644 4219 2406 4219 
Q 1781 4219 1451 3797 
Q 1122 3375 1075 2522 
Q 1259 2794 1537 2939 
Q 1816 3084 2150 3084 
Q 2853 3084 3261 2657 
Q 3669 2231 3669 1497 
Q 3669 778 3244 343 
Q 2819 -91 2113 -91 
Q 1303 -91 875 529 
Q 447 1150 447 2328 
Q 447 3434 972 4092 
Q 1497 4750 2381 4750 
Q 2619 4750 2861 4703 
Q 3103 4656 3366 4563 
z
" transform="scale(0.015625)"/>
       </defs>
       <use xlink:href="#DejaVuSans-30"/>
       <use xlink:href="#DejaVuSans-2e" x="63.623047"/>
       <use xlink:href="#DejaVuSans-36" x="95.410156"/>
      </g>
     </g>
    </g>
    <g id="xtick_5">
     <g id="line2d_9">
      <path d="M 246.981818 307.584 
L 246.981818 41.472 
" clip-path="url(#p5ec101e65e)" style="fill: none; stroke-dasharray: 1.85,0.8; stroke-dashoffset: 0; stroke: #ffffff; stroke-width: 0.5"/>
     </g>
     <g id="line2d_10">
      <g>
       <use xlink:href="#m13275e8b53" x="246.981818" y="307.584" style="fill: #ffffff; stroke: #ffffff; stroke-width: 0.8"/>
      </g>
     </g>
     <g id="text_5">
      <!-- 0.8 -->
      <g style="fill: #ffffff" transform="translate(239.030256 318.682437) scale(0.1 -0.1)">
       <defs>
        <path id="DejaVuSans-38" d="M 2034 2216 
Q 1584 2216 1326 1975 
Q 1069 1734 1069 1313 
Q 1069 891 1326 650 
Q 1584 409 2034 409 
Q 2484 409 2743 651 
Q 3003 894 3003 1313 
Q 3003 1734 2745 1975 
Q 2488 2216 2034 2216 
z
M 1403 2484 
Q 997 2584 770 2862 
Q 544 3141 544 3541 
Q 544 4100 942 4425 
Q 1341 4750 2034 4750 
Q 2731 4750 3128 4425 
Q 3525 4100 3525 3541 
Q 3525 3141 3298 2862 
Q 3072 2584 2669 2484 
Q 3125 2378 3379 2068 
Q 3634 1759 3634 1313 
Q 3634 634 3220 271 
Q 2806 -91 2034 -91 
Q 1263 -91 848 271 
Q 434 634 434 1313 
Q 434 1759 690 2068 
Q 947 2378 1403 2484 
z
M 1172 3481 
Q 1172 3119 1398 2916 
Q 1625 2713 2034 2713 
Q 2441 2713 2670 2916 
Q 2900 3119 2900 3481 
Q 2900 3844 2670 4047 
Q 2441 4250 2034 4250 
Q 1625 4250 1398 4047 
Q 1172 3844 1172 3481 
z
" transform="scale(0.015625)"/>
       </defs>
       <use xlink:href="#DejaVuSans-30"/>
       <use xlink:href="#DejaVuSans-2e" x="63.623047"/>
       <use xlink:href="#DejaVuSans-38" x="95.410156"/>
      </g>
     </g>
    </g>
    <g id="xtick_6">
     <g id="line2d_11">
      <path d="M 290.269091 307.584 
L 290.269091 41.472 
" clip-path="url(#p5ec101e65e)" style="fill: none; stroke-dasharray: 1.85,0.8; stroke-dashoffset: 0; stroke: #ffffff; stroke-width: 0.5"/>
     </g>
     <g id="line2d_12">
      <g>
       <use xlink:href="#m13275e8b53" x="290.269091" y="307.584" style="fill: #ffffff; stroke: #ffffff; stroke-width: 0.8"/>
      </g>
     </g>
     <g id="text_6">
      <!-- 1.0 -->
      <g style="fill: #ffffff" transform="translate(282.317528 318.682437) scale(0.1 -0.1)">
       <defs>
        <path id="DejaVuSans-31" d="M 794 531 
L 1825 531 
L 1825 4091 
L 703 3866 
L 703 4441 
L 1819 4666 
L 2450 4666 
L 2450 531 
L 3481 531 
L 3481 0 
L 794 0 
L 794 531 
z
" transform="scale(0.015625)"/>
       </defs>
       <use xlink:href="#DejaVuSans-31"/>
       <use xlink:href="#DejaVuSans-2e" x="63.623047"/>
       <use xlink:href="#DejaVuSans-30" x="95.410156"/>
      </g>
     </g>
    </g>
    <g id="xtick_7">
     <g id="line2d_13">
      <path d="M 333.556364 307.584 
L 333.556364 41.472 
" clip-path="url(#p5ec101e65e)" style="fill: none; stroke-dasharray: 1.85,0.8; stroke-dashoffset: 0; stroke: #ffffff; stroke-width: 0.5"/>
     </g>
     <g id="line2d_14">
      <g>
       <use xlink:href="#m13275e8b53" x="333.556364" y="307.584" style="fill: #ffffff; stroke: #ffffff; stroke-width: 0.8"/>
      </g>
     </g>
     <g id="text_7">
      <!-- 1.2 -->
      <g style="fill: #ffffff" transform="translate(325.604801 318.682437) scale(0.1 -0.1)">
       <use xlink:href="#DejaVuSans-31"/>
       <use xlink:href="#DejaVuSans-2e" x="63.623047"/>
       <use xlink:href="#DejaVuSans-32" x="95.410156"/>
      </g>
     </g>
    </g>
    <g id="xtick_8">
     <g id="line2d_15">
      <path d="M 376.843636 307.584 
L 376.843636 41.472 
" clip-path="url(#p5ec101e65e)" style="fill: none; stroke-dasharray: 1.85,0.8; stroke-dashoffset: 0; stroke: #ffffff; stroke-width: 0.5"/>
     </g>
     <g id="line2d_16">
      <g>
       <use xlink:href="#m13275e8b53" x="376.843636" y="307.584" style="fill: #ffffff; stroke: #ffffff; stroke-width: 0.8"/>
      </g>
     </g>
     <g id="text_8">
      <!-- 1.4 -->
      <g style="fill: #ffffff" transform="translate(368.892074 318.682437) scale(0.1 -0.1)">
       <use xlink:href="#DejaVuSans-31"/>
       <use xlink:href="#DejaVuSans-2e" x="63.623047"/>
       <use xlink:href="#DejaVuSans-34" x="95.410156"/>
      </g>
     </g>
    </g>
   </g>
   <g id="matplotlib.axis_2">
    <g id="ytick_1">
     <g id="line2d_17">
      <path d="M 57.6 295.488 
L 414.72 295.488 
" clip-path="url(#p5ec101e65e)" style="fill: none; stroke-dasharray: 1.85,0.8; stroke-dashoffset: 0; stroke: #ffffff; stroke-width: 0.5"/>
     </g>
     <g id="line2d_18">
      <defs>
       <path id="mc909f75829" d="M 0 0 
L 3.5 0 
" style="stroke: #ffffff; stroke-width: 0.8"/>
      </defs>
      <g>
       <use xlink:href="#mc909f75829" x="57.6" y="295.488" style="fill: #ffffff; stroke: #ffffff; stroke-width: 0.8"/>
      </g>
     </g>
     <g id="text_9">
      <!-- −1.0 -->
      <g style="fill: #ffffff" transform="translate(29.817187 299.287219) scale(0.1 -0.1)">
       <defs>
        <path id="DejaVuSans-2212" d="M 678 2272 
L 4684 2272 
L 4684 1741 
L 678 1741 
L 678 2272 
z
" transform="scale(0.015625)"/>
       </defs>
       <use xlink:href="#DejaVuSans-2212"/>
       <use xlink:href="#DejaVuSans-31" x="83.789062"/>
       <use xlink:href="#DejaVuSans-2e" x="147.412109"/>
       <use xlink:href="#DejaVuSans-30" x="179.199219"/>
      </g>
     </g>
    </g>
    <g id="ytick_2">
     <g id="line2d_19">
      <path d="M 57.6 260.201164 
L 414.72 260.201164 
" clip-path="url(#p5ec101e65e)" style="fill: none; stroke-dasharray: 1.85,0.8; stroke-dashoffset: 0; stroke: #ffffff; stroke-width: 0.5"/>
     </g>
     <g id="line2d_20">
      <g>
       <use xlink:href="#mc909f75829" x="57.6" y="260.201164" style="fill: #ffffff; stroke: #ffffff; stroke-width: 0.8"/>
      </g>
     </g>
     <g id="text_10">
      <!-- −0.5 -->
      <g style="fill: #ffffff" transform="translate(29.817187 264.000383) scale(0.1 -0.1)">
       <defs>
        <path id="DejaVuSans-35" d="M 691 4666 
L 3169 4666 
L 3169 4134 
L 1269 4134 
L 1269 2991 
Q 1406 3038 1543 3061 
Q 1681 3084 1819 3084 
Q 2600 3084 3056 2656 
Q 3513 2228 3513 1497 
Q 3513 744 3044 326 
Q 2575 -91 1722 -91 
Q 1428 -91 1123 -41 
Q 819 9 494 109 
L 494 744 
Q 775 591 1075 516 
Q 1375 441 1709 441 
Q 2250 441 2565 725 
Q 2881 1009 2881 1497 
Q 2881 1984 2565 2268 
Q 2250 2553 1709 2553 
Q 1456 2553 1204 2497 
Q 953 2441 691 2322 
L 691 4666 
z
" transform="scale(0.015625)"/>
       </defs>
       <use xlink:href="#DejaVuSans-2212"/>
       <use xlink:href="#DejaVuSans-30" x="83.789062"/>
       <use xlink:href="#DejaVuSans-2e" x="147.412109"/>
       <use xlink:href="#DejaVuSans-35" x="179.199219"/>
      </g>
     </g>
    </g>
    <g id="ytick_3">
     <g id="line2d_21">
      <path d="M 57.6 224.914328 
L 414.72 224.914328 
" clip-path="url(#p5ec101e65e)" style="fill: none; stroke-dasharray: 1.85,0.8; stroke-dashoffset: 0; stroke: #ffffff; stroke-width: 0.5"/>
     </g>
     <g id="line2d_22">
      <g>
       <use xlink:href="#mc909f75829" x="57.6" y="224.914328" style="fill: #ffffff; stroke: #ffffff; stroke-width: 0.8"/>
      </g>
     </g>
     <g id="text_11">
      <!-- 0.0 -->
      <g style="fill: #ffffff" transform="translate(38.196875 228.713546) scale(0.1 -0.1)">
       <use xlink:href="#DejaVuSans-30"/>
       <use xlink:href="#DejaVuSans-2e" x="63.623047"/>
       <use xlink:href="#DejaVuSans-30" x="95.410156"/>
      </g>
     </g>
    </g>
    <g id="ytick_4">
     <g id="line2d_23">
      <path d="M 57.6 189.627492 
L 414.72 189.627492 
" clip-path="url(#p5ec101e65e)" style="fill: none; stroke-dasharray: 1.85,0.8; stroke-dashoffset: 0; stroke: #ffffff; stroke-width: 0.5"/>
     </g>
     <g id="line2d_24">
      <g>
       <use xlink:href="#mc909f75829" x="57.6" y="189.627492" style="fill: #ffffff; stroke: #ffffff; stroke-width: 0.8"/>
      </g>
     </g>
     <g id="text_12">
      <!-- 0.5 -->
      <g style="fill: #ffffff" transform="translate(38.196875 193.42671) scale(0.1 -0.1)">
       <use xlink:href="#DejaVuSans-30"/>
       <use xlink:href="#DejaVuSans-2e" x="63.623047"/>
       <use xlink:href="#DejaVuSans-35" x="95.410156"/>
      </g>
     </g>
    </g>
    <g id="ytick_5">
     <g id="line2d_25">
      <path d="M 57.6 154.340655 
L 414.72 154.340655 
" clip-path="url(#p5ec101e65e)" style="fill: none; stroke-dasharray: 1.85,0.8; stroke-dashoffset: 0; stroke: #ffffff; stroke-width: 0.5"/>
     </g>
     <g id="line2d_26">
      <g>
       <use xlink:href="#mc909f75829" x="57.6" y="154.340655" style="fill: #ffffff; stroke: #ffffff; stroke-width: 0.8"/>
      </g>
     </g>
     <g id="text_13">
      <!-- 1.0 -->
      <g style="fill: #ffffff" transform="translate(38.196875 158.139874) scale(0.1 -0.1)">
       <use xlink:href="#DejaVuSans-31"/>
       <use xlink:href="#DejaVuSans-2e" x="63.623047"/>
       <use xlink:href="#DejaVuSans-30" x="95.410156"/>
      </g>
     </g>
    </g>
    <g id="ytick_6">
     <g id="line2d_27">
      <path d="M 57.6 119.053819 
L 414.72 119.053819 
" clip-path="url(#p5ec101e65e)" style="fill: none; stroke-dasharray: 1.85,0.8; stroke-dashoffset: 0; stroke: #ffffff; stroke-width: 0.5"/>
     </g>
     <g id="line2d_28">
      <g>
       <use xlink:href="#mc909f75829" x="57.6" y="119.053819" style="fill: #ffffff; stroke: #ffffff; stroke-width: 0.8"/>
      </g>
     </g>
     <g id="text_14">
      <!-- 1.5 -->
      <g style="fill: #ffffff" transform="translate(38.196875 122.853038) scale(0.1 -0.1)">
       <use xlink:href="#DejaVuSans-31"/>
       <use xlink:href="#DejaVuSans-2e" x="63.623047"/>
       <use xlink:href="#DejaVuSans-35" x="95.410156"/>
      </g>
     </g>
    </g>
    <g id="ytick_7">
     <g id="line2d_29">
      <path d="M 57.6 83.766983 
L 414.72 83.766983 
" clip-path="url(#p5ec101e65e)" style="fill: none; stroke-dasharray: 1.85,0.8; stroke-dashoffset: 0; stroke: #ffffff; stroke-width: 0.5"/>
     </g>
     <g id="line2d_30">
      <g>
       <use xlink:href="#mc909f75829" x="57.6" y="83.766983" style="fill: #ffffff; stroke: #ffffff; stroke-width: 0.8"/>
      </g>
     </g>
     <g id="text_15">
      <!-- 2.0 -->
      <g style="fill: #ffffff" transform="translate(38.196875 87.566202) scale(0.1 -0.1)">
       <use xlink:href="#DejaVuSans-32"/>
       <use xlink:href="#DejaVuSans-2e" x="63.623047"/>
       <use xlink:href="#DejaVuSans-30" x="95.410156"/>
      </g>
     </g>
    </g>
    <g id="ytick_8">
     <g id="line2d_31">
      <path d="M 57.6 48.480147 
L 414.72 48.480147 
" clip-path="url(#p5ec101e65e)" style="fill: none; stroke-dasharray: 1.85,0.8; stroke-dashoffset: 0; stroke: #ffffff; stroke-width: 0.5"/>
     </g>
     <g id="line2d_32">
      <g>
       <use xlink:href="#mc909f75829" x="57.6" y="48.480147" style="fill: #ffffff; stroke: #ffffff; stroke-width: 0.8"/>
      </g>
     </g>
     <g id="text_16">
      <!-- 2.5 -->
      <g style="fill: #ffffff" transform="translate(38.196875 52.279366) scale(0.1 -0.1)">
       <use xlink:href="#DejaVuSans-32"/>
       <use xlink:href="#DejaVuSans-2e" x="63.623047"/>
       <use xlink:href="#DejaVuSans-35" x="95.410156"/>
      </g>
     </g>
    </g>
   </g>
   <g id="line2d_33">
    <path d="M 73.832727 154.340655 
L 398.487273 154.340655 
" clip-path="url(#p5ec101e65e)" style="fill: none; stroke: #008000; stroke-width: 1.5; stroke-linecap: square"/>
   </g>
   <g id="line2d_34">
    <path d="M 73.832727 295.488 
L 398.487273 295.488 
" clip-path="url(#p5ec101e65e)" style="fill: none; stroke: #008000; stroke-width: 1.5; stroke-linecap: square"/>
   </g>
   <g id="line2d_35">
    <path d="M 73.832727 224.914328 
L 74.373818 225.23879 
L 74.914909 230.402491 
L 75.456 226.585191 
L 75.997091 227.429694 
L 76.538182 229.162733 
L 77.079273 232.699434 
L 77.620364 229.457203 
L 78.161455 233.351572 
L 78.702545 231.140875 
L 79.243636 233.122279 
L 79.784727 233.020459 
L 80.325818 233.834763 
L 80.866909 231.760771 
L 81.408 229.106081 
L 81.949091 232.841201 
L 82.490182 229.115009 
L 83.031273 226.476435 
L 83.572364 222.719528 
L 84.113455 217.355471 
L 84.654545 222.60828 
L 85.195636 216.044964 
L 85.736727 221.685964 
L 86.277818 223.965753 
L 86.818909 222.77544 
L 87.36 219.081866 
L 87.901091 216.861818 
L 88.442182 215.580697 
L 88.983273 213.619632 
L 89.524364 217.460779 
L 90.065455 217.377168 
L 90.606545 208.558364 
L 91.147636 217.344894 
L 91.688727 218.173649 
L 92.229818 218.517919 
L 92.770909 221.646201 
L 93.312 222.128619 
L 93.853091 221.768767 
L 94.394182 222.654218 
L 94.935273 222.932322 
L 95.476364 226.761523 
L 96.017455 224.662209 
L 96.558545 226.916713 
L 97.099636 230.825919 
L 97.640727 223.393997 
L 98.722909 227.08972 
L 99.264 233.876189 
L 99.805091 232.466168 
L 100.346182 236.164877 
L 100.887273 238.613355 
L 101.428364 235.983289 
L 101.969455 234.088704 
L 102.510545 236.674247 
L 103.051636 234.713303 
L 103.592727 233.18789 
L 104.133818 233.6671 
L 104.674909 236.987965 
L 105.216 235.277375 
L 105.757091 240.686217 
L 106.298182 239.257174 
L 106.839273 239.211915 
L 107.921455 247.274253 
L 108.462545 238.395303 
L 109.003636 245.590389 
L 109.544727 245.256973 
L 110.085818 246.367885 
L 110.626909 244.63772 
L 111.168 243.385121 
L 112.250182 237.34725 
L 112.791273 237.306657 
L 113.332364 242.162327 
L 113.873455 243.120558 
L 114.955636 239.317433 
L 115.496727 235.224167 
L 116.037818 235.806418 
L 116.578909 239.968156 
L 117.12 241.892344 
L 117.661091 240.937825 
L 119.284364 231.165905 
L 119.825455 235.571789 
L 120.366545 237.067364 
L 120.907636 235.117384 
L 121.448727 233.954318 
L 121.989818 230.908647 
L 122.530909 235.239675 
L 123.072 233.034693 
L 123.613091 242.807498 
L 124.154182 244.544237 
L 124.695273 244.300235 
L 125.236364 245.535283 
L 125.777455 242.467639 
L 126.318545 243.232532 
L 126.859636 243.172126 
L 127.400727 240.738346 
L 127.941818 243.854678 
L 128.482909 238.571364 
L 129.024 240.852815 
L 129.565091 238.719757 
L 130.106182 237.961266 
L 130.647273 239.456018 
L 131.188364 239.087556 
L 131.729455 237.988117 
L 132.270545 239.636235 
L 132.811636 231.871194 
L 133.352727 235.448354 
L 133.893818 235.444179 
L 134.434909 231.46279 
L 134.976 229.67032 
L 135.517091 225.860962 
L 136.058182 231.268581 
L 136.599273 232.09475 
L 137.140364 231.95763 
L 137.681455 227.517053 
L 138.222545 230.415299 
L 138.763636 230.611032 
L 139.304727 223.977088 
L 140.386909 221.093503 
L 140.928 221.31756 
L 141.469091 217.121845 
L 142.010182 223.72441 
L 142.551273 226.600529 
L 143.092364 228.5976 
L 143.633455 228.145443 
L 144.174545 228.134858 
L 144.715636 235.6545 
L 145.256727 235.263019 
L 145.797818 238.273803 
L 146.338909 228.297291 
L 146.88 229.255005 
L 147.421091 225.518799 
L 147.962182 227.476637 
L 148.503273 228.340989 
L 149.044364 231.351291 
L 149.585455 228.357864 
L 150.126545 223.68019 
L 150.667636 228.145403 
L 151.208727 226.318787 
L 151.749818 223.56075 
L 152.290909 218.661583 
L 152.832 220.329718 
L 153.373091 214.725796 
L 153.914182 218.560045 
L 154.455273 217.289933 
L 154.996364 218.451933 
L 155.537455 218.925844 
L 156.078545 214.493379 
L 156.619636 212.034756 
L 157.160727 201.182653 
L 157.701818 200.869142 
L 158.242909 202.921696 
L 158.784 198.150631 
L 159.325091 196.660567 
L 159.866182 197.641252 
L 160.948364 186.635443 
L 161.489455 191.262621 
L 162.030545 191.994052 
L 162.571636 187.181225 
L 163.112727 189.269672 
L 163.653818 182.651773 
L 164.194909 182.497719 
L 164.736 180.391785 
L 165.277091 179.155346 
L 165.818182 182.421671 
L 166.359273 182.385078 
L 166.900364 184.258816 
L 167.441455 185.135507 
L 167.982545 180.691239 
L 168.523636 177.733014 
L 169.064727 177.951716 
L 169.605818 176.367942 
L 170.146909 170.377833 
L 170.688 169.895219 
L 171.229091 170.737851 
L 171.770182 167.542498 
L 172.311273 168.962644 
L 172.852364 172.752516 
L 173.393455 165.502034 
L 173.934545 168.887713 
L 174.475636 167.758465 
L 175.016727 165.633168 
L 175.557818 166.186507 
L 176.64 151.418078 
L 177.181091 153.510021 
L 177.722182 148.614976 
L 178.263273 150.577385 
L 178.804364 144.915339 
L 179.345455 147.499083 
L 179.886545 151.101048 
L 180.427636 152.806853 
L 180.968727 157.896818 
L 181.509818 159.12954 
L 182.050909 156.370981 
L 182.592 155.262827 
L 183.133091 159.689183 
L 183.674182 152.22932 
L 184.215273 153.437281 
L 184.756364 149.053527 
L 185.297455 157.454972 
L 185.838545 152.051177 
L 186.379636 143.768143 
L 187.461818 150.013317 
L 188.002909 147.08182 
L 188.544 146.103368 
L 189.085091 140.746841 
L 189.626182 139.562216 
L 190.167273 142.078145 
L 190.708364 142.630063 
L 191.249455 141.914469 
L 191.790545 139.273854 
L 192.331636 142.935414 
L 193.413818 154.309598 
L 193.954909 149.474254 
L 194.496 150.1859 
L 195.037091 147.259748 
L 195.578182 146.146672 
L 196.119273 147.836656 
L 196.660364 157.886345 
L 197.201455 159.289119 
L 197.742545 159.617452 
L 198.283636 158.067269 
L 198.824727 160.541521 
L 199.365818 154.899854 
L 199.906909 157.829983 
L 200.448 161.411476 
L 200.989091 158.33549 
L 201.530182 164.555013 
L 202.071273 173.264037 
L 202.612364 170.80914 
L 203.153455 174.098523 
L 203.694545 172.728914 
L 204.235636 170.578987 
L 204.776727 174.015913 
L 205.317818 175.653773 
L 206.4 166.117876 
L 206.941091 167.251144 
L 208.023273 158.011225 
L 208.564364 157.398705 
L 209.105455 155.963661 
L 209.646545 157.722468 
L 210.187636 165.385657 
L 210.728727 161.104473 
L 211.269818 166.907141 
L 211.810909 162.206725 
L 212.352 162.747978 
L 212.893091 167.013011 
L 213.434182 176.135493 
L 213.975273 170.332468 
L 214.516364 176.945902 
L 215.057455 176.985522 
L 215.598545 177.957261 
L 216.139636 180.36159 
L 216.680727 187.713594 
L 217.221818 197.047511 
L 217.762909 198.973177 
L 218.304 197.174521 
L 218.845091 194.701697 
L 219.386182 186.973863 
L 219.927273 181.552121 
L 220.468364 185.779975 
L 221.009455 179.742604 
L 221.550545 175.432008 
L 222.091636 173.522645 
L 222.632727 171.130671 
L 224.256 162.464897 
L 224.797091 167.969648 
L 225.338182 170.78386 
L 225.879273 171.497168 
L 226.420364 169.1262 
L 226.961455 169.817209 
L 227.502545 171.074264 
L 228.043636 168.155037 
L 228.584727 164.180573 
L 229.125818 165.317487 
L 230.208 160.158267 
L 230.749091 160.187011 
L 231.290182 160.038427 
L 231.831273 156.492145 
L 232.372364 162.502691 
L 232.913455 163.728746 
L 233.454545 163.17575 
L 233.995636 165.956809 
L 234.536727 171.146418 
L 235.077818 171.324749 
L 235.618909 162.01894 
L 236.16 157.61003 
L 236.701091 157.41986 
L 237.242182 157.982234 
L 237.783273 163.233997 
L 238.324364 165.193301 
L 238.865455 164.271921 
L 239.406545 167.412173 
L 239.947636 165.217308 
L 240.488727 168.909992 
L 241.029818 163.317878 
L 241.570909 169.132968 
L 242.112 168.658477 
L 242.653091 171.922277 
L 243.194182 171.19144 
L 243.735273 166.214422 
L 244.276364 165.539581 
L 244.817455 165.808005 
L 245.358545 166.789077 
L 245.899636 167.339473 
L 246.440727 168.955212 
L 246.981818 167.031152 
L 247.522909 160.953243 
L 248.064 159.423054 
L 248.605091 154.483314 
L 249.146182 153.874521 
L 249.687273 152.905204 
L 250.228364 153.214366 
L 250.769455 151.368933 
L 252.392727 158.610887 
L 252.933818 160.119892 
L 253.474909 163.009391 
L 254.016 166.558959 
L 254.557091 167.067435 
L 255.098182 159.244741 
L 255.639273 157.130468 
L 256.180364 163.123393 
L 256.721455 155.433064 
L 257.262545 156.036 
L 257.803636 154.089682 
L 258.344727 159.657683 
L 258.885818 161.319866 
L 259.426909 160.575213 
L 259.968 160.870292 
L 260.509091 155.044575 
L 261.050182 162.524524 
L 261.591273 165.405063 
L 262.132364 162.399234 
L 262.673455 160.582962 
L 263.214545 162.898942 
L 263.755636 160.709945 
L 264.296727 157.944672 
L 264.837818 161.336109 
L 265.378909 161.195206 
L 265.92 162.988054 
L 266.461091 166.70502 
L 267.002182 164.093675 
L 267.543273 170.104832 
L 268.084364 173.872647 
L 268.625455 170.493939 
L 269.166545 166.205149 
L 269.707636 167.034232 
L 270.248727 168.588467 
L 270.789818 166.357175 
L 271.872 165.398524 
L 272.413091 164.53055 
L 272.954182 166.290402 
L 273.495273 172.249689 
L 274.036364 179.480139 
L 274.577455 177.044841 
L 275.118545 177.322871 
L 275.659636 175.633554 
L 276.200727 175.842561 
L 276.741818 174.845187 
L 277.282909 180.192773 
L 277.824 184.077706 
L 278.365091 182.442926 
L 278.906182 187.754128 
L 279.447273 185.755694 
L 279.988364 186.723869 
L 280.529455 189.285435 
L 281.070545 188.469779 
L 281.611636 186.254355 
L 282.152727 187.919582 
L 282.693818 191.295497 
L 283.234909 191.267492 
L 283.776 198.146514 
L 284.317091 201.189249 
L 284.858182 199.758049 
L 285.399273 202.878403 
L 285.940364 202.273377 
L 286.481455 204.423738 
L 287.563636 209.691844 
L 288.104727 215.854502 
L 288.645818 217.094647 
L 289.186909 219.41322 
L 289.728 218.894117 
L 290.269091 214.021932 
L 290.810182 212.459711 
L 291.351273 213.351055 
L 291.892364 204.561561 
L 292.974545 207.923261 
L 293.515636 212.303819 
L 294.056727 214.051764 
L 294.597818 218.385494 
L 295.138909 218.733586 
L 295.68 217.5111 
L 296.221091 219.766481 
L 296.762182 216.365349 
L 297.303273 221.446722 
L 297.844364 217.56727 
L 298.385455 223.044584 
L 299.467636 219.76647 
L 300.008727 216.174888 
L 300.549818 215.599883 
L 301.090909 216.176952 
L 302.173091 204.877974 
L 302.714182 204.899475 
L 303.255273 199.698667 
L 303.796364 202.028128 
L 304.337455 206.314207 
L 304.878545 204.483186 
L 305.419636 216.007098 
L 305.960727 215.977313 
L 306.501818 212.183985 
L 307.042909 218.91058 
L 307.584 220.623922 
L 308.125091 218.812497 
L 308.666182 218.677725 
L 309.748364 229.572255 
L 310.289455 229.525855 
L 310.830545 225.759505 
L 311.371636 223.860473 
L 311.912727 226.401204 
L 312.453818 226.604698 
L 313.536 229.21675 
L 314.077091 234.919746 
L 314.618182 233.777764 
L 315.159273 233.364113 
L 315.700364 225.847989 
L 316.241455 225.335663 
L 316.782545 219.060965 
L 317.323636 216.330696 
L 317.864727 216.611779 
L 318.405818 214.434044 
L 318.946909 214.00068 
L 319.488 205.947028 
L 320.029091 204.454585 
L 320.570182 205.068177 
L 321.111273 205.106438 
L 321.652364 206.576381 
L 322.193455 204.050341 
L 322.734545 206.473434 
L 323.275636 204.466343 
L 323.816727 203.501533 
L 324.357818 207.077071 
L 324.898909 212.244692 
L 325.44 215.300854 
L 325.981091 211.359269 
L 326.522182 210.227657 
L 327.063273 208.542793 
L 327.604364 208.92094 
L 328.145455 214.717595 
L 328.686545 218.906045 
L 329.227636 214.685838 
L 329.768727 215.991026 
L 330.309818 216.994916 
L 330.850909 214.71056 
L 331.392 213.419154 
L 331.933091 217.705351 
L 333.015273 216.811431 
L 333.556364 215.302682 
L 334.097455 203.327854 
L 334.638545 203.85521 
L 335.179636 207.258397 
L 336.261818 223.309623 
L 336.802909 219.966381 
L 337.344 220.117687 
L 337.885091 218.394588 
L 338.426182 219.637142 
L 338.967273 216.022142 
L 339.508364 217.224223 
L 340.590545 222.202632 
L 341.131636 223.814393 
L 341.672727 227.650484 
L 342.213818 227.062602 
L 342.754909 225.725374 
L 343.296 225.681923 
L 343.837091 224.800722 
L 344.378182 226.334447 
L 344.919273 230.269886 
L 345.460364 230.03334 
L 346.542545 218.267293 
L 347.083636 219.92576 
L 348.165818 224.245142 
L 348.706909 215.014735 
L 349.248 217.948528 
L 349.789091 227.915339 
L 350.330182 227.982392 
L 350.871273 227.336488 
L 351.412364 231.488484 
L 351.953455 229.054128 
L 352.494545 225.442437 
L 353.035636 229.865004 
L 353.576727 226.644236 
L 354.117818 229.230404 
L 354.658909 227.475587 
L 355.2 226.528994 
L 355.741091 223.449662 
L 356.282182 225.388507 
L 356.823273 225.327229 
L 357.364364 224.902553 
L 357.905455 223.465617 
L 358.446545 221.546671 
L 358.987636 225.612571 
L 360.069818 232.300753 
L 360.610909 228.296519 
L 361.152 229.946454 
L 361.693091 224.088696 
L 363.316364 241.444355 
L 364.398545 245.47056 
L 364.939636 245.007227 
L 365.480727 242.202312 
L 366.562909 249.268156 
L 367.104 247.823087 
L 367.645091 242.894754 
L 368.186182 240.967315 
L 368.727273 239.479389 
L 369.268364 236.973137 
L 370.350545 224.864199 
L 370.891636 224.822592 
L 371.432727 231.347999 
L 371.973818 225.992221 
L 372.514909 226.385161 
L 373.056 225.032941 
L 373.597091 226.021551 
L 374.138182 226.093437 
L 374.679273 229.915951 
L 375.220364 229.921665 
L 375.761455 227.319146 
L 376.302545 227.875016 
L 376.843636 228.090618 
L 377.384727 230.933005 
L 378.466909 234.778158 
L 379.008 234.709993 
L 379.549091 233.919123 
L 380.090182 232.796525 
L 380.631273 233.359695 
L 381.172364 237.541711 
L 381.713455 242.765406 
L 382.254545 240.480192 
L 382.795636 239.674734 
L 383.336727 239.484424 
L 383.877818 245.957935 
L 384.418909 242.803376 
L 384.96 243.050506 
L 385.501091 234.614523 
L 386.042182 235.841173 
L 386.583273 232.455126 
L 387.124364 232.373089 
L 387.665455 235.624536 
L 388.206545 230.690788 
L 388.747636 222.337555 
L 389.288727 223.732975 
L 389.829818 221.407522 
L 390.370909 223.210803 
L 390.912 228.50382 
L 391.453091 224.896719 
L 391.994182 220.130891 
L 392.535273 216.925599 
L 393.076364 210.606229 
L 393.617455 207.591611 
L 394.158545 211.368192 
L 394.699636 208.309378 
L 395.240727 202.814099 
L 395.781818 204.149409 
L 396.322909 205.966445 
L 396.864 198.313683 
L 397.405091 198.525332 
L 397.946182 196.60722 
L 398.487273 197.956389 
L 398.487273 197.956389 
" clip-path="url(#p5ec101e65e)" style="fill: none; stroke: #8dd3c7; stroke-width: 2; stroke-linecap: square"/>
   </g>
   <g id="line2d_36">
    <path d="M 73.832727 224.914328 
L 74.373818 225.23879 
L 74.914909 230.402491 
L 75.456 226.585191 
L 75.997091 227.429694 
L 76.538182 229.162733 
L 77.079273 232.699434 
L 77.620364 229.457203 
L 78.161455 233.351572 
L 78.702545 231.140875 
L 79.243636 233.122279 
L 79.784727 233.020459 
L 80.325818 233.834763 
L 80.866909 231.760771 
L 81.408 229.106081 
L 81.949091 232.841201 
L 82.490182 229.115009 
L 83.031273 226.476435 
L 83.572364 222.719528 
L 84.113455 217.355471 
L 84.654545 222.60828 
L 85.195636 216.044964 
L 85.736727 221.685964 
L 86.277818 223.965753 
L 86.818909 222.77544 
L 87.36 219.081866 
L 87.901091 216.861818 
L 88.442182 215.580697 
L 88.983273 213.619632 
L 89.524364 217.460779 
L 90.065455 217.377168 
L 90.606545 208.558364 
L 91.147636 217.344894 
L 91.688727 218.173649 
L 92.229818 218.517919 
L 92.770909 221.646201 
L 93.312 222.128619 
L 93.853091 221.768767 
L 94.394182 222.654218 
L 94.935273 222.932322 
L 95.476364 226.761523 
L 96.017455 224.662209 
L 96.558545 226.916713 
L 97.099636 230.825919 
L 97.640727 223.393997 
L 98.722909 227.08972 
L 99.264 233.876189 
L 99.805091 232.466168 
L 100.346182 236.164877 
L 100.887273 238.613355 
L 101.428364 235.983289 
L 101.969455 234.088704 
L 102.510545 236.674247 
L 103.051636 234.713303 
L 103.592727 233.18789 
L 104.133818 233.6671 
L 104.674909 236.987965 
L 105.216 235.277375 
L 105.757091 240.686217 
L 106.298182 239.257174 
L 106.839273 239.211915 
L 107.921455 247.274253 
L 108.462545 238.395303 
L 109.003636 245.590389 
L 109.544727 245.256973 
L 110.085818 246.367885 
L 110.626909 244.63772 
L 111.168 243.385121 
L 112.250182 237.34725 
L 112.791273 237.306657 
L 113.332364 242.162327 
L 113.873455 243.120558 
L 114.955636 239.317433 
L 115.496727 235.224167 
L 116.037818 235.806418 
L 116.578909 239.968156 
L 117.12 241.892344 
L 117.661091 240.937825 
L 119.284364 231.165905 
L 119.825455 235.571789 
L 120.366545 237.067364 
L 120.907636 235.117384 
L 121.448727 233.954318 
L 121.989818 230.908647 
L 122.530909 235.239675 
L 123.072 233.034693 
L 123.613091 242.807498 
L 124.154182 244.544237 
L 124.695273 244.300235 
L 125.236364 245.535283 
L 125.777455 242.467639 
L 126.318545 243.232532 
L 126.859636 243.172126 
L 127.400727 240.738346 
L 127.941818 243.854678 
L 128.482909 238.571364 
L 129.024 240.852815 
L 129.565091 238.719757 
L 130.106182 237.961266 
L 130.647273 239.456018 
L 131.188364 239.087556 
L 131.729455 237.988117 
L 132.270545 239.636235 
L 132.811636 231.871194 
L 133.352727 235.448354 
L 133.893818 235.444179 
L 134.434909 231.46279 
L 134.976 229.67032 
L 135.517091 225.860962 
L 136.058182 231.268581 
L 136.599273 232.09475 
L 137.140364 231.95763 
L 137.681455 227.517053 
L 138.222545 230.415299 
L 138.763636 230.611032 
L 139.304727 223.977088 
L 140.386909 221.093503 
L 140.928 221.31756 
L 141.469091 217.121845 
L 142.010182 223.72441 
L 142.551273 226.600529 
L 143.092364 228.5976 
L 143.633455 228.145443 
L 144.174545 228.134858 
L 144.715636 235.6545 
L 145.256727 235.263019 
L 145.797818 238.273803 
L 146.338909 228.297291 
L 146.88 229.255005 
L 147.421091 225.518799 
L 147.962182 227.476637 
L 148.503273 228.340989 
L 149.044364 231.351291 
L 149.585455 228.357864 
L 150.126545 223.68019 
L 150.667636 228.145403 
L 151.208727 226.318787 
L 151.749818 223.56075 
L 152.290909 218.661583 
L 152.832 220.329718 
L 153.373091 214.725796 
L 153.914182 218.560045 
L 154.455273 217.289933 
L 154.996364 218.451933 
L 155.537455 218.925844 
L 156.078545 214.493379 
L 156.619636 212.034756 
L 157.160727 201.182653 
L 157.701818 200.869142 
L 158.242909 202.921696 
L 158.784 198.150631 
L 159.325091 196.660567 
L 159.866182 197.641252 
L 160.948364 186.635443 
L 161.489455 191.262621 
L 162.030545 191.994052 
L 162.571636 187.181225 
L 163.112727 189.269672 
L 163.653818 182.651773 
L 164.194909 182.497719 
L 164.736 180.391785 
L 165.277091 179.155346 
L 165.818182 182.421671 
L 166.359273 182.385078 
L 166.900364 184.258816 
L 167.441455 185.135507 
L 167.982545 180.691239 
L 168.523636 177.733014 
L 169.064727 177.951716 
L 169.605818 176.367942 
L 170.146909 170.377833 
L 170.688 169.895219 
L 171.229091 170.737851 
L 171.770182 167.542498 
L 172.311273 168.962644 
L 172.852364 172.752516 
L 173.393455 165.502034 
L 173.934545 168.887713 
L 174.475636 167.758465 
L 175.016727 165.633168 
L 175.557818 166.186507 
L 176.64 151.418078 
L 177.181091 149.326135 
L 177.722182 154.22118 
L 178.263273 152.258771 
L 178.804364 157.920817 
L 179.345455 155.337073 
L 179.886545 151.735108 
L 180.427636 150.029303 
L 180.968727 144.939338 
L 181.509818 143.706616 
L 182.050909 146.465175 
L 182.592 147.573329 
L 183.133091 143.146973 
L 183.674182 150.606836 
L 184.215273 149.398875 
L 184.756364 153.782629 
L 185.297455 145.381184 
L 185.838545 150.784979 
L 186.379636 159.068013 
L 187.461818 152.822839 
L 188.002909 155.754336 
L 188.544 156.732788 
L 189.085091 162.089315 
L 189.626182 163.27394 
L 190.167273 160.758011 
L 190.708364 160.206093 
L 191.249455 160.921687 
L 191.790545 163.562302 
L 192.331636 159.900742 
L 193.413818 148.526558 
L 193.954909 153.361902 
L 194.496 152.650256 
L 195.037091 155.576408 
L 195.578182 156.689484 
L 196.119273 154.9995 
L 196.660364 144.949811 
L 197.201455 143.547037 
L 197.742545 143.218704 
L 198.283636 144.768887 
L 198.824727 142.294635 
L 199.365818 147.936302 
L 199.906909 145.006173 
L 200.448 141.42468 
L 200.989091 144.500666 
L 201.530182 138.281143 
L 202.071273 129.572119 
L 202.612364 132.027016 
L 203.153455 128.737633 
L 203.694545 130.107242 
L 204.235636 132.257169 
L 204.776727 128.820243 
L 205.317818 127.182383 
L 206.4 136.71828 
L 206.941091 135.585012 
L 208.023273 144.824931 
L 208.564364 145.437451 
L 209.105455 146.872495 
L 209.646545 145.113688 
L 210.187636 137.450499 
L 210.728727 141.731683 
L 211.269818 135.929015 
L 211.810909 140.629431 
L 212.352 140.088178 
L 212.893091 135.823145 
L 213.434182 126.700663 
L 213.975273 132.503688 
L 214.516364 125.890254 
L 215.057455 125.850634 
L 215.598545 124.878895 
L 216.139636 122.474566 
L 216.680727 115.122562 
L 217.221818 105.788645 
L 217.762909 103.862979 
L 218.304 105.661635 
L 218.845091 108.134459 
L 219.386182 115.862293 
L 219.927273 121.284035 
L 220.468364 117.056181 
L 221.009455 123.093552 
L 221.550545 127.404148 
L 222.091636 129.313511 
L 222.632727 131.705485 
L 224.256 140.371259 
L 224.797091 134.866508 
L 225.338182 132.052296 
L 225.879273 131.338988 
L 226.420364 133.709956 
L 226.961455 133.018947 
L 227.502545 131.761892 
L 228.043636 134.681119 
L 228.584727 138.655583 
L 229.125818 137.518669 
L 230.208 142.677889 
L 230.749091 142.649145 
L 231.290182 142.797729 
L 231.831273 146.344011 
L 232.372364 140.333465 
L 232.913455 139.10741 
L 233.454545 139.660406 
L 233.995636 136.879347 
L 234.536727 131.689738 
L 235.077818 131.511407 
L 235.618909 140.817216 
L 236.16 145.226126 
L 236.701091 145.416296 
L 237.242182 144.853922 
L 237.783273 139.602159 
L 238.324364 137.642855 
L 238.865455 138.564235 
L 239.406545 135.423983 
L 239.947636 137.618848 
L 240.488727 133.926164 
L 241.029818 139.518278 
L 241.570909 133.703188 
L 242.112 134.177679 
L 242.653091 130.913879 
L 243.194182 131.644716 
L 243.735273 136.621734 
L 244.276364 137.296575 
L 244.817455 137.028151 
L 245.358545 136.047079 
L 245.899636 135.496683 
L 246.440727 133.880944 
L 246.981818 135.805004 
L 247.522909 141.882913 
L 248.064 143.413102 
L 248.605091 148.352842 
L 249.146182 148.961635 
L 249.687273 149.930952 
L 250.228364 149.62179 
L 250.769455 151.467223 
L 252.392727 144.22527 
L 252.933818 142.716264 
L 253.474909 139.826765 
L 254.016 136.277197 
L 254.557091 135.768721 
L 255.098182 143.591415 
L 255.639273 145.705688 
L 256.180364 139.712763 
L 256.721455 147.403092 
L 257.262545 146.800156 
L 257.803636 148.746474 
L 258.344727 143.178473 
L 258.885818 141.51629 
L 259.426909 142.260943 
L 259.968 141.965864 
L 260.509091 147.791581 
L 261.050182 140.311632 
L 261.591273 137.431093 
L 262.132364 140.436922 
L 262.673455 142.253194 
L 263.214545 139.937214 
L 263.755636 142.126211 
L 264.296727 144.891484 
L 264.837818 141.500047 
L 265.378909 141.64095 
L 265.92 139.848102 
L 266.461091 136.131136 
L 267.002182 138.742481 
L 267.543273 132.731324 
L 268.084364 128.963509 
L 268.625455 132.342217 
L 269.166545 136.631007 
L 269.707636 135.801924 
L 270.248727 134.247689 
L 270.789818 136.478981 
L 271.872 137.437632 
L 272.413091 138.305606 
L 272.954182 136.545754 
L 273.495273 130.586467 
L 274.036364 123.356017 
L 274.577455 125.791315 
L 275.118545 125.513285 
L 275.659636 127.202602 
L 276.200727 126.993595 
L 276.741818 127.990969 
L 277.282909 122.643383 
L 277.824 118.75845 
L 278.365091 120.39323 
L 278.906182 115.082028 
L 279.447273 117.080462 
L 279.988364 116.112287 
L 280.529455 113.550721 
L 281.070545 114.366377 
L 281.611636 116.581801 
L 282.152727 114.916574 
L 282.693818 111.540659 
L 283.234909 111.568664 
L 283.776 104.689642 
L 284.317091 101.646907 
L 284.858182 103.078107 
L 285.399273 99.957753 
L 285.940364 100.562779 
L 286.481455 98.412418 
L 287.563636 93.144312 
L 288.104727 86.981654 
L 288.645818 85.741509 
L 289.186909 83.422936 
L 289.728 83.942039 
L 290.269091 88.814224 
L 290.810182 90.376445 
L 291.351273 89.485101 
L 291.892364 98.274595 
L 292.974545 94.912895 
L 293.515636 90.532337 
L 294.056727 88.784392 
L 294.597818 84.450662 
L 295.138909 84.10257 
L 295.68 85.325056 
L 296.221091 83.069675 
L 296.762182 86.470807 
L 297.303273 81.389434 
L 297.844364 85.268886 
L 298.385455 79.791572 
L 299.467636 83.069686 
L 300.008727 86.661268 
L 300.549818 87.236273 
L 301.090909 86.659204 
L 302.173091 97.958182 
L 302.714182 97.936681 
L 303.255273 103.137489 
L 303.796364 100.808028 
L 304.337455 96.521949 
L 304.878545 98.35297 
L 305.419636 86.829058 
L 305.960727 86.858843 
L 306.501818 90.652171 
L 307.042909 83.925576 
L 307.584 82.212234 
L 308.125091 84.023659 
L 308.666182 84.158431 
L 309.748364 73.263901 
L 310.289455 73.310301 
L 310.830545 77.076651 
L 311.371636 78.975683 
L 311.912727 76.434952 
L 312.453818 76.231458 
L 313.536 73.619406 
L 314.077091 67.91641 
L 314.618182 69.058392 
L 315.159273 69.472043 
L 315.700364 76.988167 
L 316.241455 77.500493 
L 316.782545 83.775191 
L 317.323636 86.50546 
L 317.864727 86.224377 
L 318.405818 88.402112 
L 318.946909 88.835476 
L 319.488 96.889128 
L 320.029091 98.381571 
L 320.570182 97.767979 
L 321.111273 97.729718 
L 321.652364 96.259775 
L 322.193455 98.785815 
L 322.734545 96.362722 
L 323.275636 98.369813 
L 323.816727 99.334623 
L 324.357818 95.759085 
L 324.898909 90.591464 
L 325.44 87.535302 
L 325.981091 91.476887 
L 326.522182 92.608499 
L 327.063273 94.293363 
L 327.604364 93.915216 
L 328.145455 88.118561 
L 328.686545 83.930111 
L 329.227636 88.150318 
L 329.768727 86.84513 
L 330.309818 85.84124 
L 330.850909 88.125596 
L 331.392 89.417002 
L 331.933091 85.130805 
L 333.015273 86.024725 
L 333.556364 87.533474 
L 334.097455 99.508302 
L 334.638545 98.980946 
L 335.179636 95.577759 
L 336.261818 79.526533 
L 336.802909 82.869775 
L 337.344 82.718469 
L 337.885091 84.441568 
L 338.426182 83.199014 
L 338.967273 86.814014 
L 339.508364 85.611933 
L 340.590545 80.633524 
L 341.131636 79.021763 
L 341.672727 75.185672 
L 342.213818 75.773554 
L 342.754909 77.110782 
L 343.296 77.154233 
L 343.837091 78.035434 
L 344.378182 76.501709 
L 344.919273 72.56627 
L 345.460364 72.802816 
L 346.542545 84.568863 
L 347.083636 82.910396 
L 348.165818 78.591014 
L 348.706909 87.821421 
L 349.248 84.887628 
L 349.789091 74.920817 
L 350.330182 74.853764 
L 350.871273 75.499668 
L 351.412364 71.347672 
L 351.953455 73.782028 
L 352.494545 77.39372 
L 353.035636 72.971152 
L 353.576727 76.19192 
L 354.117818 73.605752 
L 354.658909 75.36057 
L 355.2 76.307162 
L 355.741091 79.386494 
L 356.282182 77.447649 
L 356.823273 77.508927 
L 357.364364 77.933603 
L 357.905455 79.370539 
L 358.446545 81.289485 
L 358.987636 77.223585 
L 360.069818 70.535403 
L 360.610909 74.539637 
L 361.152 72.889702 
L 361.693091 78.74746 
L 363.316364 61.391801 
L 364.398545 57.365596 
L 364.939636 57.828929 
L 365.480727 60.633844 
L 366.562909 53.568 
L 367.104 55.013069 
L 367.645091 59.941402 
L 368.186182 61.868841 
L 368.727273 63.356767 
L 369.268364 65.863019 
L 370.350545 77.971957 
L 370.891636 78.013564 
L 371.432727 71.488157 
L 371.973818 76.843935 
L 372.514909 76.450995 
L 373.056 77.803215 
L 373.597091 76.814605 
L 374.138182 76.742719 
L 374.679273 72.920205 
L 375.220364 72.914491 
L 375.761455 75.51701 
L 376.302545 74.96114 
L 376.843636 74.745538 
L 377.384727 71.903151 
L 378.466909 68.057998 
L 379.008 68.126163 
L 379.549091 68.917033 
L 380.090182 70.039631 
L 380.631273 69.476461 
L 381.172364 65.294445 
L 381.713455 60.07075 
L 382.254545 62.355964 
L 382.795636 63.161422 
L 383.336727 63.351732 
L 383.877818 56.878221 
L 384.418909 60.03278 
L 384.96 59.78565 
L 385.501091 68.221633 
L 386.042182 66.994983 
L 386.583273 70.38103 
L 387.124364 70.463067 
L 387.665455 67.21162 
L 388.206545 72.145368 
L 388.747636 80.498601 
L 389.288727 79.103181 
L 389.829818 81.428634 
L 390.370909 79.625353 
L 390.912 74.332336 
L 391.453091 77.939437 
L 391.994182 82.705265 
L 392.535273 85.910557 
L 393.076364 92.229927 
L 393.617455 95.244545 
L 394.158545 91.467964 
L 394.699636 94.526778 
L 395.240727 100.022057 
L 395.781818 98.686747 
L 396.322909 96.869711 
L 396.864 104.522473 
L 397.405091 104.310824 
L 397.946182 106.228936 
L 398.487273 104.879767 
L 398.487273 104.879767 
" clip-path="url(#p5ec101e65e)" style="fill: none; stroke: #feffb3; stroke-width: 2; stroke-linecap: square"/>
   </g>
   <g id="patch_3">
    <path d="M 57.6 307.584 
L 57.6 41.472 
" style="fill: none; stroke: #ffffff; stroke-width: 0.8; stroke-linejoin: miter; stroke-linecap: square"/>
   </g>
   <g id="patch_4">
    <path d="M 414.72 307.584 
L 414.72 41.472 
" style="fill: none; stroke: #ffffff; stroke-width: 0.8; stroke-linejoin: miter; stroke-linecap: square"/>
   </g>
   <g id="patch_5">
    <path d="M 57.6 307.584 
L 414.72 307.584 
" style="fill: none; stroke: #ffffff; stroke-width: 0.8; stroke-linejoin: miter; stroke-linecap: square"/>
   </g>
   <g id="patch_6">
    <path d="M 57.6 41.472 
L 414.72 41.472 
" style="fill: none; stroke: #ffffff; stroke-width: 0.8; stroke-linejoin: miter; stroke-linecap: square"/>
   </g>
   <g id="legend_1">
    <g id="patch_7">
     <path d="M 64.6 78.82825 
L 191.3 78.82825 
Q 193.3 78.82825 193.3 76.82825 
L 193.3 48.472 
Q 193.3 46.472 191.3 46.472 
L 64.6 46.472 
Q 62.6 46.472 62.6 48.472 
L 62.6 76.82825 
Q 62.6 78.82825 64.6 78.82825 
z
" style="opacity: 0.8; stroke: #cccccc; stroke-width: 0.5; stroke-linejoin: miter"/>
    </g>
    <g id="line2d_37">
     <path d="M 66.6 54.570437 
L 76.6 54.570437 
L 86.6 54.570437 
" style="fill: none; stroke: #8dd3c7; stroke-width: 2; stroke-linecap: square"/>
    </g>
    <g id="text_17">
     <!-- Path reflected at $\tau_b$ -->
     <g style="fill: #ffffff" transform="translate(94.6 58.070437) scale(0.1 -0.1)">
      <defs>
       <path id="DejaVuSans-50" d="M 1259 4147 
L 1259 2394 
L 2053 2394 
Q 2494 2394 2734 2622 
Q 2975 2850 2975 3272 
Q 2975 3691 2734 3919 
Q 2494 4147 2053 4147 
L 1259 4147 
z
M 628 4666 
L 2053 4666 
Q 2838 4666 3239 4311 
Q 3641 3956 3641 3272 
Q 3641 2581 3239 2228 
Q 2838 1875 2053 1875 
L 1259 1875 
L 1259 0 
L 628 0 
L 628 4666 
z
" transform="scale(0.015625)"/>
       <path id="DejaVuSans-61" d="M 2194 1759 
Q 1497 1759 1228 1600 
Q 959 1441 959 1056 
Q 959 750 1161 570 
Q 1363 391 1709 391 
Q 2188 391 2477 730 
Q 2766 1069 2766 1631 
L 2766 1759 
L 2194 1759 
z
M 3341 1997 
L 3341 0 
L 2766 0 
L 2766 531 
Q 2569 213 2275 61 
Q 1981 -91 1556 -91 
Q 1019 -91 701 211 
Q 384 513 384 1019 
Q 384 1609 779 1909 
Q 1175 2209 1959 2209 
L 2766 2209 
L 2766 2266 
Q 2766 2663 2505 2880 
Q 2244 3097 1772 3097 
Q 1472 3097 1187 3025 
Q 903 2953 641 2809 
L 641 3341 
Q 956 3463 1253 3523 
Q 1550 3584 1831 3584 
Q 2591 3584 2966 3190 
Q 3341 2797 3341 1997 
z
" transform="scale(0.015625)"/>
       <path id="DejaVuSans-74" d="M 1172 4494 
L 1172 3500 
L 2356 3500 
L 2356 3053 
L 1172 3053 
L 1172 1153 
Q 1172 725 1289 603 
Q 1406 481 1766 481 
L 2356 481 
L 2356 0 
L 1766 0 
Q 1100 0 847 248 
Q 594 497 594 1153 
L 594 3053 
L 172 3053 
L 172 3500 
L 594 3500 
L 594 4494 
L 1172 4494 
z
" transform="scale(0.015625)"/>
       <path id="DejaVuSans-68" d="M 3513 2113 
L 3513 0 
L 2938 0 
L 2938 2094 
Q 2938 2591 2744 2837 
Q 2550 3084 2163 3084 
Q 1697 3084 1428 2787 
Q 1159 2491 1159 1978 
L 1159 0 
L 581 0 
L 581 4863 
L 1159 4863 
L 1159 2956 
Q 1366 3272 1645 3428 
Q 1925 3584 2291 3584 
Q 2894 3584 3203 3211 
Q 3513 2838 3513 2113 
z
" transform="scale(0.015625)"/>
       <path id="DejaVuSans-20" transform="scale(0.015625)"/>
       <path id="DejaVuSans-72" d="M 2631 2963 
Q 2534 3019 2420 3045 
Q 2306 3072 2169 3072 
Q 1681 3072 1420 2755 
Q 1159 2438 1159 1844 
L 1159 0 
L 581 0 
L 581 3500 
L 1159 3500 
L 1159 2956 
Q 1341 3275 1631 3429 
Q 1922 3584 2338 3584 
Q 2397 3584 2469 3576 
Q 2541 3569 2628 3553 
L 2631 2963 
z
" transform="scale(0.015625)"/>
       <path id="DejaVuSans-65" d="M 3597 1894 
L 3597 1613 
L 953 1613 
Q 991 1019 1311 708 
Q 1631 397 2203 397 
Q 2534 397 2845 478 
Q 3156 559 3463 722 
L 3463 178 
Q 3153 47 2828 -22 
Q 2503 -91 2169 -91 
Q 1331 -91 842 396 
Q 353 884 353 1716 
Q 353 2575 817 3079 
Q 1281 3584 2069 3584 
Q 2775 3584 3186 3129 
Q 3597 2675 3597 1894 
z
M 3022 2063 
Q 3016 2534 2758 2815 
Q 2500 3097 2075 3097 
Q 1594 3097 1305 2825 
Q 1016 2553 972 2059 
L 3022 2063 
z
" transform="scale(0.015625)"/>
       <path id="DejaVuSans-66" d="M 2375 4863 
L 2375 4384 
L 1825 4384 
Q 1516 4384 1395 4259 
Q 1275 4134 1275 3809 
L 1275 3500 
L 2222 3500 
L 2222 3053 
L 1275 3053 
L 1275 0 
L 697 0 
L 697 3053 
L 147 3053 
L 147 3500 
L 697 3500 
L 697 3744 
Q 697 4328 969 4595 
Q 1241 4863 1831 4863 
L 2375 4863 
z
" transform="scale(0.015625)"/>
       <path id="DejaVuSans-6c" d="M 603 4863 
L 1178 4863 
L 1178 0 
L 603 0 
L 603 4863 
z
" transform="scale(0.015625)"/>
       <path id="DejaVuSans-63" d="M 3122 3366 
L 3122 2828 
Q 2878 2963 2633 3030 
Q 2388 3097 2138 3097 
Q 1578 3097 1268 2742 
Q 959 2388 959 1747 
Q 959 1106 1268 751 
Q 1578 397 2138 397 
Q 2388 397 2633 464 
Q 2878 531 3122 666 
L 3122 134 
Q 2881 22 2623 -34 
Q 2366 -91 2075 -91 
Q 1284 -91 818 406 
Q 353 903 353 1747 
Q 353 2603 823 3093 
Q 1294 3584 2113 3584 
Q 2378 3584 2631 3529 
Q 2884 3475 3122 3366 
z
" transform="scale(0.015625)"/>
       <path id="DejaVuSans-64" d="M 2906 2969 
L 2906 4863 
L 3481 4863 
L 3481 0 
L 2906 0 
L 2906 525 
Q 2725 213 2448 61 
Q 2172 -91 1784 -91 
Q 1150 -91 751 415 
Q 353 922 353 1747 
Q 353 2572 751 3078 
Q 1150 3584 1784 3584 
Q 2172 3584 2448 3432 
Q 2725 3281 2906 2969 
z
M 947 1747 
Q 947 1113 1208 752 
Q 1469 391 1925 391 
Q 2381 391 2643 752 
Q 2906 1113 2906 1747 
Q 2906 2381 2643 2742 
Q 2381 3103 1925 3103 
Q 1469 3103 1208 2742 
Q 947 2381 947 1747 
z
" transform="scale(0.015625)"/>
       <path id="Cmmi10-bf" d="M 997 97 
Q 997 141 1006 166 
L 1678 2363 
L 1100 2363 
Q 866 2363 662 2216 
Q 459 2069 325 1844 
Q 313 1819 288 1819 
L 213 1819 
Q 153 1819 153 1881 
Q 153 1894 166 1919 
Q 375 2275 614 2517 
Q 853 2759 1153 2759 
L 3116 2759 
Q 3184 2759 3231 2712 
Q 3278 2666 3278 2597 
Q 3278 2503 3211 2433 
Q 3144 2363 3047 2363 
L 1888 2363 
L 1459 153 
Q 1434 50 1365 -17 
Q 1297 -84 1191 -84 
Q 1109 -84 1053 -32 
Q 997 19 997 97 
z
" transform="scale(0.015625)"/>
       <path id="Cmmi10-62" d="M 1106 -72 
Q 719 -72 503 231 
Q 288 534 288 941 
Q 288 1000 317 1173 
Q 347 1347 347 1388 
L 966 3872 
Q 991 3981 997 4044 
Q 997 4147 581 4147 
Q 519 4147 519 4231 
Q 522 4247 533 4287 
Q 544 4328 561 4350 
Q 578 4372 609 4372 
L 1472 4441 
Q 1550 4441 1550 4359 
L 1075 2472 
Q 1438 2828 1806 2828 
Q 2078 2828 2273 2684 
Q 2469 2541 2566 2306 
Q 2663 2072 2663 1806 
Q 2663 1497 2542 1167 
Q 2422 838 2209 555 
Q 1997 272 1712 100 
Q 1428 -72 1106 -72 
z
M 1119 97 
Q 1338 97 1528 280 
Q 1719 463 1838 691 
Q 1966 947 2077 1386 
Q 2188 1825 2188 2088 
Q 2188 2316 2092 2489 
Q 1997 2663 1791 2663 
Q 1559 2663 1348 2492 
Q 1138 2322 978 2088 
L 800 1363 
Q 697 959 691 716 
Q 691 475 795 286 
Q 900 97 1119 97 
z
" transform="scale(0.015625)"/>
      </defs>
      <use xlink:href="#DejaVuSans-50" transform="translate(0 0.015625)"/>
      <use xlink:href="#DejaVuSans-61" transform="translate(60.302734 0.015625)"/>
      <use xlink:href="#DejaVuSans-74" transform="translate(121.582031 0.015625)"/>
      <use xlink:href="#DejaVuSans-68" transform="translate(160.791016 0.015625)"/>
      <use xlink:href="#DejaVuSans-20" transform="translate(224.169922 0.015625)"/>
      <use xlink:href="#DejaVuSans-72" transform="translate(255.957031 0.015625)"/>
      <use xlink:href="#DejaVuSans-65" transform="translate(297.070312 0.015625)"/>
      <use xlink:href="#DejaVuSans-66" transform="translate(358.59375 0.015625)"/>
      <use xlink:href="#DejaVuSans-6c" transform="translate(393.798828 0.015625)"/>
      <use xlink:href="#DejaVuSans-65" transform="translate(421.582031 0.015625)"/>
      <use xlink:href="#DejaVuSans-63" transform="translate(483.105469 0.015625)"/>
      <use xlink:href="#DejaVuSans-74" transform="translate(538.085938 0.015625)"/>
      <use xlink:href="#DejaVuSans-65" transform="translate(577.294922 0.015625)"/>
      <use xlink:href="#DejaVuSans-64" transform="translate(638.818359 0.015625)"/>
      <use xlink:href="#DejaVuSans-20" transform="translate(702.294922 0.015625)"/>
      <use xlink:href="#DejaVuSans-61" transform="translate(734.082031 0.015625)"/>
      <use xlink:href="#DejaVuSans-74" transform="translate(795.361328 0.015625)"/>
      <use xlink:href="#DejaVuSans-20" transform="translate(834.570312 0.015625)"/>
      <use xlink:href="#Cmmi10-bf" transform="translate(866.357422 0.015625)"/>
      <use xlink:href="#Cmmi10-62" transform="translate(910.058594 -16.990625) scale(0.7)"/>
     </g>
    </g>
    <g id="line2d_38">
     <path d="M 66.6 69.248562 
L 76.6 69.248562 
L 86.6 69.248562 
" style="fill: none; stroke: #feffb3; stroke-width: 2; stroke-linecap: square"/>
    </g>
    <g id="text_18">
     <!-- Original path -->
     <g style="fill: #ffffff" transform="translate(94.6 72.748562) scale(0.1 -0.1)">
      <defs>
       <path id="DejaVuSans-4f" d="M 2522 4238 
Q 1834 4238 1429 3725 
Q 1025 3213 1025 2328 
Q 1025 1447 1429 934 
Q 1834 422 2522 422 
Q 3209 422 3611 934 
Q 4013 1447 4013 2328 
Q 4013 3213 3611 3725 
Q 3209 4238 2522 4238 
z
M 2522 4750 
Q 3503 4750 4090 4092 
Q 4678 3434 4678 2328 
Q 4678 1225 4090 567 
Q 3503 -91 2522 -91 
Q 1538 -91 948 565 
Q 359 1222 359 2328 
Q 359 3434 948 4092 
Q 1538 4750 2522 4750 
z
" transform="scale(0.015625)"/>
       <path id="DejaVuSans-69" d="M 603 3500 
L 1178 3500 
L 1178 0 
L 603 0 
L 603 3500 
z
M 603 4863 
L 1178 4863 
L 1178 4134 
L 603 4134 
L 603 4863 
z
" transform="scale(0.015625)"/>
       <path id="DejaVuSans-67" d="M 2906 1791 
Q 2906 2416 2648 2759 
Q 2391 3103 1925 3103 
Q 1463 3103 1205 2759 
Q 947 2416 947 1791 
Q 947 1169 1205 825 
Q 1463 481 1925 481 
Q 2391 481 2648 825 
Q 2906 1169 2906 1791 
z
M 3481 434 
Q 3481 -459 3084 -895 
Q 2688 -1331 1869 -1331 
Q 1566 -1331 1297 -1286 
Q 1028 -1241 775 -1147 
L 775 -588 
Q 1028 -725 1275 -790 
Q 1522 -856 1778 -856 
Q 2344 -856 2625 -561 
Q 2906 -266 2906 331 
L 2906 616 
Q 2728 306 2450 153 
Q 2172 0 1784 0 
Q 1141 0 747 490 
Q 353 981 353 1791 
Q 353 2603 747 3093 
Q 1141 3584 1784 3584 
Q 2172 3584 2450 3431 
Q 2728 3278 2906 2969 
L 2906 3500 
L 3481 3500 
L 3481 434 
z
" transform="scale(0.015625)"/>
       <path id="DejaVuSans-6e" d="M 3513 2113 
L 3513 0 
L 2938 0 
L 2938 2094 
Q 2938 2591 2744 2837 
Q 2550 3084 2163 3084 
Q 1697 3084 1428 2787 
Q 1159 2491 1159 1978 
L 1159 0 
L 581 0 
L 581 3500 
L 1159 3500 
L 1159 2956 
Q 1366 3272 1645 3428 
Q 1925 3584 2291 3584 
Q 2894 3584 3203 3211 
Q 3513 2838 3513 2113 
z
" transform="scale(0.015625)"/>
       <path id="DejaVuSans-70" d="M 1159 525 
L 1159 -1331 
L 581 -1331 
L 581 3500 
L 1159 3500 
L 1159 2969 
Q 1341 3281 1617 3432 
Q 1894 3584 2278 3584 
Q 2916 3584 3314 3078 
Q 3713 2572 3713 1747 
Q 3713 922 3314 415 
Q 2916 -91 2278 -91 
Q 1894 -91 1617 61 
Q 1341 213 1159 525 
z
M 3116 1747 
Q 3116 2381 2855 2742 
Q 2594 3103 2138 3103 
Q 1681 3103 1420 2742 
Q 1159 2381 1159 1747 
Q 1159 1113 1420 752 
Q 1681 391 2138 391 
Q 2594 391 2855 752 
Q 3116 1113 3116 1747 
z
" transform="scale(0.015625)"/>
      </defs>
      <use xlink:href="#DejaVuSans-4f"/>
      <use xlink:href="#DejaVuSans-72" x="78.710938"/>
      <use xlink:href="#DejaVuSans-69" x="119.824219"/>
      <use xlink:href="#DejaVuSans-67" x="147.607422"/>
      <use xlink:href="#DejaVuSans-69" x="211.083984"/>
      <use xlink:href="#DejaVuSans-6e" x="238.867188"/>
      <use xlink:href="#DejaVuSans-61" x="302.246094"/>
      <use xlink:href="#DejaVuSans-6c" x="363.525391"/>
      <use xlink:href="#DejaVuSans-20" x="391.308594"/>
      <use xlink:href="#DejaVuSans-70" x="423.095703"/>
      <use xlink:href="#DejaVuSans-61" x="486.572266"/>
      <use xlink:href="#DejaVuSans-74" x="547.851562"/>
      <use xlink:href="#DejaVuSans-68" x="587.060547"/>
     </g>
    </g>
   </g>
  </g>
 </g>
 <defs>
  <clipPath id="p5ec101e65e">
   <rect x="57.6" y="41.472" width="357.12" height="266.112"/>
  </clipPath>
 </defs>
</svg>
