<?xml version="1.0" encoding="utf-8" standalone="no"?>
<!DOCTYPE svg PUBLIC "-//W3C//DTD SVG 1.1//EN"
  "http://www.w3.org/Graphics/SVG/1.1/DTD/svg11.dtd">
<svg xmlns:xlink="http://www.w3.org/1999/xlink" width="864pt" height="432pt" viewBox="0 0 864 432" xmlns="http://www.w3.org/2000/svg" version="1.1">
 <metadata>
  <rdf:RDF xmlns:dc="http://purl.org/dc/elements/1.1/" xmlns:cc="http://creativecommons.org/ns#" xmlns:rdf="http://www.w3.org/1999/02/22-rdf-syntax-ns#">
   <cc:Work>
    <dc:type rdf:resource="http://purl.org/dc/dcmitype/StillImage"/>
    <dc:date>2025-04-13T10:44:04.828860</dc:date>
    <dc:format>image/svg+xml</dc:format>
    <dc:creator>
     <cc:Agent>
      <dc:title>Matplotlib v3.9.1, https://matplotlib.org/</dc:title>
     </cc:Agent>
    </dc:creator>
   </cc:Work>
  </rdf:RDF>
 </metadata>
 <defs>
  <style type="text/css">*{stroke-linejoin: round; stroke-linecap: butt}</style>
 </defs>
 <g id="figure_1">
  <g id="patch_1">
   <path d="M 0 432 
L 864 432 
L 864 0 
L 0 0 
z
" style="fill: #0c1c23"/>
  </g>
  <g id="axes_1">
   <g id="patch_2">
    <path d="M 108 384.48 
L 777.6 384.48 
L 777.6 51.84 
L 108 51.84 
z
" style="fill: #ffffff; fill-opacity: 0.027451"/>
   </g>
   <g id="PathCollection_1">
    <defs>
     <path id="m86e307a9b3" d="M 0 2 
C 0.530406 2 1.03916 1.789267 1.414214 1.414214 
C 1.789267 1.03916 2 0.530406 2 0 
C 2 -0.530406 1.789267 -1.03916 1.414214 -1.414214 
C 1.03916 -1.789267 0.530406 -2 0 -2 
C -0.530406 -2 -1.03916 -1.789267 -1.414214 -1.414214 
C -1.789267 -1.03916 -2 -0.530406 -2 0 
C -2 0.530406 -1.789267 1.03916 -1.414214 1.414214 
C -1.03916 1.789267 -0.530406 2 0 2 
z
" style="stroke: #ffffff"/>
    </defs>
    <g clip-path="url(#p611e19931f)">
     <use xlink:href="#m86e307a9b3" x="138.436364" y="324.716633" style="fill: #ffffff; stroke: #ffffff"/>
     <use xlink:href="#m86e307a9b3" x="144.647866" y="338.290459" style="fill: #ffffff; stroke: #ffffff"/>
     <use xlink:href="#m86e307a9b3" x="150.859369" y="335.745367" style="fill: #ffffff; stroke: #ffffff"/>
     <use xlink:href="#m86e307a9b3" x="163.282375" y="317.081356" style="fill: #ffffff; stroke: #ffffff"/>
     <use xlink:href="#m86e307a9b3" x="175.70538" y="294.741102" style="fill: #ffffff; stroke: #ffffff"/>
     <use xlink:href="#m86e307a9b3" x="188.128386" y="275.228727" style="fill: #ffffff; stroke: #ffffff"/>
     <use xlink:href="#m86e307a9b3" x="200.551391" y="257.130293" style="fill: #ffffff; stroke: #ffffff"/>
     <use xlink:href="#m86e307a9b3" x="212.974397" y="239.597435" style="fill: #ffffff; stroke: #ffffff"/>
     <use xlink:href="#m86e307a9b3" x="225.397403" y="224.326881" style="fill: #ffffff; stroke: #ffffff"/>
     <use xlink:href="#m86e307a9b3" x="237.820408" y="210.470267" style="fill: #ffffff; stroke: #ffffff"/>
     <use xlink:href="#m86e307a9b3" x="250.243414" y="197.462018" style="fill: #ffffff; stroke: #ffffff"/>
     <use xlink:href="#m86e307a9b3" x="262.666419" y="187.847225" style="fill: #ffffff; stroke: #ffffff"/>
     <use xlink:href="#m86e307a9b3" x="275.089425" y="178.232431" style="fill: #ffffff; stroke: #ffffff"/>
     <use xlink:href="#m86e307a9b3" x="312.358442" y="159.568421" style="fill: #ffffff; stroke: #ffffff"/>
     <use xlink:href="#m86e307a9b3" x="374.473469" y="159.851209" style="fill: #ffffff; stroke: #ffffff"/>
     <use xlink:href="#m86e307a9b3" x="436.588497" y="175.970127" style="fill: #ffffff; stroke: #ffffff"/>
     <use xlink:href="#m86e307a9b3" x="498.703525" y="193.502985" style="fill: #ffffff; stroke: #ffffff"/>
     <use xlink:href="#m86e307a9b3" x="622.933581" y="216.126028" style="fill: #ffffff; stroke: #ffffff"/>
     <use xlink:href="#m86e307a9b3" x="747.163636" y="237.617919" style="fill: #ffffff; stroke: #ffffff"/>
    </g>
   </g>
   <g id="matplotlib.axis_1">
    <g id="xtick_1">
     <g id="line2d_1">
      <path d="M 126.013358 384.48 
L 126.013358 51.84 
" clip-path="url(#p611e19931f)" style="fill: none; stroke: #ffffff; stroke-opacity: 0.24; stroke-width: 0.75; stroke-linecap: square"/>
     </g>
     <g id="line2d_2">
      <defs>
       <path id="m5502fe5b95" d="M 0 0 
L 0 8.25 
" style="stroke: #ffffff; stroke-opacity: 0.85098; stroke-width: 0.75"/>
      </defs>
      <g>
       <use xlink:href="#m5502fe5b95" x="126.013358" y="384.48" style="fill: #ffffff; fill-opacity: 0.239216; stroke: #ffffff; stroke-opacity: 0.85098; stroke-width: 0.75"/>
      </g>
     </g>
     <g id="text_1">
      <!-- 0 -->
      <g style="fill: #ffffff; opacity: 0.85098" transform="translate(123.150233 404.568594) scale(0.09 -0.09)">
       <defs>
        <path id="DejaVuSans-30" d="M 2034 4250 
Q 1547 4250 1301 3770 
Q 1056 3291 1056 2328 
Q 1056 1369 1301 889 
Q 1547 409 2034 409 
Q 2525 409 2770 889 
Q 3016 1369 3016 2328 
Q 3016 3291 2770 3770 
Q 2525 4250 2034 4250 
z
M 2034 4750 
Q 2819 4750 3233 4129 
Q 3647 3509 3647 2328 
Q 3647 1150 3233 529 
Q 2819 -91 2034 -91 
Q 1250 -91 836 529 
Q 422 1150 422 2328 
Q 422 3509 836 4129 
Q 1250 4750 2034 4750 
z
" transform="scale(0.015625)"/>
       </defs>
       <use xlink:href="#DejaVuSans-30"/>
      </g>
     </g>
    </g>
    <g id="xtick_2">
     <g id="line2d_3">
      <path d="M 250.243414 384.48 
L 250.243414 51.84 
" clip-path="url(#p611e19931f)" style="fill: none; stroke: #ffffff; stroke-opacity: 0.24; stroke-width: 0.75; stroke-linecap: square"/>
     </g>
     <g id="line2d_4">
      <g>
       <use xlink:href="#m5502fe5b95" x="250.243414" y="384.48" style="fill: #ffffff; fill-opacity: 0.239216; stroke: #ffffff; stroke-opacity: 0.85098; stroke-width: 0.75"/>
      </g>
     </g>
     <g id="text_2">
      <!-- 10 -->
      <g style="fill: #ffffff; opacity: 0.85098" transform="translate(244.517164 404.568594) scale(0.09 -0.09)">
       <defs>
        <path id="DejaVuSans-31" d="M 794 531 
L 1825 531 
L 1825 4091 
L 703 3866 
L 703 4441 
L 1819 4666 
L 2450 4666 
L 2450 531 
L 3481 531 
L 3481 0 
L 794 0 
L 794 531 
z
" transform="scale(0.015625)"/>
       </defs>
       <use xlink:href="#DejaVuSans-31"/>
       <use xlink:href="#DejaVuSans-30" x="63.623047"/>
      </g>
     </g>
    </g>
    <g id="xtick_3">
     <g id="line2d_5">
      <path d="M 374.473469 384.48 
L 374.473469 51.84 
" clip-path="url(#p611e19931f)" style="fill: none; stroke: #ffffff; stroke-opacity: 0.24; stroke-width: 0.75; stroke-linecap: square"/>
     </g>
     <g id="line2d_6">
      <g>
       <use xlink:href="#m5502fe5b95" x="374.473469" y="384.48" style="fill: #ffffff; fill-opacity: 0.239216; stroke: #ffffff; stroke-opacity: 0.85098; stroke-width: 0.75"/>
      </g>
     </g>
     <g id="text_3">
      <!-- 20 -->
      <g style="fill: #ffffff; opacity: 0.85098" transform="translate(368.747219 404.568594) scale(0.09 -0.09)">
       <defs>
        <path id="DejaVuSans-32" d="M 1228 531 
L 3431 531 
L 3431 0 
L 469 0 
L 469 531 
Q 828 903 1448 1529 
Q 2069 2156 2228 2338 
Q 2531 2678 2651 2914 
Q 2772 3150 2772 3378 
Q 2772 3750 2511 3984 
Q 2250 4219 1831 4219 
Q 1534 4219 1204 4116 
Q 875 4013 500 3803 
L 500 4441 
Q 881 4594 1212 4672 
Q 1544 4750 1819 4750 
Q 2544 4750 2975 4387 
Q 3406 4025 3406 3419 
Q 3406 3131 3298 2873 
Q 3191 2616 2906 2266 
Q 2828 2175 2409 1742 
Q 1991 1309 1228 531 
z
" transform="scale(0.015625)"/>
       </defs>
       <use xlink:href="#DejaVuSans-32"/>
       <use xlink:href="#DejaVuSans-30" x="63.623047"/>
      </g>
     </g>
    </g>
    <g id="xtick_4">
     <g id="line2d_7">
      <path d="M 498.703525 384.48 
L 498.703525 51.84 
" clip-path="url(#p611e19931f)" style="fill: none; stroke: #ffffff; stroke-opacity: 0.24; stroke-width: 0.75; stroke-linecap: square"/>
     </g>
     <g id="line2d_8">
      <g>
       <use xlink:href="#m5502fe5b95" x="498.703525" y="384.48" style="fill: #ffffff; fill-opacity: 0.239216; stroke: #ffffff; stroke-opacity: 0.85098; stroke-width: 0.75"/>
      </g>
     </g>
     <g id="text_4">
      <!-- 30 -->
      <g style="fill: #ffffff; opacity: 0.85098" transform="translate(492.977275 404.568594) scale(0.09 -0.09)">
       <defs>
        <path id="DejaVuSans-33" d="M 2597 2516 
Q 3050 2419 3304 2112 
Q 3559 1806 3559 1356 
Q 3559 666 3084 287 
Q 2609 -91 1734 -91 
Q 1441 -91 1130 -33 
Q 819 25 488 141 
L 488 750 
Q 750 597 1062 519 
Q 1375 441 1716 441 
Q 2309 441 2620 675 
Q 2931 909 2931 1356 
Q 2931 1769 2642 2001 
Q 2353 2234 1838 2234 
L 1294 2234 
L 1294 2753 
L 1863 2753 
Q 2328 2753 2575 2939 
Q 2822 3125 2822 3475 
Q 2822 3834 2567 4026 
Q 2313 4219 1838 4219 
Q 1578 4219 1281 4162 
Q 984 4106 628 3988 
L 628 4550 
Q 988 4650 1302 4700 
Q 1616 4750 1894 4750 
Q 2613 4750 3031 4423 
Q 3450 4097 3450 3541 
Q 3450 3153 3228 2886 
Q 3006 2619 2597 2516 
z
" transform="scale(0.015625)"/>
       </defs>
       <use xlink:href="#DejaVuSans-33"/>
       <use xlink:href="#DejaVuSans-30" x="63.623047"/>
      </g>
     </g>
    </g>
    <g id="xtick_5">
     <g id="line2d_9">
      <path d="M 622.933581 384.48 
L 622.933581 51.84 
" clip-path="url(#p611e19931f)" style="fill: none; stroke: #ffffff; stroke-opacity: 0.24; stroke-width: 0.75; stroke-linecap: square"/>
     </g>
     <g id="line2d_10">
      <g>
       <use xlink:href="#m5502fe5b95" x="622.933581" y="384.48" style="fill: #ffffff; fill-opacity: 0.239216; stroke: #ffffff; stroke-opacity: 0.85098; stroke-width: 0.75"/>
      </g>
     </g>
     <g id="text_5">
      <!-- 40 -->
      <g style="fill: #ffffff; opacity: 0.85098" transform="translate(617.207331 404.568594) scale(0.09 -0.09)">
       <defs>
        <path id="DejaVuSans-34" d="M 2419 4116 
L 825 1625 
L 2419 1625 
L 2419 4116 
z
M 2253 4666 
L 3047 4666 
L 3047 1625 
L 3713 1625 
L 3713 1100 
L 3047 1100 
L 3047 0 
L 2419 0 
L 2419 1100 
L 313 1100 
L 313 1709 
L 2253 4666 
z
" transform="scale(0.015625)"/>
       </defs>
       <use xlink:href="#DejaVuSans-34"/>
       <use xlink:href="#DejaVuSans-30" x="63.623047"/>
      </g>
     </g>
    </g>
    <g id="xtick_6">
     <g id="line2d_11">
      <path d="M 747.163636 384.48 
L 747.163636 51.84 
" clip-path="url(#p611e19931f)" style="fill: none; stroke: #ffffff; stroke-opacity: 0.24; stroke-width: 0.75; stroke-linecap: square"/>
     </g>
     <g id="line2d_12">
      <g>
       <use xlink:href="#m5502fe5b95" x="747.163636" y="384.48" style="fill: #ffffff; fill-opacity: 0.239216; stroke: #ffffff; stroke-opacity: 0.85098; stroke-width: 0.75"/>
      </g>
     </g>
     <g id="text_6">
      <!-- 50 -->
      <g style="fill: #ffffff; opacity: 0.85098" transform="translate(741.437386 404.568594) scale(0.09 -0.09)">
       <defs>
        <path id="DejaVuSans-35" d="M 691 4666 
L 3169 4666 
L 3169 4134 
L 1269 4134 
L 1269 2991 
Q 1406 3038 1543 3061 
Q 1681 3084 1819 3084 
Q 2600 3084 3056 2656 
Q 3513 2228 3513 1497 
Q 3513 744 3044 326 
Q 2575 -91 1722 -91 
Q 1428 -91 1123 -41 
Q 819 9 494 109 
L 494 744 
Q 775 591 1075 516 
Q 1375 441 1709 441 
Q 2250 441 2565 725 
Q 2881 1009 2881 1497 
Q 2881 1984 2565 2268 
Q 2250 2553 1709 2553 
Q 1456 2553 1204 2497 
Q 953 2441 691 2322 
L 691 4666 
z
" transform="scale(0.015625)"/>
       </defs>
       <use xlink:href="#DejaVuSans-35"/>
       <use xlink:href="#DejaVuSans-30" x="63.623047"/>
      </g>
     </g>
    </g>
    <g id="xtick_7">
     <g id="line2d_13">
      <defs>
       <path id="m5e1cdd9775" d="M 0 0 
L 0 4.125 
" style="stroke: #ffffff; stroke-opacity: 0.85098; stroke-width: 0.75"/>
      </defs>
      <g>
       <use xlink:href="#m5e1cdd9775" x="150.859369" y="384.48" style="fill: #ffffff; fill-opacity: 0.239216; stroke: #ffffff; stroke-opacity: 0.85098; stroke-width: 0.75"/>
      </g>
     </g>
    </g>
    <g id="xtick_8">
     <g id="line2d_14">
      <g>
       <use xlink:href="#m5e1cdd9775" x="175.70538" y="384.48" style="fill: #ffffff; fill-opacity: 0.239216; stroke: #ffffff; stroke-opacity: 0.85098; stroke-width: 0.75"/>
      </g>
     </g>
    </g>
    <g id="xtick_9">
     <g id="line2d_15">
      <g>
       <use xlink:href="#m5e1cdd9775" x="200.551391" y="384.48" style="fill: #ffffff; fill-opacity: 0.239216; stroke: #ffffff; stroke-opacity: 0.85098; stroke-width: 0.75"/>
      </g>
     </g>
    </g>
    <g id="xtick_10">
     <g id="line2d_16">
      <g>
       <use xlink:href="#m5e1cdd9775" x="225.397403" y="384.48" style="fill: #ffffff; fill-opacity: 0.239216; stroke: #ffffff; stroke-opacity: 0.85098; stroke-width: 0.75"/>
      </g>
     </g>
    </g>
    <g id="xtick_11">
     <g id="line2d_17">
      <g>
       <use xlink:href="#m5e1cdd9775" x="275.089425" y="384.48" style="fill: #ffffff; fill-opacity: 0.239216; stroke: #ffffff; stroke-opacity: 0.85098; stroke-width: 0.75"/>
      </g>
     </g>
    </g>
    <g id="xtick_12">
     <g id="line2d_18">
      <g>
       <use xlink:href="#m5e1cdd9775" x="299.935436" y="384.48" style="fill: #ffffff; fill-opacity: 0.239216; stroke: #ffffff; stroke-opacity: 0.85098; stroke-width: 0.75"/>
      </g>
     </g>
    </g>
    <g id="xtick_13">
     <g id="line2d_19">
      <g>
       <use xlink:href="#m5e1cdd9775" x="324.781447" y="384.48" style="fill: #ffffff; fill-opacity: 0.239216; stroke: #ffffff; stroke-opacity: 0.85098; stroke-width: 0.75"/>
      </g>
     </g>
    </g>
    <g id="xtick_14">
     <g id="line2d_20">
      <g>
       <use xlink:href="#m5e1cdd9775" x="349.627458" y="384.48" style="fill: #ffffff; fill-opacity: 0.239216; stroke: #ffffff; stroke-opacity: 0.85098; stroke-width: 0.75"/>
      </g>
     </g>
    </g>
    <g id="xtick_15">
     <g id="line2d_21">
      <g>
       <use xlink:href="#m5e1cdd9775" x="399.319481" y="384.48" style="fill: #ffffff; fill-opacity: 0.239216; stroke: #ffffff; stroke-opacity: 0.85098; stroke-width: 0.75"/>
      </g>
     </g>
    </g>
    <g id="xtick_16">
     <g id="line2d_22">
      <g>
       <use xlink:href="#m5e1cdd9775" x="424.165492" y="384.48" style="fill: #ffffff; fill-opacity: 0.239216; stroke: #ffffff; stroke-opacity: 0.85098; stroke-width: 0.75"/>
      </g>
     </g>
    </g>
    <g id="xtick_17">
     <g id="line2d_23">
      <g>
       <use xlink:href="#m5e1cdd9775" x="449.011503" y="384.48" style="fill: #ffffff; fill-opacity: 0.239216; stroke: #ffffff; stroke-opacity: 0.85098; stroke-width: 0.75"/>
      </g>
     </g>
    </g>
    <g id="xtick_18">
     <g id="line2d_24">
      <g>
       <use xlink:href="#m5e1cdd9775" x="473.857514" y="384.48" style="fill: #ffffff; fill-opacity: 0.239216; stroke: #ffffff; stroke-opacity: 0.85098; stroke-width: 0.75"/>
      </g>
     </g>
    </g>
    <g id="xtick_19">
     <g id="line2d_25">
      <g>
       <use xlink:href="#m5e1cdd9775" x="523.549536" y="384.48" style="fill: #ffffff; fill-opacity: 0.239216; stroke: #ffffff; stroke-opacity: 0.85098; stroke-width: 0.75"/>
      </g>
     </g>
    </g>
    <g id="xtick_20">
     <g id="line2d_26">
      <g>
       <use xlink:href="#m5e1cdd9775" x="548.395547" y="384.48" style="fill: #ffffff; fill-opacity: 0.239216; stroke: #ffffff; stroke-opacity: 0.85098; stroke-width: 0.75"/>
      </g>
     </g>
    </g>
    <g id="xtick_21">
     <g id="line2d_27">
      <g>
       <use xlink:href="#m5e1cdd9775" x="573.241558" y="384.48" style="fill: #ffffff; fill-opacity: 0.239216; stroke: #ffffff; stroke-opacity: 0.85098; stroke-width: 0.75"/>
      </g>
     </g>
    </g>
    <g id="xtick_22">
     <g id="line2d_28">
      <g>
       <use xlink:href="#m5e1cdd9775" x="598.08757" y="384.48" style="fill: #ffffff; fill-opacity: 0.239216; stroke: #ffffff; stroke-opacity: 0.85098; stroke-width: 0.75"/>
      </g>
     </g>
    </g>
    <g id="xtick_23">
     <g id="line2d_29">
      <g>
       <use xlink:href="#m5e1cdd9775" x="647.779592" y="384.48" style="fill: #ffffff; fill-opacity: 0.239216; stroke: #ffffff; stroke-opacity: 0.85098; stroke-width: 0.75"/>
      </g>
     </g>
    </g>
    <g id="xtick_24">
     <g id="line2d_30">
      <g>
       <use xlink:href="#m5e1cdd9775" x="672.625603" y="384.48" style="fill: #ffffff; fill-opacity: 0.239216; stroke: #ffffff; stroke-opacity: 0.85098; stroke-width: 0.75"/>
      </g>
     </g>
    </g>
    <g id="xtick_25">
     <g id="line2d_31">
      <g>
       <use xlink:href="#m5e1cdd9775" x="697.471614" y="384.48" style="fill: #ffffff; fill-opacity: 0.239216; stroke: #ffffff; stroke-opacity: 0.85098; stroke-width: 0.75"/>
      </g>
     </g>
    </g>
    <g id="xtick_26">
     <g id="line2d_32">
      <g>
       <use xlink:href="#m5e1cdd9775" x="722.317625" y="384.48" style="fill: #ffffff; fill-opacity: 0.239216; stroke: #ffffff; stroke-opacity: 0.85098; stroke-width: 0.75"/>
      </g>
     </g>
    </g>
    <g id="xtick_27">
     <g id="line2d_33">
      <g>
       <use xlink:href="#m5e1cdd9775" x="772.009647" y="384.48" style="fill: #ffffff; fill-opacity: 0.239216; stroke: #ffffff; stroke-opacity: 0.85098; stroke-width: 0.75"/>
      </g>
     </g>
    </g>
   </g>
   <g id="matplotlib.axis_2">
    <g id="ytick_1">
     <g id="line2d_34">
      <path d="M 108 343.94622 
L 777.6 343.94622 
" clip-path="url(#p611e19931f)" style="fill: none; stroke: #ffffff; stroke-opacity: 0.24; stroke-width: 0.75; stroke-linecap: square"/>
     </g>
     <g id="line2d_35">
      <defs>
       <path id="m0d5ecdf4d1" d="M 0 0 
L -8.25 0 
" style="stroke: #ffffff; stroke-opacity: 0.85098; stroke-width: 0.75"/>
      </defs>
      <g>
       <use xlink:href="#m0d5ecdf4d1" x="108" y="343.94622" style="fill: #ffffff; fill-opacity: 0.239216; stroke: #ffffff; stroke-opacity: 0.85098; stroke-width: 0.75"/>
      </g>
     </g>
     <g id="text_7">
      <!-- 2.0 -->
      <g style="fill: #ffffff; opacity: 0.85098" transform="translate(80.437187 347.365517) scale(0.09 -0.09)">
       <defs>
        <path id="DejaVuSans-2e" d="M 684 794 
L 1344 794 
L 1344 0 
L 684 0 
L 684 794 
z
" transform="scale(0.015625)"/>
       </defs>
       <use xlink:href="#DejaVuSans-32"/>
       <use xlink:href="#DejaVuSans-2e" x="63.623047"/>
       <use xlink:href="#DejaVuSans-30" x="95.410156"/>
      </g>
     </g>
    </g>
    <g id="ytick_2">
     <g id="line2d_36">
      <path d="M 108 287.388613 
L 777.6 287.388613 
" clip-path="url(#p611e19931f)" style="fill: none; stroke: #ffffff; stroke-opacity: 0.24; stroke-width: 0.75; stroke-linecap: square"/>
     </g>
     <g id="line2d_37">
      <g>
       <use xlink:href="#m0d5ecdf4d1" x="108" y="287.388613" style="fill: #ffffff; fill-opacity: 0.239216; stroke: #ffffff; stroke-opacity: 0.85098; stroke-width: 0.75"/>
      </g>
     </g>
     <g id="text_8">
      <!-- 2.2 -->
      <g style="fill: #ffffff; opacity: 0.85098" transform="translate(80.437187 290.80791) scale(0.09 -0.09)">
       <use xlink:href="#DejaVuSans-32"/>
       <use xlink:href="#DejaVuSans-2e" x="63.623047"/>
       <use xlink:href="#DejaVuSans-32" x="95.410156"/>
      </g>
     </g>
    </g>
    <g id="ytick_3">
     <g id="line2d_38">
      <path d="M 108 230.831006 
L 777.6 230.831006 
" clip-path="url(#p611e19931f)" style="fill: none; stroke: #ffffff; stroke-opacity: 0.24; stroke-width: 0.75; stroke-linecap: square"/>
     </g>
     <g id="line2d_39">
      <g>
       <use xlink:href="#m0d5ecdf4d1" x="108" y="230.831006" style="fill: #ffffff; fill-opacity: 0.239216; stroke: #ffffff; stroke-opacity: 0.85098; stroke-width: 0.75"/>
      </g>
     </g>
     <g id="text_9">
      <!-- 2.4 -->
      <g style="fill: #ffffff; opacity: 0.85098" transform="translate(80.437187 234.250303) scale(0.09 -0.09)">
       <use xlink:href="#DejaVuSans-32"/>
       <use xlink:href="#DejaVuSans-2e" x="63.623047"/>
       <use xlink:href="#DejaVuSans-34" x="95.410156"/>
      </g>
     </g>
    </g>
    <g id="ytick_4">
     <g id="line2d_40">
      <path d="M 108 174.273399 
L 777.6 174.273399 
" clip-path="url(#p611e19931f)" style="fill: none; stroke: #ffffff; stroke-opacity: 0.24; stroke-width: 0.75; stroke-linecap: square"/>
     </g>
     <g id="line2d_41">
      <g>
       <use xlink:href="#m0d5ecdf4d1" x="108" y="174.273399" style="fill: #ffffff; fill-opacity: 0.239216; stroke: #ffffff; stroke-opacity: 0.85098; stroke-width: 0.75"/>
      </g>
     </g>
     <g id="text_10">
      <!-- 2.6 -->
      <g style="fill: #ffffff; opacity: 0.85098" transform="translate(80.437187 177.692696) scale(0.09 -0.09)">
       <defs>
        <path id="DejaVuSans-36" d="M 2113 2584 
Q 1688 2584 1439 2293 
Q 1191 2003 1191 1497 
Q 1191 994 1439 701 
Q 1688 409 2113 409 
Q 2538 409 2786 701 
Q 3034 994 3034 1497 
Q 3034 2003 2786 2293 
Q 2538 2584 2113 2584 
z
M 3366 4563 
L 3366 3988 
Q 3128 4100 2886 4159 
Q 2644 4219 2406 4219 
Q 1781 4219 1451 3797 
Q 1122 3375 1075 2522 
Q 1259 2794 1537 2939 
Q 1816 3084 2150 3084 
Q 2853 3084 3261 2657 
Q 3669 2231 3669 1497 
Q 3669 778 3244 343 
Q 2819 -91 2113 -91 
Q 1303 -91 875 529 
Q 447 1150 447 2328 
Q 447 3434 972 4092 
Q 1497 4750 2381 4750 
Q 2619 4750 2861 4703 
Q 3103 4656 3366 4563 
z
" transform="scale(0.015625)"/>
       </defs>
       <use xlink:href="#DejaVuSans-32"/>
       <use xlink:href="#DejaVuSans-2e" x="63.623047"/>
       <use xlink:href="#DejaVuSans-36" x="95.410156"/>
      </g>
     </g>
    </g>
    <g id="ytick_5">
     <g id="line2d_42">
      <path d="M 108 117.715792 
L 777.6 117.715792 
" clip-path="url(#p611e19931f)" style="fill: none; stroke: #ffffff; stroke-opacity: 0.24; stroke-width: 0.75; stroke-linecap: square"/>
     </g>
     <g id="line2d_43">
      <g>
       <use xlink:href="#m0d5ecdf4d1" x="108" y="117.715792" style="fill: #ffffff; fill-opacity: 0.239216; stroke: #ffffff; stroke-opacity: 0.85098; stroke-width: 0.75"/>
      </g>
     </g>
     <g id="text_11">
      <!-- 2.8 -->
      <g style="fill: #ffffff; opacity: 0.85098" transform="translate(80.437187 121.135089) scale(0.09 -0.09)">
       <defs>
        <path id="DejaVuSans-38" d="M 2034 2216 
Q 1584 2216 1326 1975 
Q 1069 1734 1069 1313 
Q 1069 891 1326 650 
Q 1584 409 2034 409 
Q 2484 409 2743 651 
Q 3003 894 3003 1313 
Q 3003 1734 2745 1975 
Q 2488 2216 2034 2216 
z
M 1403 2484 
Q 997 2584 770 2862 
Q 544 3141 544 3541 
Q 544 4100 942 4425 
Q 1341 4750 2034 4750 
Q 2731 4750 3128 4425 
Q 3525 4100 3525 3541 
Q 3525 3141 3298 2862 
Q 3072 2584 2669 2484 
Q 3125 2378 3379 2068 
Q 3634 1759 3634 1313 
Q 3634 634 3220 271 
Q 2806 -91 2034 -91 
Q 1263 -91 848 271 
Q 434 634 434 1313 
Q 434 1759 690 2068 
Q 947 2378 1403 2484 
z
M 1172 3481 
Q 1172 3119 1398 2916 
Q 1625 2713 2034 2713 
Q 2441 2713 2670 2916 
Q 2900 3119 2900 3481 
Q 2900 3844 2670 4047 
Q 2441 4250 2034 4250 
Q 1625 4250 1398 4047 
Q 1172 3844 1172 3481 
z
" transform="scale(0.015625)"/>
       </defs>
       <use xlink:href="#DejaVuSans-32"/>
       <use xlink:href="#DejaVuSans-2e" x="63.623047"/>
       <use xlink:href="#DejaVuSans-38" x="95.410156"/>
      </g>
     </g>
    </g>
    <g id="ytick_6">
     <g id="line2d_44">
      <path d="M 108 61.158185 
L 777.6 61.158185 
" clip-path="url(#p611e19931f)" style="fill: none; stroke: #ffffff; stroke-opacity: 0.24; stroke-width: 0.75; stroke-linecap: square"/>
     </g>
     <g id="line2d_45">
      <g>
       <use xlink:href="#m0d5ecdf4d1" x="108" y="61.158185" style="fill: #ffffff; fill-opacity: 0.239216; stroke: #ffffff; stroke-opacity: 0.85098; stroke-width: 0.75"/>
      </g>
     </g>
     <g id="text_12">
      <!-- 3.0 -->
      <g style="fill: #ffffff; opacity: 0.85098" transform="translate(80.437187 64.577482) scale(0.09 -0.09)">
       <use xlink:href="#DejaVuSans-33"/>
       <use xlink:href="#DejaVuSans-2e" x="63.623047"/>
       <use xlink:href="#DejaVuSans-30" x="95.410156"/>
      </g>
     </g>
    </g>
    <g id="ytick_7">
     <g id="line2d_46">
      <defs>
       <path id="m2c45831250" d="M 0 0 
L -4.125 0 
" style="stroke: #ffffff; stroke-opacity: 0.85098; stroke-width: 0.75"/>
      </defs>
      <g>
       <use xlink:href="#m2c45831250" x="108" y="372.225023" style="fill: #ffffff; fill-opacity: 0.239216; stroke: #ffffff; stroke-opacity: 0.85098; stroke-width: 0.75"/>
      </g>
     </g>
    </g>
    <g id="ytick_8">
     <g id="line2d_47">
      <g>
       <use xlink:href="#m2c45831250" x="108" y="358.085621" style="fill: #ffffff; fill-opacity: 0.239216; stroke: #ffffff; stroke-opacity: 0.85098; stroke-width: 0.75"/>
      </g>
     </g>
    </g>
    <g id="ytick_9">
     <g id="line2d_48">
      <g>
       <use xlink:href="#m2c45831250" x="108" y="329.806818" style="fill: #ffffff; fill-opacity: 0.239216; stroke: #ffffff; stroke-opacity: 0.85098; stroke-width: 0.75"/>
      </g>
     </g>
    </g>
    <g id="ytick_10">
     <g id="line2d_49">
      <g>
       <use xlink:href="#m2c45831250" x="108" y="315.667416" style="fill: #ffffff; fill-opacity: 0.239216; stroke: #ffffff; stroke-opacity: 0.85098; stroke-width: 0.75"/>
      </g>
     </g>
    </g>
    <g id="ytick_11">
     <g id="line2d_50">
      <g>
       <use xlink:href="#m2c45831250" x="108" y="301.528014" style="fill: #ffffff; fill-opacity: 0.239216; stroke: #ffffff; stroke-opacity: 0.85098; stroke-width: 0.75"/>
      </g>
     </g>
    </g>
    <g id="ytick_12">
     <g id="line2d_51">
      <g>
       <use xlink:href="#m2c45831250" x="108" y="273.249211" style="fill: #ffffff; fill-opacity: 0.239216; stroke: #ffffff; stroke-opacity: 0.85098; stroke-width: 0.75"/>
      </g>
     </g>
    </g>
    <g id="ytick_13">
     <g id="line2d_52">
      <g>
       <use xlink:href="#m2c45831250" x="108" y="259.109809" style="fill: #ffffff; fill-opacity: 0.239216; stroke: #ffffff; stroke-opacity: 0.85098; stroke-width: 0.75"/>
      </g>
     </g>
    </g>
    <g id="ytick_14">
     <g id="line2d_53">
      <g>
       <use xlink:href="#m2c45831250" x="108" y="244.970408" style="fill: #ffffff; fill-opacity: 0.239216; stroke: #ffffff; stroke-opacity: 0.85098; stroke-width: 0.75"/>
      </g>
     </g>
    </g>
    <g id="ytick_15">
     <g id="line2d_54">
      <g>
       <use xlink:href="#m2c45831250" x="108" y="216.691604" style="fill: #ffffff; fill-opacity: 0.239216; stroke: #ffffff; stroke-opacity: 0.85098; stroke-width: 0.75"/>
      </g>
     </g>
    </g>
    <g id="ytick_16">
     <g id="line2d_55">
      <g>
       <use xlink:href="#m2c45831250" x="108" y="202.552202" style="fill: #ffffff; fill-opacity: 0.239216; stroke: #ffffff; stroke-opacity: 0.85098; stroke-width: 0.75"/>
      </g>
     </g>
    </g>
    <g id="ytick_17">
     <g id="line2d_56">
      <g>
       <use xlink:href="#m2c45831250" x="108" y="188.412801" style="fill: #ffffff; fill-opacity: 0.239216; stroke: #ffffff; stroke-opacity: 0.85098; stroke-width: 0.75"/>
      </g>
     </g>
    </g>
    <g id="ytick_18">
     <g id="line2d_57">
      <g>
       <use xlink:href="#m2c45831250" x="108" y="160.133997" style="fill: #ffffff; fill-opacity: 0.239216; stroke: #ffffff; stroke-opacity: 0.85098; stroke-width: 0.75"/>
      </g>
     </g>
    </g>
    <g id="ytick_19">
     <g id="line2d_58">
      <g>
       <use xlink:href="#m2c45831250" x="108" y="145.994596" style="fill: #ffffff; fill-opacity: 0.239216; stroke: #ffffff; stroke-opacity: 0.85098; stroke-width: 0.75"/>
      </g>
     </g>
    </g>
    <g id="ytick_20">
     <g id="line2d_59">
      <g>
       <use xlink:href="#m2c45831250" x="108" y="131.855194" style="fill: #ffffff; fill-opacity: 0.239216; stroke: #ffffff; stroke-opacity: 0.85098; stroke-width: 0.75"/>
      </g>
     </g>
    </g>
    <g id="ytick_21">
     <g id="line2d_60">
      <g>
       <use xlink:href="#m2c45831250" x="108" y="103.57639" style="fill: #ffffff; fill-opacity: 0.239216; stroke: #ffffff; stroke-opacity: 0.85098; stroke-width: 0.75"/>
      </g>
     </g>
    </g>
    <g id="ytick_22">
     <g id="line2d_61">
      <g>
       <use xlink:href="#m2c45831250" x="108" y="89.436989" style="fill: #ffffff; fill-opacity: 0.239216; stroke: #ffffff; stroke-opacity: 0.85098; stroke-width: 0.75"/>
      </g>
     </g>
    </g>
    <g id="ytick_23">
     <g id="line2d_62">
      <g>
       <use xlink:href="#m2c45831250" x="108" y="75.297587" style="fill: #ffffff; fill-opacity: 0.239216; stroke: #ffffff; stroke-opacity: 0.85098; stroke-width: 0.75"/>
      </g>
     </g>
    </g>
   </g>
   <g id="line2d_63">
    <path d="M 138.436364 324.716633 
L 141.143942 332.019375 
L 142.577365 335.219691 
L 143.692251 337.145553 
L 144.488597 338.136037 
L 145.284944 338.75735 
L 145.922021 338.999194 
L 146.559098 339.038699 
L 147.355445 338.838139 
L 148.151791 338.401259 
L 149.107407 337.627511 
L 150.381561 336.298309 
L 152.452062 333.79188 
L 155.000371 330.353955 
L 157.867218 326.081024 
L 161.052605 320.912727 
L 164.875068 314.259535 
L 178.253689 290.461314 
L 182.394691 283.869986 
L 187.809847 275.700048 
L 197.684544 261.281856 
L 209.789011 243.929188 
L 214.56709 237.501851 
L 219.026631 231.873275 
L 224.123248 225.798074 
L 230.49402 218.57666 
L 244.828257 202.797242 
L 248.650721 198.941695 
L 251.517568 196.342731 
L 254.702954 193.753065 
L 259.481033 190.192916 
L 265.533267 185.653872 
L 277.000656 176.836378 
L 281.778736 173.562582 
L 286.556815 170.593161 
L 291.334894 167.92226 
L 296.112973 165.544029 
L 300.891052 163.452616 
L 305.669131 161.642168 
L 310.44721 160.106834 
L 313.951135 159.152327 
L 318.729214 158.076461 
L 323.507293 157.247598 
L 328.285372 156.650802 
L 333.063451 156.271135 
L 337.84153 156.093659 
L 342.619609 156.103437 
L 348.990381 156.381941 
L 355.361153 156.931378 
L 361.731925 157.716339 
L 368.102697 158.701419 
L 376.066162 160.160303 
L 385.622321 162.173671 
L 395.178479 164.428895 
L 406.32733 167.309549 
L 419.068874 170.849021 
L 436.588497 175.970127 
L 436.588497 175.970127 
L 471.627744 186.250701 
L 485.961981 190.21235 
L 498.703525 193.502985 
L 498.703525 193.502985 
L 511.445069 196.525454 
L 524.186613 199.297851 
L 536.928158 201.854853 
L 552.855088 204.801032 
L 571.967404 208.059069 
L 597.450492 212.124574 
L 638.860511 218.704603 
L 667.528985 223.52195 
L 702.568232 229.638613 
L 747.163636 237.617919 
L 747.163636 237.617919 
" clip-path="url(#p611e19931f)" style="fill: none; stroke: #e31a1c; stroke-width: 1.5; stroke-linecap: square"/>
   </g>
   <g id="line2d_64">
    <path d="M 138.436364 359.715023 
L 139.391979 364.484767 
L 140.188326 367.360406 
L 140.825403 368.798539 
L 141.303211 369.307381 
L 141.62175 369.351474 
L 141.940288 369.144635 
L 142.258827 368.67416 
L 142.736635 367.446335 
L 143.214443 365.553859 
L 143.85152 361.922542 
L 144.488597 356.931749 
L 148.629599 319.656541 
L 149.744484 312.098582 
L 150.7001 307.180477 
L 155.637448 286.421385 
L 160.415527 264.875051 
L 165.830684 240.609379 
L 168.378992 230.387903 
L 170.290224 223.550732 
L 172.201456 217.575794 
L 173.794149 213.353843 
L 175.068303 210.528773 
L 176.979535 207.01123 
L 180.801998 199.821549 
L 183.668845 193.929657 
L 186.217154 188.146281 
L 188.446925 182.55022 
L 193.862081 168.13149 
L 198.321621 155.655482 
L 203.736778 140.363443 
L 205.648009 135.772531 
L 207.559241 131.749086 
L 209.151934 128.86323 
L 210.744627 126.430623 
L 212.018781 124.828953 
L 213.611474 123.235761 
L 217.752476 119.149906 
L 220.937862 115.700969 
L 223.80471 112.273124 
L 226.353018 108.893195 
L 228.582789 105.539445 
L 230.812559 101.743287 
L 233.042329 97.458081 
L 235.272099 92.637189 
L 237.50187 87.233973 
L 239.094563 83.388878 
L 240.368717 80.966832 
L 241.324333 79.560839 
L 242.279949 78.519357 
L 243.235564 77.853745 
L 243.872642 77.62443 
L 244.509719 77.570582 
L 245.146796 77.695566 
L 245.783873 78.002748 
L 246.42095 78.495493 
L 247.376566 79.589904 
L 248.332182 81.120761 
L 249.287798 83.099425 
L 250.561952 86.407993 
L 251.836107 89.48918 
L 253.110261 91.90271 
L 254.065877 93.254803 
L 255.021493 94.198767 
L 255.65857 94.594445 
L 256.295647 94.798392 
L 256.932724 94.806473 
L 257.569802 94.614551 
L 258.206879 94.218491 
L 258.843956 93.614156 
L 259.799572 92.308091 
L 260.755188 90.510142 
L 261.710803 88.206352 
L 262.984958 84.366208 
L 264.577651 79.676587 
L 266.170344 75.667347 
L 267.444498 72.972878 
L 268.718653 70.753363 
L 269.992807 69.026362 
L 270.948423 68.064888 
L 271.904039 67.397738 
L 272.859655 67.032323 
L 273.81527 66.976048 
L 274.770886 67.236324 
L 276.045041 67.939195 
L 278.911888 69.752015 
L 281.778736 71.829936 
L 284.645583 74.167901 
L 287.51243 76.760855 
L 290.379278 79.603741 
L 293.246125 82.691502 
L 297.068589 87.180698 
L 300.891052 92.084254 
L 304.713515 97.390188 
L 308.535978 103.086514 
L 312.358442 109.161246 
L 312.358442 109.161246 
L 320.321907 122.459741 
L 334.656144 147.041448 
L 344.212302 163.22566 
L 350.583074 173.64434 
L 356.953846 183.601149 
L 361.731925 190.680455 
L 366.510004 197.360541 
L 371.288083 203.581657 
L 376.066162 209.312256 
L 385.622321 220.345838 
L 393.585786 229.228935 
L 399.956558 236.061378 
L 406.32733 242.596224 
L 412.698102 248.78362 
L 417.476181 253.16616 
L 422.25426 257.304184 
L 427.032339 261.176658 
L 431.810418 264.762549 
L 436.588497 268.040826 
L 436.588497 268.040826 
L 441.366576 271.051524 
L 446.144655 273.839587 
L 450.922734 276.39135 
L 455.700813 278.693144 
L 460.478893 280.731301 
L 465.256972 282.492154 
L 470.035051 283.962036 
L 474.81313 285.127279 
L 479.591209 285.974216 
L 482.776595 286.355254 
L 485.961981 286.584698 
L 489.147367 286.658499 
L 492.332753 286.572607 
L 495.518139 286.322973 
L 498.703525 285.905546 
L 498.703525 285.905546 
L 511.445069 283.997978 
L 521.001227 282.755749 
L 530.557385 281.740061 
L 540.113544 281.009429 
L 546.484316 280.709601 
L 552.855088 280.57981 
L 559.22586 280.637391 
L 565.596632 280.899683 
L 571.967404 281.384024 
L 578.338176 282.107751 
L 584.708948 283.088202 
L 591.07972 284.342714 
L 597.450492 285.888625 
L 603.821264 287.743273 
L 610.192037 289.923995 
L 616.562809 292.448128 
L 622.933581 295.333012 
L 622.933581 295.333012 
L 648.416669 307.481309 
L 667.528985 316.347212 
L 683.455916 323.515289 
L 699.382846 330.437618 
L 712.12439 335.769823 
L 724.865934 340.895514 
L 737.607478 345.79281 
L 747.163636 349.302734 
L 747.163636 349.302734 
" clip-path="url(#p611e19931f)" style="fill: none; stroke: #33a02c; stroke-width: 1.5; stroke-linecap: square"/>
   </g>
   <g id="patch_3">
    <path d="M 108 384.48 
L 108 51.84 
" style="fill: none; stroke: #ffffff; stroke-opacity: 0.239216; stroke-linejoin: miter; stroke-linecap: square"/>
   </g>
   <g id="patch_4">
    <path d="M 777.6 384.48 
L 777.6 51.84 
" style="fill: none; stroke: #ffffff; stroke-opacity: 0.239216; stroke-linejoin: miter; stroke-linecap: square"/>
   </g>
   <g id="patch_5">
    <path d="M 108 384.48 
L 777.6 384.48 
" style="fill: none; stroke: #ffffff; stroke-opacity: 0.239216; stroke-linejoin: miter; stroke-linecap: square"/>
   </g>
   <g id="patch_6">
    <path d="M 108 51.84 
L 777.6 51.84 
" style="fill: none; stroke: #ffffff; stroke-opacity: 0.239216; stroke-linejoin: miter; stroke-linecap: square"/>
   </g>
   <g id="legend_1">
    <g id="patch_7">
     <path d="M 688.709531 100.040625 
L 773.1 100.040625 
L 773.1 56.34 
L 688.709531 56.34 
z
" style="fill: #ffffff; opacity: 0.12; stroke: #ffffff; stroke-linejoin: miter"/>
    </g>
    <g id="line2d_65">
     <path d="M 692.309531 64.98 
L 701.309531 64.98 
L 710.309531 64.98 
" style="fill: none; stroke: #e31a1c; stroke-width: 1.5; stroke-linecap: square"/>
    </g>
    <g id="text_13">
     <!-- $C^2 spline$ -->
     <g style="fill: #ffffff" transform="translate(717.509531 68.13) scale(0.09 -0.09)">
      <defs>
       <path id="DejaVuSans-Oblique-43" d="M 4447 4306 
L 4319 3641 
Q 4019 3944 3683 4091 
Q 3347 4238 2956 4238 
Q 2422 4238 2017 3981 
Q 1613 3725 1319 3200 
Q 1131 2863 1032 2486 
Q 934 2109 934 1728 
Q 934 1091 1264 756 
Q 1594 422 2222 422 
Q 2656 422 3056 561 
Q 3456 700 3834 978 
L 3688 231 
Q 3316 72 2936 -9 
Q 2556 -91 2175 -91 
Q 1278 -91 773 396 
Q 269 884 269 1753 
Q 269 2309 461 2846 
Q 653 3384 1013 3828 
Q 1394 4300 1883 4525 
Q 2372 4750 3022 4750 
Q 3422 4750 3780 4639 
Q 4138 4528 4447 4306 
z
" transform="scale(0.015625)"/>
       <path id="DejaVuSans-Oblique-73" d="M 3200 3397 
L 3091 2853 
Q 2863 2978 2609 3040 
Q 2356 3103 2088 3103 
Q 1634 3103 1373 2948 
Q 1113 2794 1113 2528 
Q 1113 2219 1719 2053 
Q 1766 2041 1788 2034 
L 1972 1978 
Q 2547 1819 2739 1644 
Q 2931 1469 2931 1166 
Q 2931 609 2489 259 
Q 2047 -91 1331 -91 
Q 1053 -91 747 -37 
Q 441 16 72 128 
L 184 722 
Q 500 559 806 475 
Q 1113 391 1394 391 
Q 1816 391 2080 572 
Q 2344 753 2344 1031 
Q 2344 1331 1650 1516 
L 1591 1531 
L 1394 1581 
Q 956 1697 753 1886 
Q 550 2075 550 2369 
Q 550 2928 970 3256 
Q 1391 3584 2113 3584 
Q 2397 3584 2667 3537 
Q 2938 3491 3200 3397 
z
" transform="scale(0.015625)"/>
       <path id="DejaVuSans-Oblique-70" d="M 3175 2156 
Q 3175 2616 2975 2859 
Q 2775 3103 2400 3103 
Q 2144 3103 1911 2972 
Q 1678 2841 1497 2591 
Q 1319 2344 1212 1994 
Q 1106 1644 1106 1300 
Q 1106 863 1306 627 
Q 1506 391 1875 391 
Q 2147 391 2380 519 
Q 2613 647 2778 891 
Q 2956 1147 3065 1494 
Q 3175 1841 3175 2156 
z
M 1394 2969 
Q 1625 3272 1939 3428 
Q 2253 3584 2638 3584 
Q 3175 3584 3472 3232 
Q 3769 2881 3769 2247 
Q 3769 1728 3584 1258 
Q 3400 788 3053 416 
Q 2822 169 2531 39 
Q 2241 -91 1919 -91 
Q 1547 -91 1294 64 
Q 1041 219 916 525 
L 556 -1331 
L -19 -1331 
L 922 3500 
L 1497 3500 
L 1394 2969 
z
" transform="scale(0.015625)"/>
       <path id="DejaVuSans-Oblique-6c" d="M 1172 4863 
L 1747 4863 
L 800 0 
L 225 0 
L 1172 4863 
z
" transform="scale(0.015625)"/>
       <path id="DejaVuSans-Oblique-69" d="M 1172 4863 
L 1747 4863 
L 1606 4134 
L 1031 4134 
L 1172 4863 
z
M 909 3500 
L 1484 3500 
L 800 0 
L 225 0 
L 909 3500 
z
" transform="scale(0.015625)"/>
       <path id="DejaVuSans-Oblique-6e" d="M 3566 2113 
L 3156 0 
L 2578 0 
L 2988 2091 
Q 3016 2238 3031 2350 
Q 3047 2463 3047 2528 
Q 3047 2791 2881 2937 
Q 2716 3084 2419 3084 
Q 1956 3084 1622 2776 
Q 1288 2469 1184 1941 
L 800 0 
L 225 0 
L 903 3500 
L 1478 3500 
L 1363 2950 
Q 1603 3253 1940 3418 
Q 2278 3584 2650 3584 
Q 3113 3584 3367 3334 
Q 3622 3084 3622 2631 
Q 3622 2519 3608 2391 
Q 3594 2263 3566 2113 
z
" transform="scale(0.015625)"/>
       <path id="DejaVuSans-Oblique-65" d="M 3078 2063 
Q 3088 2113 3092 2166 
Q 3097 2219 3097 2272 
Q 3097 2653 2873 2875 
Q 2650 3097 2266 3097 
Q 1838 3097 1509 2826 
Q 1181 2556 1013 2059 
L 3078 2063 
z
M 3578 1613 
L 903 1613 
Q 884 1494 878 1425 
Q 872 1356 872 1306 
Q 872 872 1139 634 
Q 1406 397 1894 397 
Q 2269 397 2603 481 
Q 2938 566 3225 728 
L 3116 159 
Q 2806 34 2476 -28 
Q 2147 -91 1806 -91 
Q 1078 -91 686 257 
Q 294 606 294 1247 
Q 294 1794 489 2264 
Q 684 2734 1063 3103 
Q 1306 3334 1642 3459 
Q 1978 3584 2356 3584 
Q 2950 3584 3301 3228 
Q 3653 2872 3653 2272 
Q 3653 2128 3634 1964 
Q 3616 1800 3578 1613 
z
" transform="scale(0.015625)"/>
      </defs>
      <use xlink:href="#DejaVuSans-Oblique-43" transform="translate(0 0.765625)"/>
      <use xlink:href="#DejaVuSans-32" transform="translate(77.02474 39.046875) scale(0.7)"/>
      <use xlink:href="#DejaVuSans-Oblique-73" transform="translate(124.295247 0.765625)"/>
      <use xlink:href="#DejaVuSans-Oblique-70" transform="translate(176.394857 0.765625)"/>
      <use xlink:href="#DejaVuSans-Oblique-6c" transform="translate(239.871419 0.765625)"/>
      <use xlink:href="#DejaVuSans-Oblique-69" transform="translate(267.654622 0.765625)"/>
      <use xlink:href="#DejaVuSans-Oblique-6e" transform="translate(295.437826 0.765625)"/>
      <use xlink:href="#DejaVuSans-Oblique-65" transform="translate(358.816732 0.765625)"/>
     </g>
    </g>
    <g id="line2d_66">
     <path d="M 692.309531 78.208594 
L 701.309531 78.208594 
L 710.309531 78.208594 
" style="fill: none; stroke: #33a02c; stroke-width: 1.5; stroke-linecap: square"/>
    </g>
    <g id="text_14">
     <!-- $f(t)$ -->
     <g style="fill: #ffffff" transform="translate(717.509531 81.358594) scale(0.09 -0.09)">
      <defs>
       <path id="DejaVuSans-Oblique-66" d="M 3059 4863 
L 2969 4384 
L 2419 4384 
Q 2106 4384 1964 4261 
Q 1822 4138 1753 3809 
L 1691 3500 
L 2638 3500 
L 2553 3053 
L 1606 3053 
L 1013 0 
L 434 0 
L 1031 3053 
L 481 3053 
L 563 3500 
L 1113 3500 
L 1159 3744 
Q 1278 4363 1576 4613 
Q 1875 4863 2516 4863 
L 3059 4863 
z
" transform="scale(0.015625)"/>
       <path id="DejaVuSans-28" d="M 1984 4856 
Q 1566 4138 1362 3434 
Q 1159 2731 1159 2009 
Q 1159 1288 1364 580 
Q 1569 -128 1984 -844 
L 1484 -844 
Q 1016 -109 783 600 
Q 550 1309 550 2009 
Q 550 2706 781 3412 
Q 1013 4119 1484 4856 
L 1984 4856 
z
" transform="scale(0.015625)"/>
       <path id="DejaVuSans-Oblique-74" d="M 2706 3500 
L 2619 3053 
L 1472 3053 
L 1100 1153 
Q 1081 1047 1072 975 
Q 1063 903 1063 863 
Q 1063 663 1183 572 
Q 1303 481 1569 481 
L 2150 481 
L 2053 0 
L 1503 0 
Q 991 0 739 200 
Q 488 400 488 806 
Q 488 878 497 964 
Q 506 1050 525 1153 
L 897 3053 
L 409 3053 
L 500 3500 
L 978 3500 
L 1172 4494 
L 1747 4494 
L 1556 3500 
L 2706 3500 
z
" transform="scale(0.015625)"/>
       <path id="DejaVuSans-29" d="M 513 4856 
L 1013 4856 
Q 1481 4119 1714 3412 
Q 1947 2706 1947 2009 
Q 1947 1309 1714 600 
Q 1481 -109 1013 -844 
L 513 -844 
Q 928 -128 1133 580 
Q 1338 1288 1338 2009 
Q 1338 2731 1133 3434 
Q 928 4138 513 4856 
z
" transform="scale(0.015625)"/>
      </defs>
      <use xlink:href="#DejaVuSans-Oblique-66" transform="translate(0 0.015625)"/>
      <use xlink:href="#DejaVuSans-28" transform="translate(35.205078 0.015625)"/>
      <use xlink:href="#DejaVuSans-Oblique-74" transform="translate(74.21875 0.015625)"/>
      <use xlink:href="#DejaVuSans-29" transform="translate(113.427734 0.015625)"/>
     </g>
    </g>
    <g id="PathCollection_2">
     <g>
      <use xlink:href="#m86e307a9b3" x="701.309531" y="92.206406" style="fill: #ffffff; stroke: #ffffff"/>
     </g>
    </g>
    <g id="text_15">
     <!-- Data points -->
     <g style="fill: #ffffff" transform="translate(717.509531 94.568906) scale(0.09 -0.09)">
      <defs>
       <path id="DejaVuSans-44" d="M 1259 4147 
L 1259 519 
L 2022 519 
Q 2988 519 3436 956 
Q 3884 1394 3884 2338 
Q 3884 3275 3436 3711 
Q 2988 4147 2022 4147 
L 1259 4147 
z
M 628 4666 
L 1925 4666 
Q 3281 4666 3915 4102 
Q 4550 3538 4550 2338 
Q 4550 1131 3912 565 
Q 3275 0 1925 0 
L 628 0 
L 628 4666 
z
" transform="scale(0.015625)"/>
       <path id="DejaVuSans-61" d="M 2194 1759 
Q 1497 1759 1228 1600 
Q 959 1441 959 1056 
Q 959 750 1161 570 
Q 1363 391 1709 391 
Q 2188 391 2477 730 
Q 2766 1069 2766 1631 
L 2766 1759 
L 2194 1759 
z
M 3341 1997 
L 3341 0 
L 2766 0 
L 2766 531 
Q 2569 213 2275 61 
Q 1981 -91 1556 -91 
Q 1019 -91 701 211 
Q 384 513 384 1019 
Q 384 1609 779 1909 
Q 1175 2209 1959 2209 
L 2766 2209 
L 2766 2266 
Q 2766 2663 2505 2880 
Q 2244 3097 1772 3097 
Q 1472 3097 1187 3025 
Q 903 2953 641 2809 
L 641 3341 
Q 956 3463 1253 3523 
Q 1550 3584 1831 3584 
Q 2591 3584 2966 3190 
Q 3341 2797 3341 1997 
z
" transform="scale(0.015625)"/>
       <path id="DejaVuSans-74" d="M 1172 4494 
L 1172 3500 
L 2356 3500 
L 2356 3053 
L 1172 3053 
L 1172 1153 
Q 1172 725 1289 603 
Q 1406 481 1766 481 
L 2356 481 
L 2356 0 
L 1766 0 
Q 1100 0 847 248 
Q 594 497 594 1153 
L 594 3053 
L 172 3053 
L 172 3500 
L 594 3500 
L 594 4494 
L 1172 4494 
z
" transform="scale(0.015625)"/>
       <path id="DejaVuSans-20" transform="scale(0.015625)"/>
       <path id="DejaVuSans-70" d="M 1159 525 
L 1159 -1331 
L 581 -1331 
L 581 3500 
L 1159 3500 
L 1159 2969 
Q 1341 3281 1617 3432 
Q 1894 3584 2278 3584 
Q 2916 3584 3314 3078 
Q 3713 2572 3713 1747 
Q 3713 922 3314 415 
Q 2916 -91 2278 -91 
Q 1894 -91 1617 61 
Q 1341 213 1159 525 
z
M 3116 1747 
Q 3116 2381 2855 2742 
Q 2594 3103 2138 3103 
Q 1681 3103 1420 2742 
Q 1159 2381 1159 1747 
Q 1159 1113 1420 752 
Q 1681 391 2138 391 
Q 2594 391 2855 752 
Q 3116 1113 3116 1747 
z
" transform="scale(0.015625)"/>
       <path id="DejaVuSans-6f" d="M 1959 3097 
Q 1497 3097 1228 2736 
Q 959 2375 959 1747 
Q 959 1119 1226 758 
Q 1494 397 1959 397 
Q 2419 397 2687 759 
Q 2956 1122 2956 1747 
Q 2956 2369 2687 2733 
Q 2419 3097 1959 3097 
z
M 1959 3584 
Q 2709 3584 3137 3096 
Q 3566 2609 3566 1747 
Q 3566 888 3137 398 
Q 2709 -91 1959 -91 
Q 1206 -91 779 398 
Q 353 888 353 1747 
Q 353 2609 779 3096 
Q 1206 3584 1959 3584 
z
" transform="scale(0.015625)"/>
       <path id="DejaVuSans-69" d="M 603 3500 
L 1178 3500 
L 1178 0 
L 603 0 
L 603 3500 
z
M 603 4863 
L 1178 4863 
L 1178 4134 
L 603 4134 
L 603 4863 
z
" transform="scale(0.015625)"/>
       <path id="DejaVuSans-6e" d="M 3513 2113 
L 3513 0 
L 2938 0 
L 2938 2094 
Q 2938 2591 2744 2837 
Q 2550 3084 2163 3084 
Q 1697 3084 1428 2787 
Q 1159 2491 1159 1978 
L 1159 0 
L 581 0 
L 581 3500 
L 1159 3500 
L 1159 2956 
Q 1366 3272 1645 3428 
Q 1925 3584 2291 3584 
Q 2894 3584 3203 3211 
Q 3513 2838 3513 2113 
z
" transform="scale(0.015625)"/>
       <path id="DejaVuSans-73" d="M 2834 3397 
L 2834 2853 
Q 2591 2978 2328 3040 
Q 2066 3103 1784 3103 
Q 1356 3103 1142 2972 
Q 928 2841 928 2578 
Q 928 2378 1081 2264 
Q 1234 2150 1697 2047 
L 1894 2003 
Q 2506 1872 2764 1633 
Q 3022 1394 3022 966 
Q 3022 478 2636 193 
Q 2250 -91 1575 -91 
Q 1294 -91 989 -36 
Q 684 19 347 128 
L 347 722 
Q 666 556 975 473 
Q 1284 391 1588 391 
Q 1994 391 2212 530 
Q 2431 669 2431 922 
Q 2431 1156 2273 1281 
Q 2116 1406 1581 1522 
L 1381 1569 
Q 847 1681 609 1914 
Q 372 2147 372 2553 
Q 372 3047 722 3315 
Q 1072 3584 1716 3584 
Q 2034 3584 2315 3537 
Q 2597 3491 2834 3397 
z
" transform="scale(0.015625)"/>
      </defs>
      <use xlink:href="#DejaVuSans-44"/>
      <use xlink:href="#DejaVuSans-61" x="77.001953"/>
      <use xlink:href="#DejaVuSans-74" x="138.28125"/>
      <use xlink:href="#DejaVuSans-61" x="177.490234"/>
      <use xlink:href="#DejaVuSans-20" x="238.769531"/>
      <use xlink:href="#DejaVuSans-70" x="270.556641"/>
      <use xlink:href="#DejaVuSans-6f" x="334.033203"/>
      <use xlink:href="#DejaVuSans-69" x="395.214844"/>
      <use xlink:href="#DejaVuSans-6e" x="422.998047"/>
      <use xlink:href="#DejaVuSans-74" x="486.376953"/>
      <use xlink:href="#DejaVuSans-73" x="525.585938"/>
     </g>
    </g>
   </g>
  </g>
 </g>
 <defs>
  <clipPath id="p611e19931f">
   <rect x="108" y="51.84" width="669.6" height="332.64"/>
  </clipPath>
 </defs>
</svg>
